<?xml version="1.0" standalone="no"?>
<!DOCTYPE svg PUBLIC "-//W3C//DTD SVG 20010904//EN"
 "http://www.w3.org/TR/2001/REC-SVG-20010904/DTD/svg10.dtd">
<svg version="1.0" xmlns="http://www.w3.org/2000/svg"
 width="2244.000000pt" height="422.000000pt" viewBox="0 0 2244.000000 422.000000"
 preserveAspectRatio="xMidYMid meet">

<g transform="translate(0.000000,422.000000) scale(0.100000,-0.100000)"
fill="#000000" stroke="none">
<path d="M1440 2433 l0 -1318 217 2 218 3 0 1312 0 1313 -217 3 -218 2 0
-1317z"/>
<path d="M3780 2433 l0 -1318 215 2 215 2 0 1313 0 1313 -215 3 -215 2 0
-1317z"/>
<path d="M9718 3740 c-17 -10 -18 -43 -18 -450 0 -242 -3 -440 -8 -440 -4 0
-39 13 -77 29 -216 91 -432 75 -606 -44 -165 -113 -270 -282 -326 -529 -22
-95 -26 -135 -26 -281 0 -255 31 -421 110 -585 77 -160 211 -274 363 -310 75
-18 221 -16 300 5 90 23 204 85 276 150 l62 55 25 -39 c74 -111 269 -197 329
-145 31 28 97 132 109 175 11 34 9 40 -15 71 -64 85 -60 20 -66 1148 -5 857
-8 1031 -20 1064 -19 52 -70 102 -117 116 -55 16 -274 23 -295 10z m-215
-1165 c31 -8 88 -31 127 -50 l70 -35 0 -416 0 -415 -52 -53 c-102 -101 -253
-144 -344 -98 -117 59 -171 194 -181 449 -10 232 21 394 96 510 70 108 156
141 284 108z"/>
<path d="M20017 3733 c-17 -19 -18 -76 -14 -1149 2 -840 6 -1140 15 -1172 33
-117 88 -188 181 -230 47 -22 74 -27 173 -30 119 -4 333 13 359 29 22 13 19
199 -4 266 l-18 51 -89 4 c-82 3 -91 5 -119 32 -17 17 -36 46 -41 65 -6 23
-10 395 -10 996 0 612 -4 973 -10 996 -16 58 -52 102 -103 128 -40 20 -67 24
-175 28 -118 5 -128 4 -145 -14z"/>
<path d="M10580 3620 c-148 -18 -165 -43 -165 -235 0 -138 11 -166 72 -192 79
-32 342 -25 400 12 28 19 43 91 43 213 0 128 -15 161 -85 183 -63 21 -181 29
-265 19z"/>
<path d="M19159 3430 c-86 -15 -130 -51 -159 -130 -7 -21 -14 -109 -17 -218
l-6 -183 -131 3 -130 3 -7 -38 c-3 -20 -8 -39 -11 -42 -2 -2 -47 11 -99 29
-52 19 -148 47 -214 62 -106 25 -140 28 -290 28 -151 1 -178 -2 -245 -22 -111
-35 -182 -75 -253 -142 -108 -100 -157 -216 -157 -371 0 -175 72 -308 220
-409 78 -53 117 -71 284 -134 174 -66 221 -89 259 -125 40 -37 57 -73 57 -123
0 -62 -30 -104 -94 -134 -134 -61 -325 -37 -556 72 l-95 45 -23 -28 c-47 -58
-111 -216 -112 -274 0 -19 159 -96 263 -128 191 -58 434 -71 622 -32 264 54
432 214 466 444 30 203 -58 400 -233 519 -72 48 -129 74 -319 143 -211 77
-258 105 -279 171 -24 73 22 159 98 185 90 31 280 4 468 -67 53 -19 102 -33
109 -30 27 10 71 83 96 159 l26 80 7 -73 c3 -40 9 -76 12 -81 3 -5 63 -9 135
-9 l129 0 0 -512 c0 -282 5 -546 10 -586 23 -175 118 -284 279 -322 90 -21
533 -2 559 25 10 10 2 214 -11 260 l-13 50 -145 5 c-156 5 -173 11 -205 64
-18 29 -19 60 -19 524 l0 494 212 -2 211 -1 12 72 c12 72 7 189 -10 234 l-9
23 -210 -6 -211 -5 0 260 c0 188 -3 262 -12 271 -14 14 -183 15 -259 2z"/>
<path d="M2022 2140 l3 -1021 215 0 215 0 3 1021 2 1020 -220 0 -220 0 2
-1020z"/>
<path d="M3194 2955 c-2 -5 -3 -421 -2 -923 l3 -913 215 0 215 0 0 921 0 921
-214 2 c-135 1 -215 -2 -217 -8z"/>
<path d="M5975 2940 c-241 -21 -615 -124 -615 -168 1 -74 51 -220 95 -278 l24
-32 122 39 c163 52 299 79 402 79 93 0 136 -11 185 -47 55 -41 75 -94 80 -208
l4 -100 -188 3 c-117 3 -217 -1 -264 -8 -259 -42 -441 -186 -504 -400 -59
-200 -4 -436 132 -562 105 -97 227 -141 386 -140 177 1 310 54 474 189 33 26
34 26 44 8 38 -70 156 -145 262 -167 l59 -13 41 46 c43 47 106 155 106 181 0
8 -9 23 -19 32 -11 10 -30 39 -43 64 -23 47 -23 50 -29 537 -5 419 -8 499 -23
550 -45 158 -136 269 -278 334 -46 22 -106 44 -134 49 -75 16 -217 21 -319 12z
m263 -1017 l32 -5 0 -153 0 -153 -40 -35 c-58 -50 -146 -93 -215 -108 -166
-34 -268 48 -268 216 0 126 53 197 170 230 47 13 251 18 321 8z"/>
<path d="M11778 2940 c-265 -45 -468 -230 -562 -510 -53 -161 -70 -407 -41
-606 46 -305 184 -518 410 -630 111 -55 208 -75 350 -76 215 0 367 50 513 170
328 268 377 1019 91 1397 -99 131 -263 226 -441 255 -72 11 -251 11 -320 0z
m238 -341 c95 -24 174 -127 211 -276 25 -98 25 -478 0 -576 -34 -134 -93 -223
-176 -264 -54 -27 -173 -24 -227 4 -56 30 -109 94 -135 162 -80 214 -74 620
13 800 63 130 176 184 314 150z"/>
<path d="M16367 2934 c-104 -23 -170 -51 -253 -106 -268 -179 -397 -601 -318
-1044 60 -343 251 -566 549 -644 112 -30 307 -30 420 -1 368 95 573 413 575
891 0 212 -33 371 -111 529 -89 180 -233 302 -424 359 -104 32 -332 40 -438
16z m274 -339 c98 -34 162 -122 201 -281 18 -75 21 -118 22 -279 0 -205 -16
-306 -66 -412 -80 -171 -290 -216 -419 -91 -53 51 -86 124 -111 246 -17 84
-19 124 -15 292 6 271 37 381 134 475 61 59 166 80 254 50z"/>
<path d="M7097 2919 c-42 -10 -86 -30 -134 -62 l-31 -21 20 -39 c46 -91 50
-141 57 -712 l7 -540 28 -83 c54 -156 155 -266 282 -306 201 -63 438 0 652
174 35 28 65 50 67 48 1 -2 9 -16 18 -33 24 -48 93 -121 140 -148 48 -28 138
-57 178 -57 35 0 98 69 140 156 l31 62 -31 43 c-66 91 -65 74 -71 824 l-5 680
-55 8 c-63 10 -370 4 -388 -7 -9 -5 -12 -150 -12 -606 l0 -598 -36 -31 c-94
-83 -190 -121 -303 -121 -121 0 -159 35 -180 169 -6 36 -11 266 -11 535 0 259
-4 487 -9 506 -18 81 -65 134 -135 155 -54 16 -159 18 -219 4z"/>
<path d="M13259 2916 c-5 -6 -9 -346 -9 -882 l0 -871 46 -7 c60 -8 298 -8 358
0 l46 7 0 598 0 597 55 50 c80 71 154 106 236 110 107 6 154 -31 184 -144 13
-49 15 -151 15 -635 l0 -577 64 -7 c81 -9 367 -3 384 8 9 6 12 139 12 605 l0
598 58 48 c82 70 162 106 237 106 93 0 149 -45 175 -140 5 -21 10 -237 11
-505 0 -259 4 -496 9 -528 20 -140 81 -196 223 -204 93 -6 171 11 244 54 55
32 58 37 39 77 -47 100 -49 121 -56 711 -5 502 -8 566 -24 615 -49 149 -122
240 -234 293 -59 28 -79 32 -173 35 -173 6 -314 -44 -482 -171 -48 -37 -88
-67 -90 -67 -2 0 -21 27 -43 61 -42 65 -103 116 -181 151 -75 33 -238 38 -335
8 -90 -27 -173 -72 -266 -145 l-70 -55 -18 52 c-20 60 -84 130 -136 147 -43
14 -266 20 -279 7z"/>
<path d="M20787 2919 c-21 -5 -60 -19 -88 -30 -39 -17 -48 -26 -44 -40 3 -10
105 -363 225 -786 170 -595 226 -777 248 -808 36 -52 110 -91 197 -105 38 -6
71 -13 73 -15 7 -7 -30 -109 -65 -179 -47 -93 -121 -166 -198 -196 -53 -20
-72 -22 -170 -17 -63 3 -139 14 -177 25 -49 14 -70 16 -77 8 -35 -44 -75 -160
-86 -254 l-7 -52 39 -16 c133 -56 406 -73 567 -35 104 25 208 77 275 137 96
86 209 283 280 486 47 135 502 1815 495 1831 -3 8 -22 20 -42 27 -45 15 -290
24 -351 13 l-44 -8 -172 -708 c-95 -389 -175 -711 -179 -714 -16 -16 -28 27
-75 252 -43 209 -240 965 -273 1050 -43 109 -101 146 -229 144 -46 -1 -101 -5
-122 -10z"/>
<path d="M10411 2910 c-56 -6 -98 -15 -102 -22 -21 -33 -23 -239 -4 -289 4
-11 24 -18 61 -22 70 -7 101 -27 125 -80 18 -40 19 -76 19 -684 0 -502 3 -644
13 -650 16 -10 323 -17 393 -8 l55 7 -3 756 -3 757 -22 48 c-37 79 -78 123
-148 158 -59 29 -74 32 -177 35 -62 1 -155 -2 -207 -6z"/>
<path d="M852 1870 l3 -751 215 0 215 0 3 751 2 750 -220 0 -220 0 2 -750z"/>
<path d="M4362 1870 l3 -751 215 0 215 0 3 751 2 750 -220 0 -220 0 2 -750z"/>
<path d="M2610 1678 l0 -563 215 0 215 0 0 563 0 562 -215 0 -215 0 0 -562z"/>
<path d="M270 1535 l0 -405 218 2 217 3 3 403 2 402 -220 0 -220 0 0 -405z"/>
<path d="M10670 796 c-17 -19 -25 -41 -28 -81 -4 -45 -8 -55 -22 -55 -25 0
-50 -10 -50 -21 0 -5 16 -9 35 -9 l35 0 0 -170 c0 -144 2 -170 15 -170 13 0
15 26 15 170 l0 170 45 0 c33 0 45 4 45 15 0 11 -12 15 -46 15 l-47 0 5 51 c7
65 24 82 85 83 65 1 57 20 -10 24 -46 2 -56 -1 -77 -22z"/>
<path d="M17830 555 c0 -242 2 -266 16 -263 14 3 17 17 15 98 -3 189 25 244
125 244 49 1 59 -2 80 -27 23 -27 24 -34 24 -173 0 -124 2 -144 16 -144 13 0
15 20 12 161 l-3 161 -28 23 c-15 13 -42 27 -60 30 -42 8 -112 -10 -138 -36
-10 -10 -22 -19 -25 -19 -3 0 -4 46 -3 103 1 87 -1 102 -15 105 -14 3 -16 -22
-16 -263z"/>
<path d="M20060 714 l0 -106 -30 26 c-38 31 -85 41 -137 27 -72 -20 -113 -89
-113 -193 0 -86 29 -144 84 -169 23 -10 54 -19 69 -19 34 0 88 22 106 43 16
20 31 13 31 -14 0 -10 5 -19 10 -19 6 0 10 95 10 265 0 229 -2 265 -15 265
-12 0 -15 -18 -15 -106z m-48 -101 c48 -43 63 -154 31 -234 -35 -88 -165 -92
-209 -6 -11 20 -17 56 -17 97 0 117 48 176 136 166 21 -2 48 -13 59 -23z"/>
<path d="M13844 786 c-9 -23 0 -51 16 -51 10 0 15 10 15 29 0 32 -21 47 -31
22z"/>
<path d="M15991 782 c-12 -23 9 -59 27 -48 16 10 15 41 -2 55 -12 10 -17 8
-25 -7z"/>
<path d="M17504 786 c-9 -23 0 -51 16 -51 10 0 15 10 15 29 0 32 -21 47 -31
22z"/>
<path d="M14367 733 c-3 -10 -8 -30 -11 -45 -4 -17 -14 -28 -28 -30 -31 -4
-35 -28 -5 -28 l26 0 3 -149 c3 -129 6 -152 22 -170 24 -26 80 -37 113 -22 33
15 21 26 -23 22 -23 -2 -42 3 -55 15 -17 15 -19 32 -19 160 l0 143 53 3 c28 2
52 8 52 13 0 6 -24 11 -52 13 l-53 3 0 45 c0 44 -14 60 -23 27z"/>
<path d="M15809 745 c-4 -5 -10 -25 -14 -43 -9 -43 -40 -55 -103 -41 -115 26
-201 -29 -222 -141 -22 -117 36 -221 133 -235 60 -9 121 5 125 29 3 15 0 17
-14 11 -43 -17 -102 -17 -139 1 -99 46 -100 251 -2 297 40 19 68 21 114 8 18
-5 35 -6 37 -2 3 4 19 6 36 3 l30 -4 0 -145 0 -145 29 -29 c29 -29 68 -37 105
-23 29 11 17 24 -21 24 -73 0 -83 23 -83 189 l0 131 55 0 c42 0 55 3 55 15 0
11 -13 15 -54 15 l-55 0 -3 48 c-2 26 -6 43 -9 37z"/>
<path d="M17648 740 c-3 -8 -9 -28 -13 -43 -4 -20 -15 -31 -35 -39 -34 -11
-31 -28 5 -28 l24 0 3 -149 c3 -129 6 -152 22 -170 21 -23 73 -36 105 -26 34
10 24 25 -17 25 -68 0 -76 20 -80 181 l-4 139 56 0 c43 0 56 3 56 15 0 11 -13
15 -54 15 l-55 0 -3 48 c-2 26 -6 40 -10 32z"/>
<path d="M9135 659 c-45 -11 -60 -22 -51 -38 4 -6 20 -5 48 5 58 20 93 18 124
-9 21 -19 27 -33 28 -68 l1 -44 -82 -5 c-88 -6 -126 -24 -151 -71 -17 -32 -8
-86 19 -115 42 -44 142 -41 184 6 23 26 33 25 37 -2 2 -12 9 -23 16 -26 9 -3
12 30 12 145 0 173 -11 204 -77 222 -44 12 -53 12 -108 0z m152 -225 c-6 -59
-33 -95 -84 -113 -69 -25 -123 4 -123 65 0 43 27 71 77 79 21 4 43 8 48 10 6
2 27 4 49 4 l39 1 -6 -46z"/>
<path d="M9659 660 c-77 -23 -119 -89 -119 -186 1 -106 50 -173 138 -190 46
-9 116 7 120 27 2 14 -4 14 -46 6 -91 -19 -153 19 -173 107 -34 153 69 252
206 200 13 -5 16 -2 13 12 -5 29 -80 42 -139 24z"/>
<path d="M9930 648 c-65 -34 -85 -74 -85 -173 0 -67 4 -86 24 -119 26 -42 86
-75 136 -76 51 0 116 40 139 85 28 53 28 154 2 213 -36 80 -134 112 -216 70z
m146 -33 c35 -22 54 -73 54 -140 0 -72 -20 -119 -62 -145 -60 -36 -124 -22
-164 37 -57 84 -29 229 51 264 28 12 91 4 121 -16z"/>
<path d="M10346 660 c-16 -5 -39 -19 -52 -31 l-24 -22 0 26 c0 17 -5 27 -15
27 -13 0 -15 -27 -15 -185 0 -158 2 -185 15 -185 12 0 15 19 15 113 0 184 25
231 125 231 44 1 59 -3 77 -22 22 -21 23 -32 26 -172 3 -122 6 -150 18 -150
11 0 14 26 14 148 0 128 -3 151 -20 179 -27 45 -95 63 -164 43z"/>
<path d="M10870 648 c-60 -31 -90 -89 -90 -172 0 -129 75 -203 193 -192 61 6
97 20 97 37 0 7 -11 8 -32 2 -18 -4 -59 -8 -90 -8 -46 0 -61 4 -83 25 -33 31
-41 45 -49 93 l-7 37 137 0 137 0 -6 55 c-7 65 -36 111 -83 131 -46 19 -73 18
-124 -8z m129 -34 c25 -21 51 -74 51 -106 0 -5 -52 -8 -116 -8 l-117 0 6 36
c15 89 112 132 176 78z"/>
<path d="M11254 660 c-12 -4 -30 -20 -42 -34 -26 -34 -32 -33 -32 4 0 20 -5
30 -15 30 -13 0 -15 -27 -15 -185 0 -178 1 -185 20 -185 19 0 20 7 20 131 0
114 3 136 20 164 23 37 68 60 105 53 29 -6 45 10 24 23 -17 11 -57 10 -85 -1z"/>
<path d="M11484 660 c-71 -22 -122 -120 -111 -212 12 -98 58 -150 144 -164 53
-8 143 12 143 33 0 11 -6 13 -22 8 -54 -16 -115 -17 -151 -2 -43 19 -77 68
-77 115 l0 32 135 0 135 0 -6 48 c-14 111 -95 171 -190 142z m97 -36 c31 -15
59 -66 59 -104 0 -19 -6 -20 -116 -20 l-116 0 6 32 c9 46 33 77 69 93 42 19
62 18 98 -1z"/>
<path d="M11856 660 c-16 -5 -39 -19 -51 -30 l-23 -22 -4 23 c-2 12 -9 24 -15
27 -10 3 -13 -38 -13 -182 0 -159 2 -186 15 -186 13 0 15 21 15 128 0 155 12
189 77 211 30 11 52 12 80 5 61 -15 73 -50 73 -211 0 -115 2 -133 16 -133 14
0 15 18 12 153 -3 157 -9 180 -50 206 -26 16 -97 22 -132 11z"/>
<path d="M12217 656 c-50 -19 -67 -34 -88 -81 -22 -48 -25 -151 -5 -198 19
-47 68 -85 121 -92 59 -9 119 5 123 29 3 15 0 17 -14 11 -11 -4 -37 -9 -60
-12 -97 -12 -162 64 -151 179 6 71 27 105 82 132 32 16 46 18 87 9 48 -10 71
-2 51 18 -17 17 -106 20 -146 5z"/>
<path d="M12525 663 c-38 -10 -77 -46 -96 -87 -27 -60 -25 -159 4 -211 40 -71
138 -103 226 -72 40 14 58 44 20 33 -133 -38 -214 -1 -234 107 l-7 37 136 0
136 0 0 38 c-1 49 -32 116 -64 137 -27 18 -88 27 -121 18z m111 -57 c26 -26
34 -42 34 -70 l0 -36 -111 0 -112 0 6 36 c7 39 38 81 72 94 43 18 76 11 111
-24z"/>
<path d="M13015 655 c-73 -26 -111 -101 -103 -201 6 -74 36 -125 88 -152 24
-12 58 -22 75 -22 51 0 116 40 139 85 29 56 29 165 0 220 -36 69 -121 99 -199
70z m110 -29 c53 -22 75 -67 75 -151 0 -80 -20 -124 -69 -150 -38 -19 -74 -19
-112 0 -48 25 -69 70 -69 148 0 80 17 119 63 147 38 24 66 25 112 6z"/>
<path d="M13414 659 c-17 -5 -37 -16 -44 -24 -17 -21 -30 -19 -30 5 0 11 -7
20 -15 20 -13 0 -15 -27 -15 -186 0 -166 2 -185 16 -182 14 3 16 18 15 108 -1
125 9 174 43 209 21 21 35 25 82 25 49 1 59 -2 80 -27 23 -27 24 -34 24 -173
0 -121 2 -144 15 -144 22 0 22 278 -1 321 -25 50 -95 70 -170 48z"/>
<path d="M14076 660 c-16 -5 -39 -19 -52 -31 l-24 -22 0 26 c0 17 -5 27 -15
27 -13 0 -15 -27 -15 -185 0 -158 2 -185 15 -185 12 0 15 20 15 120 0 146 14
190 67 215 45 22 108 15 137 -14 19 -20 21 -35 24 -171 3 -122 6 -150 18 -150
11 0 14 26 14 148 0 128 -3 151 -20 179 -27 45 -95 63 -164 43z"/>
<path d="M14646 660 c-71 -22 -110 -88 -110 -185 -1 -115 44 -175 141 -191 53
-8 143 12 143 33 0 11 -6 13 -22 8 -54 -16 -115 -17 -151 -2 -43 19 -77 68
-77 115 l0 32 130 0 130 0 0 48 c0 103 -89 172 -184 142z m112 -40 c6 0 42
-86 42 -102 0 -16 -12 -18 -115 -18 -99 0 -115 2 -115 16 0 22 28 80 46 95 22
18 76 26 109 17 16 -4 31 -8 33 -8z"/>
<path d="M15003 655 c-17 -7 -37 -24 -44 -37 l-13 -23 -8 33 c-19 74 -28 27
-28 -153 0 -158 2 -185 15 -185 13 0 15 20 15 120 0 172 28 225 116 225 44 0
60 17 28 29 -24 9 -46 7 -81 -9z"/>
<path d="M15210 657 c-28 -7 -45 -18 -45 -27 0 -8 7 -13 15 -11 83 22 113 25
138 10 30 -16 59 -85 49 -112 -5 -14 -20 -17 -71 -17 -141 0 -211 -74 -161
-170 29 -57 134 -65 194 -15 36 31 41 31 41 0 0 -16 6 -25 16 -25 14 0 15 18
12 153 -3 156 -9 180 -49 205 -29 18 -90 22 -139 9z m160 -207 c-1 -94 -96
-164 -174 -129 -51 24 -55 103 -6 129 26 14 91 25 142 25 34 0 38 -2 38 -25z"/>
<path d="M16204 660 c-42 -13 -91 -70 -100 -115 -11 -62 0 -162 22 -192 39
-52 71 -68 134 -68 64 1 96 17 134 69 18 23 21 42 21 121 0 100 -10 126 -66
167 -29 22 -103 31 -145 18z m110 -35 c50 -24 71 -68 71 -150 0 -91 -23 -134
-83 -155 -94 -33 -172 38 -172 155 1 125 87 196 184 150z"/>
<path d="M16606 660 c-16 -5 -39 -19 -51 -30 l-23 -22 -4 23 c-2 12 -9 24 -15
27 -10 3 -13 -38 -13 -182 0 -159 2 -186 15 -186 13 0 15 21 15 125 0 152 11
188 67 211 48 21 112 13 135 -16 15 -19 18 -44 18 -171 0 -144 1 -149 21 -149
20 0 21 3 17 155 l-3 155 -30 30 c-33 33 -98 46 -149 30z"/>
<path d="M18405 655 c-48 -17 -65 -38 -65 -80 0 -41 39 -78 112 -105 77 -29
108 -54 108 -90 0 -57 -91 -85 -182 -57 -45 14 -48 14 -48 -3 0 -10 8 -21 18
-24 85 -25 168 -17 212 20 24 21 30 34 30 65 0 53 -27 78 -118 113 -98 38
-126 81 -81 122 23 21 97 26 157 11 25 -7 32 -6 32 6 0 19 -18 26 -83 32 -33
3 -67 0 -92 -10z"/>
<path d="M18741 657 c-19 -6 -48 -29 -65 -50 -28 -35 -31 -47 -34 -115 -3 -65
0 -84 20 -121 34 -65 67 -86 138 -86 64 0 95 16 134 69 18 23 21 42 21 121 0
100 -10 126 -66 167 -31 23 -105 31 -148 15z m115 -32 c102 -42 96 -265 -8
-304 -104 -38 -190 50 -175 181 8 64 30 102 69 121 41 21 69 21 114 2z"/>
<path d="M19526 660 c-16 -5 -39 -19 -52 -31 l-24 -22 0 26 c0 17 -5 27 -15
27 -13 0 -15 -27 -15 -185 0 -152 2 -185 14 -185 11 0 15 28 18 138 4 152 10
171 67 198 43 21 106 13 135 -15 19 -20 21 -35 24 -171 3 -122 6 -150 18 -150
11 0 14 25 14 140 0 151 -11 199 -49 219 -29 16 -101 22 -135 11z"/>
<path d="M13840 475 c0 -178 1 -185 20 -185 19 0 20 7 20 185 0 178 -1 185
-20 185 -19 0 -20 -7 -20 -185z"/>
<path d="M15990 475 c0 -158 2 -185 15 -185 13 0 15 27 15 185 0 158 -2 185
-15 185 -13 0 -15 -27 -15 -185z"/>
<path d="M16980 653 c0 -4 23 -87 50 -183 28 -96 50 -176 50 -177 0 -2 8 -3
18 -3 14 0 28 31 67 153 48 149 65 189 65 154 0 -10 21 -83 47 -162 37 -115
51 -145 65 -145 13 0 21 14 32 53 60 214 85 311 81 315 -17 17 -35 -25 -70
-162 -22 -86 -43 -156 -46 -156 -4 0 -9 14 -13 31 -3 18 -25 90 -48 161 -30
94 -45 128 -56 126 -15 -3 -94 -211 -107 -282 -7 -37 -25 -50 -25 -18 0 9 -17
80 -39 157 -28 102 -43 141 -55 143 -9 2 -16 0 -16 -5z"/>
<path d="M17500 475 c0 -178 1 -185 20 -185 19 0 20 7 20 185 0 178 -1 185
-20 185 -19 0 -20 -7 -20 -185z"/>
<path d="M19030 525 c0 -188 22 -234 117 -242 37 -4 59 1 95 20 46 23 48 23
54 5 5 -18 26 -22 25 -5 -1 4 -1 86 -1 182 0 149 -2 175 -15 175 -13 0 -15
-21 -15 -132 0 -114 -3 -138 -20 -165 -23 -38 -80 -59 -133 -49 -57 11 -61 23
-67 190 -4 133 -7 151 -22 154 -16 3 -18 -8 -18 -133z"/>
</g>
</svg>
