<?xml version="1.0" encoding="UTF-8" standalone="no"?>
<svg
   xmlns:dc="http://purl.org/dc/elements/1.1/"
   xmlns:cc="http://creativecommons.org/ns#"
   xmlns:rdf="http://www.w3.org/1999/02/22-rdf-syntax-ns#"
   xmlns:svg="http://www.w3.org/2000/svg"
   xmlns="http://www.w3.org/2000/svg"
   xmlns:sodipodi="http://sodipodi.sourceforge.net/DTD/sodipodi-0.dtd"
   xmlns:inkscape="http://www.inkscape.org/namespaces/inkscape"
   width="191.78584"
   height="153.35715"
   viewBox="0 0 191.78584 153.35714"
   version="1.2"
   id="svg108"
   sodipodi:docname="Repertoire-1.svg"
   inkscape:version="0.92.2 (5c3e80d, 2017-08-06)">
  <metadata
     id="metadata114">
    <rdf:RDF>
      <cc:Work
         rdf:about="">
        <dc:format>image/svg+xml</dc:format>
        <dc:type
           rdf:resource="http://purl.org/dc/dcmitype/StillImage" />
        <dc:title>Carolan_Guitar_menu_codes_gerneral</dc:title>
      </cc:Work>
    </rdf:RDF>
  </metadata>
  <defs
     id="defs112" />
  <sodipodi:namedview
     pagecolor="#ffffff"
     bordercolor="#666666"
     borderopacity="1"
     objecttolerance="10"
     gridtolerance="10"
     guidetolerance="10"
     inkscape:pageopacity="0"
     inkscape:pageshadow="2"
     inkscape:window-width="640"
     inkscape:window-height="480"
     id="namedview110"
     showgrid="false"
     fit-margin-top="0"
     fit-margin-left="0"
     fit-margin-right="0"
     fit-margin-bottom="0"
     inkscape:zoom="0.84258538"
     inkscape:cx="163.48077"
     inkscape:cy="87.98305"
     inkscape:window-x="51"
     inkscape:window-y="82"
     inkscape:window-maximized="0"
     inkscape:current-layer="svg108" />
  <title
     id="title2">Carolan_Guitar_menu_codes_gerneral</title>
  <desc
     id="desc4">Generated by MuseScore 2.1.0</desc>
  <polyline
     class="StaffLines"
     points="42.5197,96.7804 221.95,96.7804"
     id="polyline6"
     style="fill:none;stroke:#000000;stroke-width:0.40000001;stroke-linejoin:bevel"
     transform="translate(-33.710613,-39.512058)" />
  <polyline
     class="StaffLines"
     points="42.5197,101.741 221.95,101.741"
     id="polyline8"
     style="fill:none;stroke:#000000;stroke-width:0.40000001;stroke-linejoin:bevel"
     transform="translate(-33.710613,-39.512058)" />
  <polyline
     class="StaffLines"
     points="42.5197,106.702 221.95,106.702"
     id="polyline10"
     style="fill:none;stroke:#000000;stroke-width:0.40000001;stroke-linejoin:bevel"
     transform="translate(-33.710613,-39.512058)" />
  <polyline
     class="StaffLines"
     points="42.5197,111.662 221.95,111.662"
     id="polyline12"
     style="fill:none;stroke:#000000;stroke-width:0.40000001;stroke-linejoin:bevel"
     transform="translate(-33.710613,-39.512058)" />
  <polyline
     class="StaffLines"
     points="42.5197,116.623 221.95,116.623"
     id="polyline14"
     style="fill:none;stroke:#000000;stroke-width:0.40000001;stroke-linejoin:bevel"
     transform="translate(-33.710613,-39.512058)" />
  <polyline
     class="StaffLines"
     points="42.5197,143.906 221.95,143.906"
     id="polyline16"
     style="fill:none;stroke:#000000;stroke-width:0.40000001;stroke-linejoin:bevel"
     transform="translate(-33.710613,-39.512058)" />
  <polyline
     class="StaffLines"
     points="42.5197,151.347 221.95,151.347"
     id="polyline18"
     style="fill:none;stroke:#000000;stroke-width:0.40000001;stroke-linejoin:bevel"
     transform="translate(-33.710613,-39.512058)" />
  <polyline
     class="StaffLines"
     points="42.5197,158.788 221.95,158.788"
     id="polyline20"
     style="fill:none;stroke:#000000;stroke-width:0.40000001;stroke-linejoin:bevel"
     transform="translate(-33.710613,-39.512058)" />
  <polyline
     class="StaffLines"
     points="42.5197,166.229 221.95,166.229"
     id="polyline22"
     style="fill:none;stroke:#000000;stroke-width:0.40000001;stroke-linejoin:bevel"
     transform="translate(-33.710613,-39.512058)" />
  <polyline
     class="StaffLines"
     points="42.5197,173.67 221.95,173.67"
     id="polyline24"
     style="fill:none;stroke:#000000;stroke-width:0.40000001;stroke-linejoin:bevel"
     transform="translate(-33.710613,-39.512058)" />
  <polyline
     class="StaffLines"
     points="42.5197,181.111 221.95,181.111"
     id="polyline26"
     style="fill:none;stroke:#000000;stroke-width:0.40000001;stroke-linejoin:bevel"
     transform="translate(-33.710613,-39.512058)" />
  <path
     class="Text"
     d="m 19.224087,7.1209417 0.1319,2.7949 h -0.334 c -0.0645,-0.4922 -0.1524,-0.8437 -0.2637,-1.0547 -0.1816,-0.3398 -0.4233,-0.5903 -0.7251,-0.7514 -0.3017,-0.1612 -0.6987,-0.2417 -1.1909,-0.2417 h -1.6787 v 9.1054003 c 0,0.7324 0.0791,1.1895 0.2373,1.3711 0.2227,0.2461 0.5654,0.3692 1.0283,0.3692 h 0.4131 v 0.3252 h -5.0537 v -0.3252 h 0.4219 c 0.5039,0 0.8613,-0.1524 1.0722,-0.4571 0.1289,-0.1875 0.1934,-0.6152 0.1934,-1.2832 V 7.8680417 h -1.4326 c -0.5567,0 -0.9522,0.041 -1.1865,0.123 -0.3047,0.1113 -0.5655,0.3252 -0.7823,0.6416 -0.2168003,0.3164 -0.3457003,0.7441 -0.3867003,1.2832 h -0.334 l 0.1406,-2.7949 h 9.7295003 m 3.8194,3.6299003 c 1.2187,0 2.1972,0.4629 2.9355,1.3886 0.627,0.7911 0.9405,1.6993 0.9405,2.7246 0,0.7207 -0.1729,1.4502 -0.5186,2.1885 -0.3457,0.7383 -0.8218,1.2949 -1.4282,1.6699 -0.6065,0.375 -1.2818,0.5625 -2.0259,0.5625 -1.2129,0 -2.1768,-0.4834 -2.8916,-1.4502 -0.6035,-0.8144 -0.9053,-1.7285 -0.9053,-2.7421 0,-0.7383 0.1831,-1.4722 0.5493,-2.2017 0.3662,-0.7295 0.8482,-1.2686 1.4458,-1.6172 0.5977,-0.3486 1.2305,-0.5229 1.8985,-0.5229 m -0.2725,0.5713 c -0.3105,0 -0.6225,0.0922 -0.936,0.2768 -0.3135,0.1846 -0.5669,0.5083 -0.7603,0.9712 -0.1933,0.4629 -0.29,1.0576 -0.29,1.7842 0,1.1719 0.2329,2.1826 0.6987,3.0322 0.4658,0.8496 1.0796,1.2744 1.8413,1.2744 0.5684,0 1.0371,-0.2344 1.4063,-0.7031 0.3691,-0.4688 0.5537,-1.2744 0.5537,-2.417 0,-1.4297 -0.3076,-2.5547 -0.9229,-3.375 -0.416,-0.5625 -0.9463,-0.8437 -1.5908,-0.8437 m 15.0381,-0.5713 v 2.7422 h -0.29 c -0.2227,-0.8614 -0.5083,-1.4473 -0.857,-1.7579 -0.3486,-0.3105 -0.7925,-0.4658 -1.3315,-0.4658 -0.4102,0 -0.7412,0.1084 -0.9932,0.3252 -0.2519,0.2168 -0.3779,0.457 -0.3779,0.7207 0,0.3281 0.0937,0.6094 0.2812,0.8438 0.1817,0.2402 0.5508,0.4951 1.1075,0.7646 l 1.2832,0.624 c 1.1894,0.5801 1.7841,1.3448 1.7841,2.294 0,0.7324 -0.2768,1.3227 -0.8305,1.771 -0.5537,0.4482 -1.1734,0.6723 -1.8589,0.6723 -0.4922,0 -1.0547,-0.0878 -1.6875,-0.2636 -0.1934,-0.0586 -0.3516,-0.0879 -0.4746,-0.0879 -0.1348,0 -0.2403,0.0762 -0.3164,0.2285 h -0.2901 v -2.874 h 0.2901 c 0.164,0.8203 0.4775,1.4385 0.9404,1.8545 0.4629,0.416 0.9815,0.624 1.5557,0.624 0.4043,0 0.7339,-0.1187 0.9887,-0.356 0.2549,-0.2373 0.3824,-0.5229 0.3824,-0.8569 0,-0.4043 -0.1421,-0.7441 -0.4263,-1.0195 -0.2842,-0.2754 -0.8511,-0.6241 -1.7007,-1.0459 -0.8496,-0.4219 -1.4062,-0.8028 -1.6699,-1.1426 -0.2637,-0.334 -0.3955,-0.7559 -0.3955,-1.2656 0,-0.6621 0.227,-1.2159 0.6811,-1.6612 0.4541,-0.4453 1.0415,-0.6679 1.7622,-0.6679 0.3164,0 0.7002,0.0673 1.1514,0.2021 0.2988,0.0879 0.4981,0.1318 0.5977,0.1318 0.0937,0 0.167,-0.0205 0.2197,-0.0615 0.0527,-0.041 0.1142,-0.1318 0.1846,-0.2724 h 0.29 m 3.1504,3.2695 c -0.0059,1.1953 0.2842,2.1328 0.8701,2.8125 0.5859,0.6797 1.2744,1.0195 2.0654,1.0195 0.5274,0 0.9859,-0.145 1.3755,-0.435 0.3897,-0.2901 0.7163,-0.7867 0.98,-1.4898 l 0.2725,0.1758 c -0.1231,0.8027 -0.4805,1.5337 -1.0723,2.1929 -0.5918,0.6592 -1.333,0.9887 -2.2236,0.9887 -0.9668,0 -1.7945,-0.3764 -2.4829,-1.1294 -0.6885,-0.7529 -1.0328,-1.7651 -1.0328,-3.0366 0,-1.3769 0.3531,-2.4507 1.0591,-3.2212 0.7061,-0.7705 1.5923,-1.1557 2.6587,-1.1557 0.9024,0 1.6436,0.2973 2.2237,0.8921 0.58,0.5947 0.8701,1.3901 0.8701,2.3862 h -5.5635 m 0,-0.5098 h 3.7266 c -0.0293,-0.5156 -0.0909,-0.8789 -0.1846,-1.0898 -0.1465,-0.3281 -0.3648,-0.586 -0.6548,-0.7735 -0.29,-0.1875 -0.5933,-0.2812 -0.9097,-0.2812 -0.4863,0 -0.9214,0.189 -1.3051,0.5669 -0.3838,0.3779 -0.608,0.9038 -0.6724,1.5776 m 7.9844,0.5098 c -0.0059,1.1953 0.2841,2.1328 0.8701,2.8125 0.5859,0.6797 1.2744,1.0195 2.0654,1.0195 0.5274,0 0.9859,-0.145 1.3755,-0.435 0.3896,-0.2901 0.7163,-0.7867 0.98,-1.4898 l 0.2724,0.1758 c -0.123,0.8027 -0.4804,1.5337 -1.0722,2.1929 -0.5918,0.6592 -1.333,0.9887 -2.2237,0.9887 -0.9668,0 -1.7944,-0.3764 -2.4829,-1.1294 -0.6884,-0.7529 -1.0327,-1.7651 -1.0327,-3.0366 0,-1.3769 0.353,-2.4507 1.0591,-3.2212 0.7061,-0.7705 1.5923,-1.1557 2.6587,-1.1557 0.9023,0 1.6435,0.2973 2.2236,0.8921 0.5801,0.5947 0.8701,1.3901 0.8701,2.3862 h -5.5634 m 0,-0.5098 h 3.7265 c -0.0293,-0.5156 -0.0908,-0.8789 -0.1845,-1.0898 -0.1465,-0.3281 -0.3648,-0.586 -0.6548,-0.7735 -0.2901,-0.1875 -0.5933,-0.2812 -0.9097,-0.2812 -0.4863,0 -0.9214,0.189 -1.3052,0.5669 -0.3838,0.3779 -0.6079,0.9038 -0.6723,1.5776 m 13.5215,-1.0459 c 0.5859,-0.5859 0.9316,-0.9228 1.0371,-1.0107 0.2636,-0.2227 0.5478,-0.3955 0.8525,-0.5186 0.3047,-0.123 0.6064,-0.1845 0.9053,-0.1845 0.5039,0 0.9375,0.1464 1.3011,0.4394 0.363,0.293 0.606,0.7178 0.729,1.2744 0.604,-0.7031 1.113,-1.1645 1.529,-1.3842 0.416,-0.2198 0.844,-0.3296 1.284,-0.3296 0.427,0 0.807,0.1098 1.138,0.3296 0.331,0.2197 0.593,0.5786 0.786,1.0766 0.129,0.3399 0.194,0.8731 0.194,1.5996 v 3.4629 c 0,0.5039 0.038,0.8496 0.114,1.0371 0.059,0.1289 0.167,0.2388 0.325,0.3296 0.158,0.0908 0.416,0.1362 0.774,0.1362 v 0.3165 h -3.973 v -0.3165 h 0.167 c 0.346,0 0.615,-0.0673 0.809,-0.2021 0.134,-0.0938 0.231,-0.2432 0.29,-0.4482 0.023,-0.0997 0.035,-0.3838 0.035,-0.8526 v -3.4629 c 0,-0.6562 -0.079,-1.1191 -0.237,-1.3886 -0.229,-0.375 -0.595,-0.5625 -1.099,-0.5625 -0.311,0 -0.623,0.0776 -0.936,0.2329 -0.314,0.1552 -0.693,0.4438 -1.138,0.8657 l -0.018,0.0967 0.018,0.3779 v 3.8408 c 0,0.5508 0.03,0.8936 0.092,1.0283 0.061,0.1348 0.177,0.2476 0.347,0.3384 0.17,0.0908 0.46,0.1362 0.87,0.1362 v 0.3165 h -4.0691 v -0.3165 c 0.4453,0 0.7515,-0.0527 0.9185,-0.1582 0.167,-0.1054 0.2827,-0.2636 0.3471,-0.4746 0.0293,-0.0996 0.044,-0.3896 0.044,-0.8701 v -3.4629 c 0,-0.6562 -0.0967,-1.1279 -0.2901,-1.415 -0.2578,-0.375 -0.6181,-0.5625 -1.081,-0.5625 -0.3164,0 -0.6299,0.0849 -0.9404,0.2549 -0.4864,0.2578 -0.8614,0.5478 -1.125,0.8701 v 4.3154 c 0,0.5274 0.0366,0.8701 0.1098,1.0283 0.0733,0.1582 0.1817,0.2769 0.3252,0.356 0.1436,0.0791 0.4351,0.1186 0.8745,0.1186 v 0.3165 h -3.9814 v -0.3165 c 0.3691,0 0.6269,-0.0395 0.7734,-0.1186 0.1465,-0.0791 0.2578,-0.2051 0.334,-0.3779 0.0762,-0.1729 0.1143,-0.5083 0.1143,-1.0064 v -3.0762 c 0,-0.8847 -0.0264,-1.456 -0.0791,-1.7138 -0.0411,-0.1934 -0.1055,-0.3267 -0.1934,-0.3999 -0.0879,-0.0733 -0.208,-0.1099 -0.3604,-0.1099 -0.164,0 -0.3603,0.044 -0.5888,0.1318 l -0.1319,-0.3164 2.4258,-0.9843 h 0.378 v 1.7138 m 11.152,-1.4765 h 3.753 v 0.3252 h -0.184 c -0.264,0 -0.462,0.0571 -0.594,0.1714 -0.131,0.1142 -0.197,0.2563 -0.197,0.4262 0,0.2285 0.096,0.5449 0.29,0.9492 l 1.96,4.0606 1.801,-4.4473 c 0.1,-0.2402 0.15,-0.4775 0.15,-0.7119 0,-0.1055 -0.021,-0.1846 -0.062,-0.2373 -0.047,-0.0645 -0.12,-0.1157 -0.219,-0.1538 -0.1,-0.0381 -0.276,-0.0571 -0.528,-0.0571 v -0.3252 h 2.619 v 0.3252 c -0.216,0.0234 -0.383,0.0703 -0.501,0.1406 -0.117,0.0703 -0.246,0.2021 -0.386,0.3955 -0.053,0.082 -0.153,0.3076 -0.299,0.6768 l -3.278,8.0332 c -0.317,0.7793 -0.731,1.3681 -1.244,1.7666 -0.513,0.3984 -1.006,0.5976 -1.481,0.5976 -0.346,0 -0.63,-0.0996 -0.853,-0.2988 -0.222,-0.1992 -0.334,-0.4277 -0.334,-0.6856 0,-0.2461 0.081,-0.4438 0.242,-0.5932 0.161,-0.1494 0.382,-0.2241 0.664,-0.2241 0.193,0 0.457,0.0644 0.791,0.1933 0.234,0.0879 0.381,0.1319 0.439,0.1319 0.176,0 0.368,-0.0909 0.576,-0.2725 0.208,-0.1816 0.417,-0.5332 0.628,-1.0547 l 0.572,-1.3975 -2.892,-6.0732 c -0.088,-0.1816 -0.229,-0.4072 -0.422,-0.6768 -0.146,-0.205 -0.267,-0.3427 -0.36,-0.413 -0.135,-0.0938 -0.352,-0.1758 -0.651,-0.2461 v -0.3252 m 16.313,-0.2373 v 1.8105 c 0.674,-1.207 1.365,-1.8105 2.074,-1.8105 0.322,0 0.589,0.0981 0.8,0.2944 0.211,0.1963 0.316,0.4233 0.316,0.6812 0,0.2285 -0.076,0.4218 -0.228,0.58 -0.153,0.1582 -0.334,0.2373 -0.545,0.2373 -0.205,0 -0.435,-0.101 -0.69,-0.3032 -0.255,-0.2021 -0.444,-0.3032 -0.567,-0.3032 -0.106,0 -0.22,0.0586 -0.343,0.1758 -0.263,0.2402 -0.536,0.6357 -0.817,1.1865 v 3.8584 c 0,0.4453 0.055,0.7822 0.167,1.0107 0.076,0.1582 0.211,0.2901 0.404,0.3955 0.193,0.1055 0.472,0.1582 0.835,0.1582 v 0.3165 h -4.122 v -0.3165 c 0.41,0 0.715,-0.0644 0.914,-0.1933 0.147,-0.0938 0.249,-0.2432 0.308,-0.4483 0.029,-0.0996 0.044,-0.3837 0.044,-0.8525 v -3.1201 c 0,-0.9375 -0.019,-1.4956 -0.058,-1.6743 -0.038,-0.1787 -0.108,-0.3091 -0.21,-0.3911 -0.103,-0.0821 -0.23,-0.1231 -0.383,-0.1231 -0.181,0 -0.387,0.044 -0.615,0.1318 l -0.088,-0.3164 2.435,-0.9843 h 0.369 m 4.982,3.2695 c -0.006,1.1953 0.284,2.1328 0.87,2.8125 0.586,0.6797 1.275,1.0195 2.066,1.0195 0.527,0 0.986,-0.145 1.375,-0.435 0.39,-0.2901 0.717,-0.7867 0.980003,-1.4898 l 0.273,0.1758 c -0.123,0.8027 -0.481003,1.5337 -1.073003,2.1929 -0.591,0.6592 -1.333,0.9887 -2.223,0.9887 -0.967,0 -1.795,-0.3764 -2.483,-1.1294 -0.689,-0.7529 -1.033,-1.7651 -1.033,-3.0366 0,-1.3769 0.353,-2.4507 1.059,-3.2212 0.706,-0.7705 1.593,-1.1557 2.659,-1.1557 0.902,0 1.643,0.2973 2.224,0.8921 0.580003,0.5947 0.870003,1.3901 0.870003,2.3862 h -5.564003 m 0,-0.5098 h 3.727 c -0.03,-0.5156 -0.091,-0.8789 -0.185,-1.0898 -0.146,-0.3281 -0.365,-0.586 -0.655,-0.7735 -0.29,-0.1875 -0.593,-0.2812 -0.909,-0.2812 -0.487,0 -0.922,0.189 -1.305,0.5669 -0.384,0.3779 -0.608,0.9038 -0.673,1.5776 m 6.051003,-1.7226 2.479,-1.002 h 0.333 v 1.8809 c 0.417,-0.709 0.834,-1.2056 1.253,-1.4898 0.419,-0.2841 0.86,-0.4262 1.323,-0.4262 0.808,0 1.482,0.3164 2.021,0.9492 0.662,0.7734 0.993,1.7812 0.993,3.0234 0,1.3887 -0.398,2.5371 -1.195,3.4453 -0.656,0.7442 -1.482,1.1162 -2.478,1.1162 -0.434,0 -0.809,-0.0615 -1.125,-0.1845 -0.235,-0.0879 -0.499,-0.2637 -0.792,-0.5274 v 2.4522 c 0,0.5508 0.034,0.9009 0.102,1.0503 0.067,0.1494 0.184,0.268 0.351,0.3559 0.167,0.0879 0.47,0.1319 0.91,0.1319 v 0.3252 h -4.219 v -0.3252 h 0.22 c 0.322,0.0058 0.597,-0.0557 0.826,-0.1846 0.111,-0.0645 0.198,-0.1685 0.259,-0.312 0.062,-0.1436 0.093,-0.5083 0.093,-1.0943 v -7.6113 c 0,-0.5215 -0.024,-0.8525 -0.071,-0.9931 -0.047,-0.1407 -0.121,-0.2461 -0.224,-0.3165 -0.102,-0.0703 -0.242,-0.1054 -0.417,-0.1054 -0.141,0 -0.32,0.041 -0.537,0.123 l -0.105,-0.2812 m 2.812,1.3974 v 3.0059 c 0,0.6504 0.027,1.0781 0.08,1.2832 0.082,0.3398 0.282,0.6387 0.602,0.8965 0.319,0.2578 0.722,0.3867 1.208,0.3867 0.586,0 1.061,-0.2285 1.424,-0.6855 0.475,-0.5977 0.712,-1.4385 0.712,-2.5225 0,-1.2305 -0.27,-2.1768 -0.809,-2.8389 -0.375,-0.457 -0.82,-0.6855 -1.336,-0.6855 -0.281,0 -0.559,0.0703 -0.835,0.2109 -0.211,0.1055 -0.559,0.4219 -1.046,0.9492 m 8.122,0.835 c -0.006,1.1953 0.284,2.1328 0.87,2.8125 0.586,0.6797 1.274,1.0195 2.065,1.0195 0.527,0 0.986,-0.145 1.376,-0.435 0.389,-0.2901 0.716,-0.7867 0.98,-1.4898 l 0.272,0.1758 c -0.123,0.8027 -0.48,1.5337 -1.072,2.1929 -0.592,0.6592 -1.333,0.9887 -2.224,0.9887 -0.967,0 -1.794,-0.3764 -2.483,-1.1294 -0.688,-0.7529 -1.032,-1.7651 -1.032,-3.0366 0,-1.3769 0.353,-2.4507 1.059,-3.2212 0.706,-0.7705 1.592,-1.1557 2.658,-1.1557 0.903,0 1.644,0.2973 2.224,0.8921 0.58,0.5947 0.87,1.3901 0.87,2.3862 h -5.563 m 0,-0.5098 h 3.726 c -0.029,-0.5156 -0.091,-0.8789 -0.184,-1.0898 -0.147,-0.3281 -0.365,-0.586 -0.655,-0.7735 -0.29,-0.1875 -0.593,-0.2812 -0.91,-0.2812 -0.486,0 -0.921,0.189 -1.305,0.5669 -0.384,0.3779 -0.608,0.9038 -0.672,1.5776 m 8.986,-2.7597 v 1.8105 c 0.674,-1.207 1.365,-1.8105 2.074,-1.8105 0.322,0 0.589,0.0981 0.8,0.2944 0.211,0.1963 0.316,0.4233 0.316,0.6812 0,0.2285 -0.076,0.4218 -0.228,0.58 -0.153,0.1582 -0.334,0.2373 -0.545,0.2373 -0.205,0 -0.435,-0.101 -0.69,-0.3032 -0.255,-0.2021 -0.444,-0.3032 -0.567,-0.3032 -0.105,0 -0.22,0.0586 -0.343,0.1758 -0.263,0.2402 -0.536,0.6357 -0.817,1.1865 v 3.8584 c 0,0.4453 0.056,0.7822 0.167,1.0107 0.076,0.1582 0.211,0.2901 0.404,0.3955 0.194,0.1055 0.472,0.1582 0.835,0.1582 v 0.3165 h -4.122 v -0.3165 c 0.41,0 0.715,-0.0644 0.914,-0.1933 0.147,-0.0938 0.249,-0.2432 0.308,-0.4483 0.029,-0.0996 0.044,-0.3837 0.044,-0.8525 v -3.1201 c 0,-0.9375 -0.019,-1.4956 -0.057,-1.6743 -0.038,-0.1787 -0.109,-0.3091 -0.211,-0.3911 -0.103,-0.0821 -0.23,-0.1231 -0.383,-0.1231 -0.181,0 -0.386,0.044 -0.615,0.1318 l -0.088,-0.3164 2.435,-0.9843 h 0.369 m 5.967,-2.4082003 v 2.6455003 h 1.881 v 0.6152 h -1.881 v 5.2207 c 0,0.5215 0.074,0.8731 0.224,1.0547 0.149,0.1816 0.341,0.2725 0.576,0.2725 0.193,0 0.38,-0.0601 0.562,-0.1802 0.182,-0.1201 0.322,-0.2974 0.422,-0.5318 h 0.343 c -0.205,0.5743 -0.495,1.0064 -0.87,1.2964 -0.375,0.2901 -0.762,0.4351 -1.161,0.4351 -0.269,0 -0.533,-0.0747 -0.791,-0.2241 -0.257,-0.1494 -0.448,-0.3633 -0.571,-0.6416 -0.123,-0.2784 -0.184,-0.7076 -0.184,-1.2876 v -5.4141 h -1.275 v -0.29 c 0.322,-0.1289 0.652,-0.3472 0.989,-0.6548 0.337,-0.3076 0.637,-0.6724003 0.901,-1.0943003 0.135,-0.2226 0.322,-0.6298 0.562,-1.2216 h 0.273 m 6.599,2.4082003 c 1.219,0 2.198,0.4629 2.936,1.3886 0.627,0.7911 0.94,1.6993 0.94,2.7246 0,0.7207 -0.173,1.4502 -0.518,2.1885 -0.346,0.7383 -0.822,1.2949 -1.428,1.6699 -0.607,0.375 -1.282,0.5625 -2.026,0.5625 -1.213,0 -2.177,-0.4834 -2.892,-1.4502 -0.603,-0.8144 -0.905,-1.7285 -0.905,-2.7421 0,-0.7383 0.183,-1.4722 0.549,-2.2017 0.366,-0.7295 0.848,-1.2686 1.446,-1.6172 0.598,-0.3486 1.23,-0.5229 1.898,-0.5229 m -0.272,0.5713 c -0.311,0 -0.623,0.0922 -0.936,0.2768 -0.314,0.1846 -0.567,0.5083 -0.76,0.9712 -0.194,0.4629 -0.29,1.0576 -0.29,1.7842 0,1.1719 0.232,2.1826 0.698,3.0322 0.466,0.8496 1.08,1.2744 1.842,1.2744 0.568,0 1.037,-0.2344 1.406,-0.7031 0.369,-0.4688 0.554,-1.2744 0.554,-2.417 0,-1.4297 -0.308,-2.5547 -0.923,-3.375 -0.416,-0.5625 -0.947,-0.8437 -1.591,-0.8437 m 7.383,-4.7813003 c 0.246,0 0.455,0.0864 0.628,0.2593 0.173,0.1728 0.259,0.3823 0.259,0.6284 0,0.2461 -0.086,0.457 -0.259,0.6328 -0.173,0.1758 -0.382,0.2637 -0.628,0.2637 -0.246,0 -0.457,-0.0879 -0.633,-0.2637 -0.176,-0.1758 -0.264,-0.3867 -0.264,-0.6328 0,-0.2461 0.087,-0.4556 0.259,-0.6284 0.173,-0.1729 0.386,-0.2593 0.638,-0.2593 m 0.729,4.2100003 v 6.4687 c 0,0.5039 0.037,0.8394 0.11,1.0064 0.073,0.167 0.182,0.2915 0.325,0.3735 0.144,0.082 0.406,0.123 0.787,0.123 v 0.3165 h -3.911 v -0.3165 c 0.392,0 0.656,-0.038 0.791,-0.1142 0.134,-0.0762 0.241,-0.2022 0.321,-0.3779 0.079,-0.1758 0.118,-0.5127 0.118,-1.0108 v -3.1025 c 0,-0.8731 -0.026,-1.4385 -0.079,-1.6963 -0.041,-0.1875 -0.105,-0.3179 -0.193,-0.3911 -0.088,-0.0733 -0.208,-0.1099 -0.361,-0.1099 -0.164,0 -0.363,0.044 -0.597,0.1318 l -0.123,-0.3164 2.425,-0.9843 h 0.387 m 4.578,0 v 1.8105 c 0.674,-1.207 1.366,-1.8105 2.075,-1.8105 0.322,0 0.588,0.0981 0.799,0.2944 0.211,0.1963 0.317,0.4233 0.317,0.6812 0,0.2285 -0.076,0.4218 -0.229,0.58 -0.152,0.1582 -0.334,0.2373 -0.545,0.2373 -0.205,0 -0.435,-0.101 -0.69,-0.3032 -0.255,-0.2021 -0.444,-0.3032 -0.567,-0.3032 -0.105,0 -0.219,0.0586 -0.342,0.1758 -0.264,0.2402 -0.536,0.6357 -0.818,1.1865 v 3.8584 c 0,0.4453 0.056,0.7822 0.167,1.0107 0.076,0.1582 0.211,0.2901 0.405,0.3955 0.193,0.1055 0.471,0.1582 0.835,0.1582 v 0.3165 h -4.123 v -0.3165 c 0.411,0 0.715,-0.0644 0.915,-0.1933 0.146,-0.0938 0.249,-0.2432 0.307,-0.4483 0.029,-0.0996 0.044,-0.3837 0.044,-0.8525 v -3.1201 c 0,-0.9375 -0.019,-1.4956 -0.057,-1.6743 -0.038,-0.1787 -0.108,-0.3091 -0.211,-0.3911 -0.103,-0.0821 -0.23,-0.1231 -0.382,-0.1231 -0.182,0 -0.387,0.044 -0.616,0.1318 l -0.087,-0.3164 2.434,-0.9843 h 0.369 m 4.983,3.2695 c -0.006,1.1953 0.284,2.1328 0.87,2.8125 0.586,0.6797 1.274,1.0195 2.065,1.0195 0.528,0 0.986,-0.145 1.376,-0.435 0.389,-0.2901 0.716,-0.7867 0.98,-1.4898 l 0.272,0.1758 c -0.123,0.8027 -0.48,1.5337 -1.072,2.1929 -0.592,0.6592 -1.333,0.9887 -2.224,0.9887 -0.967,0 -1.794,-0.3764 -2.483,-1.1294 -0.688,-0.7529 -1.032,-1.7651 -1.032,-3.0366 0,-1.3769 0.353,-2.4507 1.059,-3.2212 0.706,-0.7705 1.592,-1.1557 2.658,-1.1557 0.903,0 1.644,0.2973 2.224,0.8921 0.58,0.5947 0.87,1.3901 0.87,2.3862 h -5.563 m 0,-0.5098 h 3.726 c -0.029,-0.5156 -0.091,-0.8789 -0.184,-1.0898 -0.147,-0.3281 -0.365,-0.586 -0.655,-0.7735 -0.29,-0.1875 -0.593,-0.2812 -0.91,-0.2812 -0.486,0 -0.921,0.189 -1.305,0.5669 -0.384,0.3779 -0.608,0.9038 -0.672,1.5776"
     id="path28"
     inkscape:connector-curvature="0" />
  <path
     class="Text"
     d="m 8.7914867,32.459742 2.4785003,-1.0019 h 0.334 v 1.8809 c 0.416,-0.709 0.8335,-1.2056 1.2525,-1.4898 0.4189,-0.2842 0.8598,-0.4263 1.3227,-0.4263 0.8086,0 1.4824,0.3164 2.0215,0.9493 0.6621,0.7734 0.9932,1.7812 0.9932,3.0234 0,1.3887 -0.3985,2.5371 -1.1953,3.4453 -0.6563,0.7441 -1.4825,1.1162 -2.4786,1.1162 -0.4336,0 -0.8086,-0.0615 -1.125,-0.1846 -0.2343,-0.0878 -0.498,-0.2636 -0.791,-0.5273 v 2.4522 c 0,0.5507 0.0337,0.9008 0.1011,1.0502 0.0674,0.1495 0.1846,0.2681 0.3516,0.356 0.167,0.0879 0.4702,0.1318 0.9096,0.1318 v 0.3252 H 8.7475867 v -0.3252 h 0.2197 c 0.3223,0.0059 0.5977,-0.0556 0.8262,-0.1845 0.1113,-0.0645 0.1977,-0.1685 0.2593003,-0.312 0.0615,-0.1436 0.0922,-0.5083 0.0922,-1.0943 v -7.6113 c 0,-0.5215 -0.0234,-0.8525 -0.0703,-0.9932 -0.0468,-0.1406 -0.1216003,-0.2461 -0.2241003,-0.3164 -0.1025,-0.0703 -0.2417,-0.1054 -0.4175,-0.1054 -0.1406,0 -0.3193,0.041 -0.5361,0.123 l -0.1055,-0.2813 m 2.8125003,1.3975 v 3.0059 c 0,0.6504 0.0264,1.0781 0.0791,1.2832 0.0821,0.3398 0.2827,0.6386 0.6021,0.8965 0.3193,0.2578 0.7221,0.3867 1.2085,0.3867 0.5859,0 1.0605,-0.2285 1.4238,-0.6856 0.4746,-0.5976 0.7119,-1.4384 0.7119,-2.5224 0,-1.2305 -0.2695,-2.1768 -0.8086,-2.8389 -0.375,-0.457 -0.8203,-0.6855 -1.3359,-0.6855 -0.2813,0 -0.5596,0.0703 -0.835,0.2109 -0.2109,0.1055 -0.5595,0.4219 -1.0459,0.9492 m 9.5362,-6.6445 v 10.6787 c 0,0.5039 0.0366,0.8379 0.1098,1.0019 0.0733,0.1641 0.1861,0.2886 0.3384,0.3736 0.1523,0.0849 0.4365,0.1274 0.8525,0.1274 v 0.3164 h -3.9463 v -0.3164 c 0.3692,0 0.6211,-0.0381 0.7559,-0.1142 0.1348,-0.0762 0.2402,-0.2022 0.3164,-0.378 0.0762,-0.1757 0.1143,-0.5127 0.1143,-1.0107 v -7.3125 c 0,-0.9082 -0.0205,-1.4663 -0.0616,-1.6743 -0.041,-0.208 -0.1069,-0.3501 -0.1977,-0.4263 -0.0908,-0.0762 -0.2065,-0.1143 -0.3472,-0.1143 -0.1523,0 -0.3457,0.0469 -0.5801,0.1407 l -0.1494,-0.3076 2.3994,-0.9844 h 0.3956 m 6.7929,11.3379 c -0.8261,0.6386 -1.3447,1.0078 -1.5556,1.1074 -0.3164,0.1465 -0.6534,0.2197 -1.0108,0.2197 -0.5566,0 -1.0151,-0.1904 -1.3755,-0.5713 -0.3603,-0.3808 -0.5405,-0.8818 -0.5405,-1.5029 0,-0.3926 0.0879,-0.7324 0.2637,-1.0195 0.2402,-0.3985 0.6577,-0.7735 1.2524,-1.125 0.5947,-0.3516 1.5835,-0.7793 2.9663,-1.2832 v -0.3164 c 0,-0.8028 -0.1274,-1.3536 -0.3823,-1.6524 -0.2549,-0.2988 -0.6255,-0.4482 -1.1118,-0.4482 -0.3692,0 -0.6621,0.0996 -0.8789,0.2988 -0.2227,0.1992 -0.334,0.4277 -0.334,0.6855 l 0.0176,0.5098 c 0,0.2695 -0.0689,0.4776 -0.2066,0.624 -0.1377,0.1465 -0.3178,0.2198 -0.5405,0.2198 -0.2168,0 -0.394,-0.0762 -0.5317,-0.2286 -0.1377,-0.1523 -0.2066,-0.3603 -0.2066,-0.624 0,-0.5039 0.2578,-0.9668 0.7735,-1.3886 0.5156,-0.4219 1.2392,-0.6329 2.1709,-0.6329 0.7148,0 1.3007,0.1202 1.7578,0.3604 0.3457,0.1816 0.6006,0.4658 0.7646,0.8525 0.1055,0.252 0.1582,0.7676 0.1582,1.5469 v 2.7334 c 0,0.7676 0.0147,1.2378 0.044,1.4106 0.0293,0.1729 0.0776,0.2886 0.145,0.3472 0.0674,0.0586 0.145,0.0879 0.2329,0.0879 0.0937,0 0.1758,-0.0205 0.2461,-0.0615 0.123,-0.0762 0.3603,-0.2901 0.7119,-0.6416 v 0.4922 c -0.6562,0.8789 -1.2832,1.3183 -1.8809,1.3183 -0.2871,0 -0.5156,-0.0996 -0.6855,-0.2988 -0.1699,-0.1992 -0.2578,-0.5391 -0.2637,-1.0195 m 0,-0.5713 v -3.0674 c -0.8847,0.3516 -1.456,0.6006 -1.7138,0.7471 -0.4629,0.2578 -0.794,0.5273 -0.9932,0.8086 -0.1992,0.2812 -0.2988,0.5888 -0.2988,0.9228 0,0.4219 0.1259,0.772 0.3779,1.0503 0.2519,0.2783 0.542,0.4175 0.8701,0.4175 0.4453,0 1.0313,-0.293 1.7578,-0.8789 m 2.9658,-6.3194 h 3.753 v 0.3252 h -0.1846 c -0.2637,0 -0.4614,0.0572 -0.5933,0.1714 -0.1318,0.1143 -0.1977,0.2564 -0.1977,0.4263 0,0.2285 0.0967,0.5449 0.29,0.9492 l 1.96,4.0606 1.8017,-4.4473 c 0.0997,-0.2402 0.1495,-0.4775 0.1495,-0.7119 0,-0.1055 -0.0205,-0.1846 -0.0616,-0.2373 -0.0468,-0.0645 -0.1201,-0.1157 -0.2197,-0.1538 -0.0996,-0.0381 -0.2754,-0.0572 -0.5273,-0.0572 v -0.3252 h 2.6191 v 0.3252 c -0.2168,0.0235 -0.3838,0.0704 -0.501,0.1407 -0.1172,0.0703 -0.2461,0.2021 -0.3867,0.3955 -0.0527,0.082 -0.1523,0.3076 -0.2988,0.6767 l -3.2783,8.0332 c -0.3164,0.7793 -0.731,1.3682 -1.2437,1.7666 -0.5127,0.3985 -1.0063,0.5977 -1.4809,0.5977 -0.3457,0 -0.6299,-0.0996 -0.8526,-0.2988 -0.2226,-0.1993 -0.334,-0.4278 -0.334,-0.6856 0,-0.2461 0.0806,-0.4438 0.2417,-0.5932 0.1612,-0.1495 0.3824,-0.2242 0.6636,-0.2242 0.1934,0 0.457,0.0645 0.791,0.1934 0.2344,0.0879 0.3809,0.1318 0.4395,0.1318 0.1758,0 0.3676,-0.0908 0.5757,-0.2724 0.208,-0.1817 0.4174,-0.5332 0.6284,-1.0547 l 0.5713,-1.3975 -2.8916,-6.0732 c -0.0879,-0.1817 -0.2286,-0.4072 -0.4219,-0.6768 -0.1465,-0.2051 -0.2666,-0.3428 -0.3604,-0.4131 -0.1347,-0.0937 -0.3515,-0.1757 -0.6504,-0.2461 v -0.3252 m 11.4346,-0.246 c 0.2695,0 0.4995,0.0952 0.69,0.2856 0.1904,0.1904 0.2856,0.4204 0.2856,0.6899 0,0.2696 -0.0952,0.4995 -0.2856,0.69 -0.1905,0.1904 -0.4205,0.2856 -0.69,0.2856 -0.2695,0 -0.4995,-0.0952 -0.6899,-0.2856 -0.1905,-0.1905 -0.2857,-0.4204 -0.2857,-0.69 0,-0.2695 0.0952,-0.4995 0.2857,-0.6899 0.1904,-0.1904 0.4204,-0.2856 0.6899,-0.2856 m -0.0176,6.583 c 0.2754,0 0.5083,0.0966 0.6988,0.29 0.1904,0.1934 0.2856,0.4248 0.2856,0.6943 0,0.2696 -0.0967,0.4995 -0.29,0.69 -0.1934,0.1904 -0.4248,0.2856 -0.6944,0.2856 -0.2695,0 -0.4995,-0.0952 -0.6899,-0.2856 -0.1904,-0.1905 -0.2856,-0.4204 -0.2856,-0.69 0,-0.2695 0.0952,-0.5009 0.2856,-0.6943 0.1904,-0.1934 0.4204,-0.29 0.6899,-0.29"
     id="path30"
     inkscape:connector-curvature="0" />
  <polyline
     class="BarLine"
     points="42.9166,96.7804 42.9166,181.111"
     id="polyline32"
     style="fill:none;stroke:#000000;stroke-width:0.79000002;stroke-linejoin:bevel"
     transform="translate(-33.710613,-39.512058)" />
  <polyline
     class="BarLine"
     points="217.089,143.906 217.089,181.111"
     id="polyline34"
     style="fill:none;stroke:#000000;stroke-width:0.79000002;stroke-linejoin:bevel"
     transform="translate(-33.710613,-39.512058)" />
  <polyline
     class="BarLine"
     points="220.71,143.906 220.71,181.111"
     id="polyline36"
     style="fill:none;stroke:#000000;stroke-width:2.48000002;stroke-linejoin:bevel"
     transform="translate(-33.710613,-39.512058)" />
  <polyline
     class="BarLine"
     points="217.089,96.7804 217.089,116.623"
     id="polyline38"
     style="fill:none;stroke:#000000;stroke-width:0.79000002;stroke-linejoin:bevel"
     transform="translate(-33.710613,-39.512058)" />
  <polyline
     class="BarLine"
     points="220.71,96.7804 220.71,116.623"
     id="polyline40"
     style="fill:none;stroke:#000000;stroke-width:2.48000002;stroke-linejoin:bevel"
     transform="translate(-33.710613,-39.512058)" />
  <polyline
     class="LedgerLine"
     points="181.182,121.584 190.689,121.584"
     id="polyline42"
     style="fill:none;stroke:#000000;stroke-width:0.79000002;stroke-linecap:square;stroke-linejoin:bevel"
     transform="translate(-33.710613,-39.512058)" />
  <polyline
     class="LedgerLine"
     points="181.182,126.544 190.689,126.544"
     id="polyline44"
     style="fill:none;stroke:#000000;stroke-width:0.79000002;stroke-linecap:square;stroke-linejoin:bevel"
     transform="translate(-33.710613,-39.512058)" />
  <polyline
     class="LedgerLine"
     points="181.182,131.505 190.689,131.505"
     id="polyline46"
     style="fill:none;stroke:#000000;stroke-width:0.79000002;stroke-linecap:square;stroke-linejoin:bevel"
     transform="translate(-33.710613,-39.512058)" />
  <polyline
     class="LedgerLine"
     points="147.16,121.584 156.668,121.584"
     id="polyline48"
     style="fill:none;stroke:#000000;stroke-width:0.79000002;stroke-linecap:square;stroke-linejoin:bevel"
     transform="translate(-33.710613,-39.512058)" />
  <polyline
     class="LedgerLine"
     points="147.16,126.544 156.668,126.544"
     id="polyline50"
     style="fill:none;stroke:#000000;stroke-width:0.79000002;stroke-linecap:square;stroke-linejoin:bevel"
     transform="translate(-33.710613,-39.512058)" />
  <polyline
     class="LedgerLine"
     points="147.16,131.505 156.668,131.505"
     id="polyline52"
     style="fill:none;stroke:#000000;stroke-width:0.79000002;stroke-linecap:square;stroke-linejoin:bevel"
     transform="translate(-33.710613,-39.512058)" />
  <polyline
     class="LedgerLine"
     points="113.139,121.584 122.646,121.584"
     id="polyline54"
     style="fill:none;stroke:#000000;stroke-width:0.79000002;stroke-linecap:square;stroke-linejoin:bevel"
     transform="translate(-33.710613,-39.512058)" />
  <polyline
     class="LedgerLine"
     points="113.139,126.544 122.646,126.544"
     id="polyline56"
     style="fill:none;stroke:#000000;stroke-width:0.79000002;stroke-linecap:square;stroke-linejoin:bevel"
     transform="translate(-33.710613,-39.512058)" />
  <polyline
     class="LedgerLine"
     points="113.139,131.505 122.646,131.505"
     id="polyline58"
     style="fill:none;stroke:#000000;stroke-width:0.79000002;stroke-linecap:square;stroke-linejoin:bevel"
     transform="translate(-33.710613,-39.512058)" />
  <polyline
     class="LedgerLine"
     points="79.1167,121.584 88.6241,121.584"
     id="polyline60"
     style="fill:none;stroke:#000000;stroke-width:0.79000002;stroke-linecap:square;stroke-linejoin:bevel"
     transform="translate(-33.710613,-39.512058)" />
  <polyline
     class="LedgerLine"
     points="79.1167,126.544 88.6241,126.544"
     id="polyline62"
     style="fill:none;stroke:#000000;stroke-width:0.79000002;stroke-linecap:square;stroke-linejoin:bevel"
     transform="translate(-33.710613,-39.512058)" />
  <polyline
     class="LedgerLine"
     points="79.1167,131.505 88.6241,131.505"
     id="polyline64"
     style="fill:none;stroke:#000000;stroke-width:0.79000002;stroke-linecap:square;stroke-linejoin:bevel"
     transform="translate(-33.710613,-39.512058)" />
  <polyline
     class="Stem"
     points="188.879,133.053 188.879,106.702"
     id="polyline66"
     style="fill:none;stroke:#000000;stroke-width:0.63999999;stroke-linecap:round;stroke-linejoin:bevel"
     transform="translate(-33.710613,-39.512058)" />
  <polyline
     class="Stem"
     points="154.857,130.573 154.857,106.702"
     id="polyline68"
     style="fill:none;stroke:#000000;stroke-width:0.63999999;stroke-linecap:round;stroke-linejoin:bevel"
     transform="translate(-33.710613,-39.512058)" />
  <polyline
     class="Stem"
     points="120.835,133.053 120.835,106.702"
     id="polyline70"
     style="fill:none;stroke:#000000;stroke-width:0.63999999;stroke-linecap:round;stroke-linejoin:bevel"
     transform="translate(-33.710613,-39.512058)" />
  <polyline
     class="Stem"
     points="86.8135,130.573 86.8135,106.702"
     id="polyline72"
     style="fill:none;stroke:#000000;stroke-width:0.63999999;stroke-linecap:round;stroke-linejoin:bevel"
     transform="translate(-33.710613,-39.512058)" />
  <path
     class="Note"
     d="m 149.70339,137.87894 h 5.953 v 7.441 h -5.953 v -7.441"
     id="path74"
     inkscape:connector-curvature="0"
     style="fill:#ffffff;fill-rule:evenodd" />
  <path
     class="Note"
     d="m 150.58334,141.59825 c 0,-0.5298 0.0447,-0.99709 0.13394,-1.40188 0.0893,-0.40478 0.20239,-0.72177 0.3393,-0.95095 0.13692,-0.22918 0.30062,-0.4152 0.49111,-0.55807 0.19048,-0.14287 0.37353,-0.23811 0.54914,-0.28573 0.1756,-0.0476 0.36163,-0.0714 0.55807,-0.0714 1.38104,0 2.07156,1.10721 2.07156,3.32163 0,1.04174 -0.1771,1.83792 -0.53129,2.38855 -0.35418,0.55063 -0.86761,0.82594 -1.54027,0.82594 -0.67862,0 -1.19353,-0.27829 -1.54474,-0.83487 -0.35121,-0.55658 -0.52682,-1.36765 -0.52682,-2.43319 m 3.3395,-0.0179 c 0,-1.70249 -0.42265,-2.55373 -1.26794,-2.55373 -0.84529,0 -1.26794,0.86017 -1.26794,2.58052 0,1.7382 0.41669,2.60731 1.25008,2.60731 0.4405,0 0.76493,-0.2143 0.97328,-0.6429 0.20834,-0.4286 0.31252,-1.09233 0.31252,-1.9912"
     id="path76"
     inkscape:connector-curvature="0"
     style="stroke-width:0.99212599" />
  <path
     class="Note"
     d="m 153.31931,91.740716 c 0.62008,0 1.14328,0.161478 1.56958,0.484445 0.40047,0.348792 0.6007,0.788016 0.6007,1.317663 0,0.891363 -0.4586,1.724593 -1.3758,2.499691 -0.93012,0.775098 -1.92482,1.162652 -2.98413,1.162652 -0.62008,0 -1.14326,-0.161478 -1.56957,-0.484445 -0.40047,-0.348792 -0.6007,-0.788016 -0.6007,-1.317662 0,-0.891363 0.46506,-1.724594 1.39517,-2.499691 0.90429,-0.775099 1.89253,-1.162653 2.96475,-1.162653"
     id="path78"
     inkscape:connector-curvature="0"
     style="stroke-width:0.99212599" />
  <path
     class="Note"
     d="m 115.68239,137.87894 h 5.952 v 7.441 h -5.952 v -7.441"
     id="path80"
     inkscape:connector-curvature="0"
     style="fill:#ffffff;fill-rule:evenodd" />
  <path
     class="Note"
     d="m 118.49103,140.15173 h -1.40187 v -0.56254 c 0.60718,-0.0774 1.00304,-0.18453 1.18757,-0.32145 0.18454,-0.13691 0.34526,-0.44943 0.48218,-0.93755 h 0.51789 v 6.33075 h -0.78577 v -4.50921"
     id="path82"
     inkscape:connector-curvature="0"
     style="stroke-width:0.99212599" />
  <path
     class="Note"
     d="m 119.29831,89.260716 c 0.62008,0 1.14328,0.161478 1.56958,0.484445 0.40047,0.348792 0.6007,0.788016 0.6007,1.317663 0,0.891363 -0.4586,1.724593 -1.3758,2.499691 -0.93012,0.775098 -1.92482,1.162652 -2.98413,1.162652 -0.62008,0 -1.14326,-0.161478 -1.56957,-0.484445 -0.40047,-0.348792 -0.6007,-0.788016 -0.6007,-1.317662 0,-0.891363 0.46506,-1.724594 1.39517,-2.499691 0.90429,-0.775099 1.89253,-1.162653 2.96475,-1.162653"
     id="path84"
     inkscape:connector-curvature="0"
     style="stroke-width:0.99212599" />
  <path
     class="Note"
     d="m 81.660387,137.87894 h 5.953 v 7.441 h -5.953 v -7.441"
     id="path86"
     inkscape:connector-curvature="0"
     style="fill:#ffffff;fill-rule:evenodd" />
  <path
     class="Note"
     d="m 82.54034,141.59825 c 0,-0.5298 0.04465,-0.99709 0.133937,-1.40188 0.08929,-0.40478 0.202393,-0.72177 0.339307,-0.95095 0.136913,-0.22918 0.300614,-0.4152 0.491102,-0.55807 0.190488,-0.14287 0.373535,-0.23811 0.549142,-0.28573 0.175606,-0.0476 0.36163,-0.0714 0.558071,-0.0714 1.381039,0 2.071559,1.10721 2.071559,3.32163 0,1.04174 -0.177095,1.83792 -0.531284,2.38855 -0.354189,0.55063 -0.867614,0.82594 -1.540275,0.82594 -0.678615,0 -1.193528,-0.27829 -1.544741,-0.83487 -0.351212,-0.55658 -0.526818,-1.36765 -0.526818,-2.43319 m 3.339496,-0.0179 c 0,-1.70249 -0.422646,-2.55373 -1.267937,-2.55373 -0.845292,0 -1.267937,0.86017 -1.267937,2.58052 0,1.7382 0.416692,2.60731 1.250078,2.60731 0.440504,0 0.764929,-0.2143 0.973276,-0.6429 0.208346,-0.4286 0.31252,-1.09233 0.31252,-1.9912"
     id="path88"
     inkscape:connector-curvature="0"
     style="stroke-width:0.99212599" />
  <path
     class="Note"
     d="m 85.276314,91.740716 c 0.620079,0 1.143277,0.161478 1.569573,0.484445 0.400472,0.348792 0.600703,0.788016 0.600703,1.317663 0,0.891363 -0.4586,1.724593 -1.375801,2.499691 -0.930118,0.775098 -1.924824,1.162652 -2.984127,1.162652 -0.620078,0 -1.143266,-0.161478 -1.569574,-0.484445 -0.400467,-0.348792 -0.600701,-0.788016 -0.600701,-1.317662 0,-0.891363 0.465059,-1.724594 1.395177,-2.499691 0.904283,-0.775099 1.89253,-1.162653 2.96475,-1.162653"
     id="path90"
     inkscape:connector-curvature="0"
     style="stroke-width:0.99212599" />
  <path
     class="Note"
     d="m 47.638387,137.87894 h 5.9528 v 7.441 h -5.9528 v -7.441"
     id="path92"
     inkscape:connector-curvature="0"
     style="fill:#ffffff;fill-rule:evenodd" />
  <path
     class="Note"
     d="m 50.447132,140.15173 h -1.401874 v -0.56254 c 0.607182,-0.0774 1.00304,-0.18453 1.187575,-0.32145 0.184536,-0.13691 0.34526,-0.44943 0.482173,-0.93755 h 0.51789 v 6.33075 h -0.785764 v -4.50921"
     id="path94"
     inkscape:connector-curvature="0"
     style="stroke-width:0.99212599" />
  <path
     class="Note"
     d="m 51.254214,89.260716 c 0.620079,0 1.143277,0.161478 1.569573,0.484445 0.400472,0.348792 0.600703,0.788016 0.600703,1.317663 0,0.891363 -0.4586,1.724593 -1.375801,2.499691 -0.930118,0.775098 -1.924824,1.162652 -2.984127,1.162652 -0.620078,0 -1.143266,-0.161478 -1.569574,-0.484445 -0.400467,-0.348792 -0.600701,-0.788016 -0.600701,-1.317662 0,-0.891363 0.465059,-1.724594 1.395177,-2.499691 0.904283,-0.775099 1.89253,-1.162653 2.96475,-1.162653"
     id="path96"
     inkscape:connector-curvature="0"
     style="stroke-width:0.99212599" />
  <path
     class="Clef"
     d="m 22.543827,136.0186 c 0,1.98941 -1.220781,2.98411 -3.662344,2.98411 h -4.359927 v -9.88249 h 4.359927 c 2.234873,0 3.352305,0.90428 3.352305,2.71284 0,1.03347 -0.471518,1.67288 -1.414554,1.91833 1.149725,0.21966 1.724593,0.97536 1.724593,2.26721 m -5.968263,-5.21255 v 2.24778 h 2.305919 c 0.891366,0 1.337049,-0.40692 1.337049,-1.22077 0,-0.68466 -0.445683,-1.02701 -1.337049,-1.02701 h -2.305919 m 0,3.9336 v 2.57724 h 2.305919 c 1.072221,0 1.608336,-0.43276 1.608336,-1.29829 0,-0.85264 -0.536115,-1.27895 -1.608336,-1.27895 h -2.305919 m 3.216661,-8.95235 h -3.642958 l -0.678217,1.99588 h -2.112139 l 3.410435,-9.88251 h 2.4028 l 3.410434,9.88251 h -2.112138 l -0.678217,-1.99588 m -0.503811,-1.70522 -1.317663,-3.83674 -1.317672,3.83674 h 2.635335 M 18.99775,108.54137 v 8.15789 h -2.054008 v -8.15789 h -3.003503 v -1.72461 h 8.061024 v 1.72461 H 18.99775"
     id="path98"
     inkscape:connector-curvature="0"
     style="stroke-width:0.99212599" />
  <path
     class="Clef"
     d="m 20.063512,67.073044 c 0,0 0.03875,0 0.116267,0 0.05167,-0.01292 0.09688,-0.01938 0.135644,-0.01938 1.446847,0 2.635325,0.510271 3.565443,1.530821 0.930118,1.007633 1.395226,2.183193 1.395226,3.526698 0,1.666457 -0.691214,3.022881 -2.073444,4.069267 -0.361729,0.284204 -0.833217,0.516729 -1.414543,0.697583 0.0646,0.839696 0.09689,1.517903 0.09689,2.034642 0,0.10334 -0.01292,0.477977 -0.03876,1.123891 -0.05167,1.201405 -0.46505,2.241292 -1.240158,3.119819 -0.749254,0.865432 -1.679372,1.298197 -2.790354,1.298197 -1.046376,0 -1.937742,-0.368178 -2.674087,-1.104435 -0.736346,-0.749253 -1.104515,-1.653576 -1.104515,-2.712879 0,-0.555491 0.213159,-1.027009 0.639455,-1.414553 0.439225,-0.387554 0.949495,-0.581327 1.530821,-0.581327 0.516729,0 0.949494,0.200231 1.298286,0.600703 0.361719,0.374627 0.542574,0.839686 0.542574,1.395177 0,0.503812 -0.180855,0.936577 -0.542574,1.298286 -0.361709,0.361749 -0.794474,0.542614 -1.298286,0.542614 -0.20669,0 -0.40692,-0.03879 -0.600702,-0.116277 0.568408,0.839636 1.324131,1.259504 2.267166,1.259504 0.891366,0 1.621243,-0.36173 2.189652,-1.085089 0.594244,-0.749313 0.917201,-1.621292 0.968871,-2.616008 0.02584,-0.620078 0.03876,-0.975329 0.03876,-1.065761 0,-0.723419 -0.02585,-1.317663 -0.07752,-1.782722 -0.645914,0.10334 -1.220781,0.15502 -1.724593,0.15502 -1.795648,0 -3.326469,-0.710511 -4.592462,-2.131523 -1.240155,-1.43393 -1.860233,-3.139148 -1.860233,-5.11565 0,-0.413389 0.03876,-0.833227 0.116264,-1.259534 0.07751,-0.348791 0.174397,-0.729887 0.290663,-1.143276 0.06459,-0.232525 0.238988,-0.607151 0.52319,-1.12389 0.103348,-0.15502 0.219615,-0.348792 0.34879,-0.581317 0.129185,-0.232534 0.219617,-0.387554 0.271287,-0.465069 0.129185,-0.258359 0.381096,-0.607151 0.755722,-1.046375 0.10335,-0.116267 0.209924,-0.245452 0.319733,-0.387554 0.109798,-0.142102 0.203455,-0.25836 0.28097,-0.348792 0.07752,-0.09043 0.135643,-0.161478 0.174396,-0.213148 0.03875,-0.05168 0.329415,-0.394013 0.871989,-1.02701 0.129185,-0.129184 0.255135,-0.268022 0.377861,-0.416643 0.122716,-0.148521 0.222842,-0.264798 0.300347,-0.348732 0.07751,-0.08403 0.135643,-0.145347 0.174396,-0.184139 -0.46506,-1.537299 -0.755723,-2.76446 -0.87198,-3.68168 -0.09043,-0.736356 -0.135644,-1.743959 -0.135644,-3.022909 0,-1.12388 0.25836,-2.176724 0.775099,-3.158532 0.503811,-1.020501 1.207864,-1.853788 2.112137,-2.499662 0.0646,-0.03879 0.129185,-0.05814 0.193782,-0.05814 0.09042,0 0.15502,0.01935 0.193772,0.05814 0.697584,0.839637 1.298286,1.931273 1.802108,3.27481 0.516729,1.343438 0.775088,2.564249 0.775088,3.662334 0,1.240157 -0.297112,2.402731 -0.891356,3.487918 -0.671758,1.149676 -1.537279,2.338243 -2.596582,3.565443 0.271287,0.852613 0.632996,2.189662 1.085138,4.011135 m 1.647088,9.010519 c 0.671749,-0.245442 1.194907,-0.66529 1.569533,-1.259534 0.413419,-0.568399 0.620079,-1.207864 0.620079,-1.918366 0,-0.9172 -0.310039,-1.731054 -0.930118,-2.441562 -0.632957,-0.736346 -1.440359,-1.149725 -2.422147,-1.240157 0.555492,2.725764 0.943036,5.0123 1.162653,6.859619 m -7.499084,-4.47619 c 0,1.278913 0.516739,2.402805 1.550197,3.371676 1.059303,0.943035 2.247791,1.414553 3.565453,1.414553 0.542574,0 1.07222,-0.03875 1.588949,-0.116257 -0.206689,-1.963586 -0.61361,-4.314719 -1.220771,-7.053401 -0.736346,0.07751 -1.324131,0.335874 -1.763355,0.775098 -0.426307,0.452142 -0.639455,0.962412 -0.639455,1.530821 0,0.981791 0.523188,1.776263 1.569573,2.383424 0.09043,0.09043 0.135643,0.187323 0.135643,0.290663 0,0.10335 -0.04521,0.200241 -0.135643,0.290663 -0.07751,0.09043 -0.174396,0.135644 -0.290663,0.135644 -0.01292,0 -0.07105,-0.01292 -0.174396,-0.03875 -0.736336,-0.400471 -1.304745,-0.9172 -1.705217,-1.550199 -0.374626,-0.671752 -0.56194,-1.349964 -0.56194,-2.03463 0,-0.891365 0.277736,-1.698758 0.833227,-2.422186 0.581327,-0.723429 1.337049,-1.188488 2.267167,-1.395177 -0.361719,-1.446847 -0.658841,-2.577206 -0.891366,-3.391057 -0.206689,0.232534 -0.455376,0.513504 -0.746029,0.84292 -0.290663,0.329416 -0.461835,0.526422 -0.513504,0.591009 -0.46506,0.607162 -0.82032,1.07868 -1.065762,1.414554 -0.439224,0.607161 -0.762181,1.130359 -0.968871,1.569583 -0.219617,0.490894 -0.413389,1.026999 -0.581326,1.608325 -0.167937,0.555492 -0.251911,1.149726 -0.251911,1.782727 m 6.472075,-19.706921 c -0.968871,0.478006 -1.731052,1.162672 -2.286543,2.054097 -0.568399,0.917122 -0.852603,1.905378 -0.852603,2.964671 0,0.930118 0.232524,2.183273 0.697583,3.759265 0.930118,-1.12388 1.627712,-2.163827 2.092771,-3.11974 0.490894,-1.007703 0.736346,-2.060547 0.736346,-3.158533 0,-0.826837 -0.129185,-1.660025 -0.387554,-2.49976 m -2.131523,35.363934 c 0.335874,-0.335934 0.503811,-0.671768 0.503811,-1.007603 -0.02584,-0.271347 -0.142092,-0.478006 -0.348792,-0.620079 -0.232524,-0.155069 -0.503811,-0.232554 -0.813851,-0.232554 -0.219607,0 -0.400471,0.07104 -0.542564,0.213108 -0.129184,0.129175 -0.193782,0.290693 -0.193782,0.484456 0,0.232554 0.09689,0.40697 0.290664,0.523148 l 1.104514,0.639524 m 0.310039,0.174416 c 0.542574,0.297042 0.813851,0.697564 0.813851,1.201365 v 0.05814 c 0,0.400422 -0.161479,0.736356 -0.484435,1.007603 -0.322957,0.284244 -0.781558,0.426316 -1.375801,0.426316 -0.490894,0 -0.917191,-0.129174 -1.27891,-0.387524 -0.36171,-0.245452 -0.542564,-0.581386 -0.542564,-1.007603 0,-0.167967 0.04521,-0.323036 0.135643,-0.465109 0.10334,-0.167967 0.187314,-0.284244 0.251901,-0.348831 L 16.74997,87.55498 c -0.400472,-0.271247 -0.600703,-0.626528 -0.600703,-1.065742 0,-0.348732 0.15502,-0.658772 0.465059,-0.930118 0.322957,-0.25835 0.749264,-0.387525 1.27891,-0.387525 0.439225,0 0.813851,0.09693 1.123891,0.290693 0.310039,0.193763 0.465059,0.458561 0.465059,0.794495 0,0.348732 -0.20669,0.742705 -0.620079,1.182019 m -1.821474,0.290594 c -0.387554,0.335933 -0.594244,0.671768 -0.620079,1.007702 0.02584,0.348732 0.167938,0.626527 0.426297,0.833187 0.284204,0.219558 0.607161,0.329386 0.968871,0.329386 0.258369,0 0.465069,-0.08393 0.620078,-0.251901 0.15503,-0.15497 0.232535,-0.342283 0.232535,-0.56194 -0.01292,-0.284145 -0.129185,-0.490904 -0.348792,-0.620079 l -1.27891,-0.736355"
     id="path100"
     inkscape:connector-curvature="0"
     style="stroke-width:0.99212599" />
  <path
     class="TimeSig"
     d="m 34.733005,57.520222 c 0.387545,0 0.71696,-0.04522 0.988247,-0.135643 0.271287,-0.09043 0.445683,-0.135643 0.523188,-0.135643 0.09043,0 0.161488,0.02583 0.213158,0.0775 0.03875,0.03876 0.06459,0.08397 0.07751,0.135644 0,0.02584 -0.01292,0.0646 -0.03875,0.116267 l -5.638839,6.549579 h 3.313544 v -2.596577 c 0,-0.167938 0.04521,-0.310034 0.135644,-0.426302 0.155019,-0.129184 0.284204,-0.206699 0.387544,-0.232534 0.167947,-0.07751 0.374637,-0.25836 0.620079,-0.542564 0.206699,-0.232534 0.452141,-0.639455 0.736346,-1.220781 0.03876,-0.07751 0.09689,-0.116267 0.174396,-0.116267 0.155019,0 0.245452,0.09043 0.271286,0.271286 v 4.863739 h 1.414554 c 0.180855,0 0.284204,0.09689 0.310039,0.290664 0,0.193772 -0.10334,0.290663 -0.310039,0.290663 H 36.49635 v 0.155019 c 0,0.516729 0.129185,0.955954 0.387555,1.317673 0.297122,0.361709 0.645913,0.542564 1.046375,0.542564 0.15502,0 0.232535,0.07751 0.232535,0.232524 0,0.15503 -0.07752,0.232535 -0.232535,0.232535 -0.271277,0 -0.710501,-0.03875 -1.317662,-0.116268 -0.555492,-0.09042 -0.988257,-0.135643 -1.298296,-0.135643 -0.322957,0 -0.755713,0.04522 -1.298287,0.135643 -0.581326,0.07752 -1.014081,0.116268 -1.298286,0.116268 -0.155019,0 -0.232534,-0.07751 -0.232534,-0.232535 0,-0.15501 0.07752,-0.232524 0.232534,-0.232524 0.400462,0 0.749264,-0.180855 1.046376,-0.542564 0.271287,-0.361719 0.40693,-0.800944 0.40693,-1.317673 v -0.155019 h -3.313544 c -0.219612,0 -0.374632,-0.05167 -0.465059,-0.15502 -0.103347,-0.07752 -0.15502,-0.180855 -0.15502,-0.310039 0,-0.03875 0.09689,-0.174396 0.290661,-0.406931 0.219612,-0.258359 0.452141,-0.574857 0.697589,-0.949492 0.284204,-0.439222 0.55549,-0.891363 0.81385,-1.356422 0.284204,-0.529651 0.51028,-1.136813 0.678217,-1.821479 0.193772,-0.697593 0.290663,-1.408094 0.290663,-2.131523 0,-0.206689 0.09042,-0.310039 0.271277,-0.310039 0.03876,0 0.122726,0.01938 0.251911,0.05813 0.03875,0.01292 0.119492,0.0323 0.242218,0.05814 0.122726,0.02584 0.222841,0.05167 0.300346,0.0775 0.232535,0.03876 0.452142,0.05814 0.658841,0.05814"
     id="path102"
     inkscape:connector-curvature="0"
     style="stroke-width:0.99212599" />
  <path
     class="TimeSig"
     d="m 34.733005,67.441222 c 0.387545,0 0.71696,-0.04522 0.988247,-0.135643 0.271287,-0.09043 0.445683,-0.135643 0.523188,-0.135643 0.09043,0 0.161488,0.02583 0.213158,0.0775 0.03875,0.03876 0.06459,0.08397 0.07751,0.135644 0,0.02584 -0.01292,0.0646 -0.03875,0.116267 l -5.638839,6.549579 h 3.313544 v -2.596577 c 0,-0.167938 0.04521,-0.310034 0.135644,-0.426302 0.155019,-0.129184 0.284204,-0.206699 0.387544,-0.232534 0.167947,-0.0775 0.374637,-0.25836 0.620079,-0.542564 0.206699,-0.232534 0.452141,-0.639455 0.736346,-1.220781 0.03876,-0.07751 0.09689,-0.116267 0.174396,-0.116267 0.155019,0 0.245452,0.09043 0.271286,0.271286 v 4.863739 h 1.414554 c 0.180855,0 0.284204,0.09689 0.310039,0.290664 0,0.193772 -0.10334,0.290663 -0.310039,0.290663 H 36.49635 v 0.155019 c 0,0.516729 0.129185,0.955954 0.387555,1.317673 0.297122,0.361709 0.645913,0.542564 1.046375,0.542564 0.15502,0 0.232535,0.07751 0.232535,0.232524 0,0.15503 -0.07752,0.232535 -0.232535,0.232535 -0.271277,0 -0.710501,-0.03875 -1.317662,-0.116268 -0.555492,-0.09042 -0.988257,-0.135643 -1.298296,-0.135643 -0.322957,0 -0.755713,0.04522 -1.298287,0.135643 -0.581326,0.07752 -1.014081,0.116268 -1.298286,0.116268 -0.155019,0 -0.232534,-0.07751 -0.232534,-0.232535 0,-0.15501 0.07752,-0.232524 0.232534,-0.232524 0.400462,0 0.749264,-0.180855 1.046376,-0.542564 0.271287,-0.361719 0.40693,-0.800944 0.40693,-1.317673 v -0.155019 h -3.313544 c -0.219612,0 -0.374632,-0.05167 -0.465059,-0.15502 -0.103347,-0.07752 -0.15502,-0.180855 -0.15502,-0.310039 0,-0.03875 0.09689,-0.174396 0.290661,-0.406931 0.219612,-0.258359 0.452141,-0.574857 0.697589,-0.949492 0.284204,-0.439222 0.55549,-0.891363 0.81385,-1.356422 0.284204,-0.529651 0.51028,-1.136813 0.678217,-1.821479 0.193772,-0.697593 0.290663,-1.408094 0.290663,-2.131523 0,-0.206689 0.09042,-0.310039 0.271277,-0.310039 0.03876,0 0.122726,0.01938 0.251911,0.05813 0.03875,0.01292 0.119492,0.0323 0.242218,0.05814 0.122726,0.02584 0.222841,0.05167 0.300346,0.07751 0.232535,0.03876 0.452142,0.05814 0.658841,0.05814"
     id="path104"
     inkscape:connector-curvature="0"
     style="stroke-width:0.99212599" />
  <path
     class="Page"
     d="m 255.91839,717.21994 0.121,1.801 h -0.121 c -0.162,-0.539 -0.392,-0.927 -0.691,-1.164 -0.3,-0.237 -0.659,-0.356 -1.079,-0.356 -0.351,0 -0.669,0.089 -0.953,0.268 -0.284,0.178 -0.507,0.463 -0.67,0.853 -0.162,0.391 -0.244,0.876 -0.244,1.457 0,0.479 0.077,0.895 0.231,1.246 0.153,0.352 0.384,0.621 0.693,0.809 0.309,0.187 0.661,0.281 1.057,0.281 0.343,0 0.647,-0.073 0.91,-0.221 0.263,-0.147 0.552,-0.439 0.867,-0.877 l 0.121,0.079 c -0.266,0.471 -0.575,0.816 -0.93,1.035 -0.354,0.218 -0.774,0.328 -1.261,0.328 -0.878,0 -1.558,-0.326 -2.039,-0.977 -0.36,-0.484 -0.539,-1.054 -0.539,-1.711 0,-0.528 0.118,-1.014 0.355,-1.457 0.237,-0.442 0.563,-0.785 0.979,-1.029 0.415,-0.243 0.869,-0.365 1.361,-0.365 0.383,0 0.76,0.094 1.133,0.281 0.109,0.057 0.187,0.086 0.234,0.086 0.07,0 0.132,-0.025 0.184,-0.074 0.067,-0.071 0.116,-0.168 0.144,-0.293 h 0.137 m 2.512,1.734 c 0.541,0 0.976,0.206 1.304,0.617 0.279,0.352 0.418,0.756 0.418,1.211 0,0.321 -0.077,0.645 -0.23,0.973 -0.154,0.328 -0.365,0.575 -0.635,0.742 -0.269,0.167 -0.57,0.25 -0.9,0.25 -0.539,0 -0.968,-0.215 -1.286,-0.644 -0.268,-0.362 -0.402,-0.769 -0.402,-1.219 0,-0.328 0.082,-0.654 0.244,-0.979 0.163,-0.324 0.377,-0.563 0.643,-0.718 0.265,-0.155 0.547,-0.233 0.844,-0.233 m -0.121,0.254 c -0.138,0 -0.277,0.041 -0.416,0.123 -0.14,0.082 -0.252,0.226 -0.338,0.432 -0.086,0.206 -0.129,0.47 -0.129,0.793 0,0.521 0.103,0.97 0.31,1.347 0.207,0.378 0.48,0.567 0.819,0.567 0.252,0 0.461,-0.104 0.625,-0.313 0.164,-0.208 0.246,-0.566 0.246,-1.074 0,-0.635 -0.137,-1.135 -0.41,-1.5 -0.185,-0.25 -0.421,-0.375 -0.707,-0.375 m 2.113,0.207 1.101,-0.445 h 0.149 v 0.836 c 0.185,-0.315 0.37,-0.536 0.556,-0.662 0.187,-0.127 0.383,-0.19 0.588,-0.19 0.36,0 0.659,0.141 0.899,0.422 0.294,0.344 0.441,0.792 0.441,1.344 0,0.617 -0.177,1.127 -0.531,1.531 -0.292,0.331 -0.659,0.496 -1.102,0.496 -0.192,0 -0.359,-0.027 -0.5,-0.082 -0.104,-0.039 -0.221,-0.117 -0.351,-0.234 v 1.09 c 0,0.244 0.015,0.4 0.045,0.466 0.03,0.067 0.082,0.12 0.156,0.159 0.074,0.039 0.209,0.058 0.404,0.058 v 0.145 h -1.875 v -0.145 h 0.098 c 0.143,0.003 0.266,-0.025 0.367,-0.082 0.05,-0.028 0.088,-0.075 0.115,-0.139 0.028,-0.063 0.041,-0.225 0.041,-0.486 v -3.383 c 0,-0.231 -0.01,-0.379 -0.031,-0.441 -0.021,-0.063 -0.054,-0.109 -0.099,-0.141 -0.046,-0.031 -0.108,-0.047 -0.186,-0.047 -0.063,0 -0.142,0.019 -0.238,0.055 l -0.047,-0.125 m 1.25,0.621 v 1.336 c 0,0.289 0.012,0.479 0.035,0.57 0.036,0.152 0.126,0.284 0.268,0.399 0.141,0.114 0.321,0.172 0.537,0.172 0.26,0 0.471,-0.102 0.632,-0.305 0.211,-0.266 0.317,-0.639 0.317,-1.121 0,-0.547 -0.12,-0.967 -0.36,-1.262 -0.166,-0.203 -0.364,-0.304 -0.593,-0.304 -0.125,0 -0.249,0.031 -0.371,0.093 -0.094,0.047 -0.249,0.188 -0.465,0.422 m 2.805,-0.976 h 1.667 v 0.144 h -0.082 c -0.117,0 -0.205,0.026 -0.263,0.076 -0.059,0.051 -0.088,0.114 -0.088,0.19 0,0.101 0.043,0.242 0.129,0.422 l 0.871,1.804 0.801,-1.976 c 0.044,-0.107 0.066,-0.212 0.066,-0.317 0,-0.046 -0.009,-0.082 -0.027,-0.105 -0.021,-0.029 -0.054,-0.051 -0.098,-0.068 -0.044,-0.017 -0.122,-0.026 -0.234,-0.026 v -0.144 h 1.164 v 0.144 c -0.097,0.011 -0.171,0.031 -0.223,0.063 -0.052,0.031 -0.109,0.09 -0.172,0.175 -0.023,0.037 -0.067,0.137 -0.133,0.301 l -1.457,3.571 c -0.14,0.346 -0.324,0.608 -0.552,0.785 -0.228,0.177 -0.448,0.265 -0.659,0.265 -0.153,0 -0.28,-0.044 -0.378,-0.132 -0.099,-0.089 -0.149,-0.191 -0.149,-0.305 0,-0.11 0.036,-0.197 0.108,-0.264 0.071,-0.066 0.169,-0.099 0.294,-0.099 0.086,0 0.204,0.028 0.352,0.085 0.104,0.04 0.169,0.059 0.195,0.059 0.078,0 0.164,-0.04 0.256,-0.121 0.093,-0.081 0.186,-0.237 0.279,-0.469 l 0.254,-0.621 -1.285,-2.699 c -0.039,-0.081 -0.101,-0.181 -0.187,-0.301 -0.065,-0.091 -0.119,-0.152 -0.16,-0.183 -0.06,-0.042 -0.157,-0.079 -0.289,-0.11 v -0.144 m 5.25,-0.106 v 0.805 c 0.299,-0.537 0.606,-0.805 0.921,-0.805 0.144,0 0.262,0.044 0.356,0.131 0.094,0.087 0.14,0.188 0.14,0.303 0,0.101 -0.033,0.187 -0.101,0.258 -0.068,0.07 -0.149,0.105 -0.242,0.105 -0.091,0 -0.194,-0.045 -0.307,-0.135 -0.113,-0.09 -0.197,-0.134 -0.252,-0.134 -0.047,0 -0.098,0.026 -0.152,0.078 -0.117,0.106 -0.239,0.282 -0.363,0.527 v 1.715 c 0,0.198 0.024,0.347 0.074,0.449 0.034,0.07 0.093,0.129 0.179,0.176 0.086,0.047 0.21,0.07 0.371,0.07 v 0.141 h -1.832 v -0.141 c 0.183,0 0.318,-0.028 0.407,-0.086 0.065,-0.041 0.11,-0.108 0.136,-0.199 0.013,-0.044 0.02,-0.171 0.02,-0.379 v -1.387 c 0,-0.416 -0.008,-0.664 -0.025,-0.744 -0.017,-0.079 -0.049,-0.137 -0.094,-0.174 -0.046,-0.036 -0.102,-0.054 -0.17,-0.054 -0.081,0 -0.172,0.019 -0.274,0.058 l -0.039,-0.14 1.082,-0.438 h 0.165 m 2.519,-1.871 c 0.109,0 0.203,0.039 0.279,0.115 0.077,0.077 0.116,0.17 0.116,0.28 0,0.109 -0.039,0.203 -0.116,0.281 -0.076,0.078 -0.17,0.117 -0.279,0.117 -0.109,0 -0.203,-0.039 -0.281,-0.117 -0.078,-0.078 -0.117,-0.172 -0.117,-0.281 0,-0.11 0.038,-0.203 0.115,-0.28 0.077,-0.076 0.171,-0.115 0.283,-0.115 m 0.324,1.871 v 2.875 c 0,0.224 0.017,0.373 0.049,0.447 0.033,0.075 0.081,0.13 0.145,0.166 0.063,0.037 0.18,0.055 0.349,0.055 v 0.141 h -1.738 v -0.141 c 0.174,0 0.292,-0.017 0.352,-0.051 0.059,-0.033 0.107,-0.089 0.142,-0.168 0.035,-0.078 0.053,-0.227 0.053,-0.449 v -1.379 c 0,-0.388 -0.012,-0.639 -0.035,-0.754 -0.019,-0.083 -0.047,-0.141 -0.086,-0.173 -0.039,-0.033 -0.093,-0.049 -0.16,-0.049 -0.073,0 -0.162,0.019 -0.266,0.058 l -0.055,-0.14 1.078,-0.438 h 0.172 m 1.942,2.379 c -0.219,-0.107 -0.387,-0.256 -0.504,-0.447 -0.117,-0.192 -0.176,-0.403 -0.176,-0.635 0,-0.354 0.133,-0.659 0.4,-0.914 0.267,-0.255 0.609,-0.383 1.026,-0.383 0.341,0 0.636,0.084 0.886,0.25 h 0.758 c 0.112,0 0.177,0.003 0.196,0.01 0.018,0.006 0.031,0.018 0.039,0.033 0.015,0.024 0.023,0.065 0.023,0.125 0,0.068 -0.006,0.115 -0.019,0.141 -0.008,0.013 -0.022,0.023 -0.041,0.031 -0.02,0.008 -0.086,0.012 -0.198,0.012 h -0.465 c 0.146,0.187 0.219,0.427 0.219,0.718 0,0.334 -0.127,0.619 -0.383,0.856 -0.255,0.237 -0.597,0.355 -1.027,0.355 -0.177,0 -0.358,-0.026 -0.543,-0.078 -0.115,0.099 -0.192,0.186 -0.232,0.26 -0.041,0.074 -0.061,0.137 -0.061,0.19 0,0.044 0.022,0.087 0.065,0.128 0.043,0.042 0.126,0.072 0.252,0.09 0.072,0.011 0.255,0.02 0.546,0.028 0.537,0.013 0.884,0.031 1.043,0.054 0.243,0.034 0.436,0.124 0.58,0.27 0.145,0.146 0.217,0.325 0.217,0.539 0,0.294 -0.138,0.57 -0.414,0.828 -0.406,0.38 -0.936,0.57 -1.59,0.57 -0.502,0 -0.927,-0.113 -1.273,-0.34 -0.195,-0.13 -0.293,-0.265 -0.293,-0.406 0,-0.062 0.014,-0.125 0.043,-0.187 0.044,-0.097 0.135,-0.231 0.273,-0.403 0.019,-0.023 0.151,-0.164 0.399,-0.421 -0.136,-0.081 -0.231,-0.153 -0.287,-0.217 -0.056,-0.064 -0.084,-0.136 -0.084,-0.217 0,-0.091 0.037,-0.198 0.111,-0.32 0.074,-0.123 0.245,-0.296 0.514,-0.52 m 0.679,-2.191 c -0.192,0 -0.354,0.077 -0.484,0.23 -0.13,0.154 -0.195,0.389 -0.195,0.707 0,0.412 0.088,0.731 0.265,0.957 0.136,0.172 0.308,0.258 0.516,0.258 0.198,0 0.361,-0.074 0.488,-0.223 0.128,-0.148 0.192,-0.381 0.192,-0.699 0,-0.414 -0.09,-0.738 -0.27,-0.973 -0.133,-0.171 -0.303,-0.257 -0.512,-0.257 m -0.718,3.496 c -0.123,0.133 -0.215,0.256 -0.278,0.371 -0.062,0.114 -0.094,0.22 -0.094,0.316 0,0.125 0.076,0.235 0.227,0.328 0.26,0.162 0.637,0.243 1.129,0.243 0.469,0 0.814,-0.083 1.037,-0.248 0.223,-0.166 0.334,-0.342 0.334,-0.53 0,-0.135 -0.066,-0.232 -0.199,-0.289 -0.136,-0.057 -0.404,-0.091 -0.805,-0.101 -0.586,-0.016 -1.036,-0.046 -1.351,-0.09 m 4.132,-5.555 v 2.617 c 0.289,-0.317 0.519,-0.521 0.688,-0.611 0.169,-0.09 0.338,-0.135 0.508,-0.135 0.203,0 0.377,0.056 0.523,0.168 0.146,0.112 0.254,0.288 0.324,0.527 0.05,0.167 0.075,0.472 0.075,0.915 v 1.265 c 0,0.227 0.018,0.382 0.054,0.465 0.026,0.063 0.071,0.112 0.133,0.148 0.063,0.037 0.177,0.055 0.344,0.055 v 0.141 h -1.758 v -0.141 h 0.082 c 0.167,0 0.283,-0.025 0.348,-0.076 0.065,-0.051 0.11,-0.126 0.136,-0.225 0.008,-0.041 0.012,-0.164 0.012,-0.367 v -1.265 c 0,-0.391 -0.02,-0.648 -0.06,-0.77 -0.041,-0.122 -0.105,-0.214 -0.194,-0.275 -0.088,-0.062 -0.195,-0.092 -0.32,-0.092 -0.128,0 -0.26,0.034 -0.399,0.101 -0.138,0.068 -0.303,0.205 -0.496,0.411 v 1.89 c 0,0.245 0.014,0.397 0.041,0.457 0.028,0.06 0.079,0.11 0.153,0.151 0.074,0.04 0.202,0.06 0.385,0.06 v 0.141 h -1.774 v -0.141 c 0.159,0 0.284,-0.025 0.375,-0.074 0.052,-0.026 0.094,-0.076 0.125,-0.149 0.031,-0.072 0.047,-0.221 0.047,-0.445 v -3.238 c 0,-0.409 -0.01,-0.66 -0.029,-0.754 -0.02,-0.094 -0.05,-0.158 -0.09,-0.191 -0.041,-0.034 -0.095,-0.051 -0.162,-0.051 -0.055,0 -0.144,0.021 -0.266,0.062 l -0.055,-0.136 1.071,-0.438 h 0.179 m 3.989,0.801 v 1.176 h 0.836 v 0.273 h -0.836 v 2.32 c 0,0.232 0.033,0.388 0.099,0.469 0.067,0.081 0.152,0.121 0.256,0.121 0.086,0 0.169,-0.026 0.25,-0.08 0.081,-0.053 0.143,-0.132 0.188,-0.236 h 0.152 c -0.091,0.255 -0.22,0.447 -0.387,0.576 -0.166,0.129 -0.338,0.193 -0.515,0.193 -0.12,0 -0.237,-0.033 -0.352,-0.099 -0.114,-0.067 -0.199,-0.162 -0.254,-0.285 -0.054,-0.124 -0.082,-0.315 -0.082,-0.573 v -2.406 h -0.566 v -0.129 c 0.143,-0.057 0.289,-0.154 0.439,-0.291 0.15,-0.137 0.283,-0.299 0.401,-0.486 0.059,-0.099 0.143,-0.28 0.25,-0.543 h 0.121 m 5.968,-0.664 c 0.467,0 0.921,0.119 1.364,0.357 0.442,0.239 0.788,0.58 1.037,1.024 0.249,0.444 0.373,0.907 0.373,1.388 0,0.48 -0.123,0.939 -0.367,1.379 -0.245,0.44 -0.588,0.782 -1.028,1.026 -0.44,0.243 -0.899,0.365 -1.379,0.365 -0.479,0 -0.938,-0.122 -1.377,-0.365 -0.438,-0.244 -0.78,-0.586 -1.025,-1.026 -0.245,-0.44 -0.367,-0.899 -0.367,-1.379 0,-0.481 0.124,-0.944 0.373,-1.388 0.249,-0.444 0.594,-0.785 1.037,-1.024 0.443,-0.238 0.896,-0.357 1.359,-0.357 m 0,0.238 c -0.424,0 -0.838,0.109 -1.242,0.328 -0.403,0.219 -0.719,0.531 -0.945,0.936 -0.227,0.405 -0.34,0.827 -0.34,1.267 0,0.438 0.111,0.857 0.334,1.258 0.223,0.401 0.535,0.714 0.936,0.938 0.401,0.224 0.82,0.336 1.257,0.336 0.438,0 0.858,-0.112 1.26,-0.336 0.403,-0.224 0.715,-0.537 0.938,-0.938 0.222,-0.401 0.334,-0.82 0.334,-1.258 0,-0.44 -0.114,-0.862 -0.34,-1.267 -0.227,-0.405 -0.542,-0.717 -0.945,-0.936 -0.404,-0.219 -0.819,-0.328 -1.247,-0.328 m 1.372,0.75 0.078,1.094 h -0.153 c -0.093,-0.31 -0.243,-0.541 -0.447,-0.694 -0.204,-0.152 -0.45,-0.228 -0.736,-0.228 -0.214,0 -0.404,0.044 -0.571,0.133 -0.166,0.088 -0.303,0.207 -0.41,0.355 -0.078,0.112 -0.143,0.261 -0.195,0.446 -0.052,0.184 -0.078,0.38 -0.078,0.585 0,0.553 0.118,0.959 0.355,1.221 0.237,0.262 0.55,0.393 0.938,0.393 0.508,0 0.914,-0.211 1.219,-0.633 l 0.144,0.074 c -0.362,0.529 -0.861,0.793 -1.496,0.793 -0.521,0 -0.953,-0.168 -1.295,-0.506 -0.342,-0.337 -0.514,-0.746 -0.514,-1.228 0,-0.5 0.183,-0.927 0.547,-1.28 0.365,-0.352 0.831,-0.529 1.399,-0.529 0.119,0 0.219,0.008 0.299,0.024 0.079,0.015 0.22,0.057 0.423,0.125 0.065,0.02 0.114,0.031 0.145,0.031 0.042,0 0.077,-0.011 0.105,-0.033 0.029,-0.022 0.058,-0.07 0.086,-0.143 h 0.157"
     id="path106"
     inkscape:connector-curvature="0" />
  <rect
     style="opacity:0;fill:#000000;fill-opacity:1"
     id="rect116"
     width="191.78584"
     height="153.35715"
     x="0"
     y="0" />
</svg>
