<?xml version="1.0" encoding="UTF-8" standalone="no"?>
<svg
   xmlns:dc="http://purl.org/dc/elements/1.1/"
   xmlns:cc="http://creativecommons.org/ns#"
   xmlns:rdf="http://www.w3.org/1999/02/22-rdf-syntax-ns#"
   xmlns:svg="http://www.w3.org/2000/svg"
   xmlns="http://www.w3.org/2000/svg"
   xmlns:sodipodi="http://sodipodi.sourceforge.net/DTD/sodipodi-0.dtd"
   xmlns:inkscape="http://www.inkscape.org/namespaces/inkscape"
   width="179.4303"
   height="138.7791"
   viewBox="0 0 179.43029 138.7791"
   version="1.2"
   id="svg108"
   sodipodi:docname="Play-new-1.svg"
   inkscape:version="0.92.2 (5c3e80d, 2017-08-06)">
  <metadata
     id="metadata114">
    <rdf:RDF>
      <cc:Work
         rdf:about="">
        <dc:format>image/svg+xml</dc:format>
        <dc:type
           rdf:resource="http://purl.org/dc/dcmitype/StillImage" />
        <dc:title>Carolan Guitar menu codes gerneral</dc:title>
      </cc:Work>
    </rdf:RDF>
  </metadata>
  <defs
     id="defs112" />
  <sodipodi:namedview
     pagecolor="#ffffff"
     bordercolor="#666666"
     borderopacity="1"
     objecttolerance="10"
     gridtolerance="10"
     guidetolerance="10"
     inkscape:pageopacity="0"
     inkscape:pageshadow="2"
     inkscape:window-width="1499"
     inkscape:window-height="689"
     id="namedview110"
     showgrid="false"
     fit-margin-top="0"
     fit-margin-left="0"
     fit-margin-right="0"
     fit-margin-bottom="0"
     inkscape:zoom="0.29789968"
     inkscape:cx="263.55131"
     inkscape:cy="-211.27451"
     inkscape:window-x="0"
     inkscape:window-y="28"
     inkscape:window-maximized="0"
     inkscape:current-layer="svg108" />
  <title
     id="title2">Carolan Guitar menu codes gerneral</title>
  <desc
     id="desc4">Generated by MuseScore 2.1.0</desc>
  <g
     id="g971"
     transform="translate(-42.5197,-46.0529)">
    <polyline
       id="polyline6"
       points="42.5197,96.7804 221.95,96.7804"
       class="StaffLines"
       style="fill:none;stroke:#000000;stroke-width:0.40000001;stroke-linejoin:bevel" />
    <polyline
       id="polyline8"
       points="42.5197,101.741 221.95,101.741"
       class="StaffLines"
       style="fill:none;stroke:#000000;stroke-width:0.40000001;stroke-linejoin:bevel" />
    <polyline
       id="polyline10"
       points="42.5197,106.702 221.95,106.702"
       class="StaffLines"
       style="fill:none;stroke:#000000;stroke-width:0.40000001;stroke-linejoin:bevel" />
    <polyline
       id="polyline12"
       points="42.5197,111.662 221.95,111.662"
       class="StaffLines"
       style="fill:none;stroke:#000000;stroke-width:0.40000001;stroke-linejoin:bevel" />
    <polyline
       id="polyline14"
       points="42.5197,116.623 221.95,116.623"
       class="StaffLines"
       style="fill:none;stroke:#000000;stroke-width:0.40000001;stroke-linejoin:bevel" />
    <polyline
       id="polyline16"
       points="42.5197,143.906 221.95,143.906"
       class="StaffLines"
       style="fill:none;stroke:#000000;stroke-width:0.40000001;stroke-linejoin:bevel" />
    <polyline
       id="polyline18"
       points="42.5197,151.347 221.95,151.347"
       class="StaffLines"
       style="fill:none;stroke:#000000;stroke-width:0.40000001;stroke-linejoin:bevel" />
    <polyline
       id="polyline20"
       points="42.5197,158.788 221.95,158.788"
       class="StaffLines"
       style="fill:none;stroke:#000000;stroke-width:0.40000001;stroke-linejoin:bevel" />
    <polyline
       id="polyline22"
       points="42.5197,166.229 221.95,166.229"
       class="StaffLines"
       style="fill:none;stroke:#000000;stroke-width:0.40000001;stroke-linejoin:bevel" />
    <polyline
       id="polyline24"
       points="42.5197,173.67 221.95,173.67"
       class="StaffLines"
       style="fill:none;stroke:#000000;stroke-width:0.40000001;stroke-linejoin:bevel" />
    <polyline
       id="polyline26"
       points="42.5197,181.111 221.95,181.111"
       class="StaffLines"
       style="fill:none;stroke:#000000;stroke-width:0.40000001;stroke-linejoin:bevel" />
    <path
       id="path28"
       d="m 52.9347,46.633 0.1319,2.7949 h -0.334 C 52.6681,48.9357 52.5802,48.5841 52.4689,48.3732 52.2873,48.0334 52.0456,47.7829 51.7438,47.6217 51.4421,47.4606 51.0451,47.38 50.5529,47.38 h -1.6787 v 9.1055 c 0,0.7324 0.0791,1.1895 0.2373,1.3711 0.2226,0.2461 0.5654,0.3691 1.0283,0.3691 h 0.4131 v 0.3252 h -5.0537 v -0.3252 h 0.4219 c 0.5039,0 0.8613,-0.1523 1.0722,-0.457 0.1289,-0.1875 0.1934,-0.6152 0.1934,-1.2832 V 47.38 h -1.4326 c -0.5567,0 -0.9522,0.0411 -1.1866,0.1231 -0.3046,0.1113 -0.5654,0.3252 -0.7822,0.6416 -0.2168,0.3164 -0.3457,0.7441 -0.3867,1.2832 h -0.334 l 0.1406,-2.7949 h 9.7295 m 3.8194,3.6299 c 1.2187,0 2.1972,0.4628 2.9355,1.3886 0.627,0.791 0.9404,1.6992 0.9404,2.7246 0,0.7207 -0.1728,1.4502 -0.5185,2.1885 -0.3457,0.7383 -0.8218,1.2949 -1.4282,1.6699 -0.6065,0.375 -1.2818,0.5625 -2.0259,0.5625 -1.2129,0 -2.1768,-0.4834 -2.8916,-1.4502 -0.6035,-0.8144 -0.9053,-1.7285 -0.9053,-2.7421 0,-0.7383 0.1831,-1.4722 0.5493,-2.2017 0.3662,-0.7295 0.8482,-1.2686 1.4458,-1.6172 0.5977,-0.3486 1.2305,-0.5229 1.8985,-0.5229 m -0.2725,0.5712 c -0.3105,0 -0.6226,0.0923 -0.936,0.2769 -0.3135,0.1846 -0.5669,0.5083 -0.7603,0.9712 -0.1933,0.4629 -0.29,1.0576 -0.29,1.7842 0,1.1718 0.2329,2.1826 0.6987,3.0322 0.4658,0.8496 1.0796,1.2744 1.8413,1.2744 0.5684,0 1.0371,-0.2344 1.4063,-0.7031 0.3691,-0.4688 0.5537,-1.2744 0.5537,-2.417 0,-1.4297 -0.3076,-2.5547 -0.9229,-3.375 -0.416,-0.5625 -0.9463,-0.8438 -1.5908,-0.8438 m 12.6035,-4.7812 v 10.6787 c 0,0.5039 0.0366,0.8379 0.1099,1.002 0.0732,0.164 0.186,0.2885 0.3384,0.3735 0.1523,0.085 0.4365,0.1274 0.8525,0.1274 v 0.3164 h -3.9463 v -0.3164 c 0.3692,0 0.6211,-0.0381 0.7559,-0.1142 0.1347,-0.0762 0.2402,-0.2022 0.3164,-0.378 0.0762,-0.1757 0.1142,-0.5126 0.1142,-1.0107 v -7.3125 c 0,-0.9082 -0.0205,-1.4663 -0.0615,-1.6743 -0.041,-0.208 -0.1069,-0.3501 -0.1977,-0.4263 -0.0909,-0.0762 -0.2066,-0.1142 -0.3472,-0.1142 -0.1524,0 -0.3457,0.0468 -0.5801,0.1406 l -0.1494,-0.3076 2.3994,-0.9844 h 0.3955 m 3.585,7.4795 c -0.0059,1.1953 0.2842,2.1328 0.8701,2.8125 0.5859,0.6797 1.2744,1.0195 2.0654,1.0195 0.5274,0 0.9859,-0.145 1.3755,-0.435 0.3897,-0.2901 0.7163,-0.7867 0.98,-1.4898 l 0.2725,0.1758 c -0.1231,0.8027 -0.4805,1.5337 -1.0723,2.1929 -0.5918,0.6591 -1.333,0.9887 -2.2236,0.9887 -0.9668,0 -1.7945,-0.3764 -2.4829,-1.1294 -0.6885,-0.7529 -1.0328,-1.7651 -1.0328,-3.0366 0,-1.3769 0.3531,-2.4507 1.0591,-3.2212 0.7061,-0.7705 1.5923,-1.1557 2.6587,-1.1557 0.9024,0 1.6436,0.2973 2.2236,0.8921 0.5801,0.5947 0.8702,1.3901 0.8702,2.3862 h -5.5635 m 0,-0.5098 h 3.7265 c -0.0293,-0.5156 -0.0908,-0.8789 -0.1845,-1.0898 -0.1465,-0.3281 -0.3648,-0.586 -0.6548,-0.7735 -0.29,-0.1875 -0.5933,-0.2812 -0.9097,-0.2812 -0.4863,0 -0.9214,0.189 -1.3052,0.5669 -0.3837,0.3779 -0.6079,0.9038 -0.6723,1.5776 m 11.1924,4.3682 c -0.8262,0.6387 -1.3448,1.0078 -1.5557,1.1074 -0.3164,0.1465 -0.6533,0.2197 -1.0107,0.2197 -0.5567,0 -1.0152,-0.1904 -1.3755,-0.5713 -0.3604,-0.3808 -0.5406,-0.8818 -0.5406,-1.5029 0,-0.3926 0.0879,-0.7324 0.2637,-1.0195 0.2402,-0.3985 0.6577,-0.7735 1.2525,-1.125 0.5947,-0.3516 1.5835,-0.7793 2.9663,-1.2832 v -0.3164 c 0,-0.8028 -0.1275,-1.3535 -0.3824,-1.6524 -0.2548,-0.2988 -0.6254,-0.4482 -1.1118,-0.4482 -0.3691,0 -0.6621,0.0996 -0.8789,0.2988 -0.2226,0.1992 -0.334,0.4278 -0.334,0.6856 l 0.0176,0.5097 c 0,0.2696 -0.0688,0.4776 -0.2065,0.6241 -0.1377,0.1464 -0.3179,0.2197 -0.5406,0.2197 -0.2168,0 -0.394,-0.0762 -0.5317,-0.2285 -0.1377,-0.1524 -0.2065,-0.3604 -0.2065,-0.6241 0,-0.5039 0.2578,-0.9668 0.7734,-1.3886 0.5156,-0.4219 1.2393,-0.6328 2.1709,-0.6328 0.7148,0 1.3008,0.1201 1.7578,0.3603 0.3457,0.1816 0.6006,0.4658 0.7647,0.8525 0.1054,0.252 0.1582,0.7676 0.1582,1.5469 v 2.7334 c 0,0.7676 0.0146,1.2378 0.0439,1.4107 0.0293,0.1728 0.0776,0.2885 0.145,0.3471 0.0674,0.0586 0.145,0.0879 0.2329,0.0879 0.0938,0 0.1758,-0.0205 0.2461,-0.0615 0.1231,-0.0762 0.3604,-0.29 0.7119,-0.6416 v 0.4922 c -0.6562,0.8789 -1.2832,1.3183 -1.8808,1.3183 -0.2871,0 -0.5156,-0.0996 -0.6856,-0.2988 -0.1699,-0.1992 -0.2578,-0.539 -0.2636,-1.0195 m 0,-0.5713 v -3.0674 c -0.8848,0.3516 -1.4561,0.6006 -1.7139,0.7471 -0.4629,0.2578 -0.7939,0.5273 -0.9932,0.8086 -0.1992,0.2812 -0.2988,0.5888 -0.2988,0.9228 0,0.4219 0.126,0.772 0.3779,1.0503 0.252,0.2783 0.542,0.4175 0.8702,0.4175 0.4453,0 1.0312,-0.293 1.7578,-0.8789 m 5.7783,-6.5566 v 1.8105 c 0.6738,-1.207 1.3652,-1.8105 2.0742,-1.8105 0.3223,0 0.5889,0.0981 0.7998,0.2944 0.2109,0.1963 0.3164,0.4233 0.3164,0.6811 0,0.2286 -0.0762,0.4219 -0.2285,0.5801 -0.1523,0.1582 -0.334,0.2373 -0.5449,0.2373 -0.2051,0 -0.4351,-0.101 -0.69,-0.3032 -0.2548,-0.2021 -0.4438,-0.3032 -0.5669,-0.3032 -0.1054,0 -0.2197,0.0586 -0.3427,0.1758 -0.2637,0.2402 -0.5362,0.6357 -0.8174,1.1865 v 3.8584 c 0,0.4453 0.0556,0.7822 0.167,1.0107 0.0761,0.1582 0.2109,0.2901 0.4043,0.3955 0.1933,0.1055 0.4717,0.1582 0.8349,0.1582 v 0.3164 h -4.122 v -0.3164 c 0.4101,0 0.7148,-0.0644 0.914,-0.1933 0.1465,-0.0938 0.2491,-0.2432 0.3076,-0.4483 0.0293,-0.0996 0.044,-0.3838 0.044,-0.8525 v -3.1201 c 0,-0.9375 -0.0191,-1.4956 -0.0571,-1.6743 -0.0381,-0.1787 -0.1084,-0.3091 -0.211,-0.3912 -0.1025,-0.082 -0.23,-0.123 -0.3823,-0.123 -0.1816,0 -0.3867,0.0439 -0.6152,0.1318 l -0.0879,-0.3164 2.4345,-0.9843 h 0.3692 m 5.9756,1.705 c 0.9433,-1.1367 1.8427,-1.705 2.6982,-1.705 0.4395,0 0.8174,0.1098 1.1338,0.3295 0.3164,0.2198 0.5686,0.5816 0.7556,1.0855 0.129,0.3516 0.194,0.8906 0.194,1.6172 v 3.4365 c 0,0.5098 0.041,0.8555 0.123,1.0371 0.064,0.1465 0.168,0.2608 0.312,0.3428 0.143,0.082 0.408,0.123 0.795,0.123 v 0.3164 h -3.9814 v -0.3164 h 0.167 c 0.375,0 0.6372,-0.0571 0.7867,-0.1714 0.1494,-0.1142 0.2534,-0.2827 0.312,-0.5053 0.0234,-0.0879 0.0351,-0.3633 0.0351,-0.8262 v -3.2959 c 0,-0.7324 -0.0952,-1.2642 -0.2856,-1.5952 -0.1904,-0.3311 -0.5112,-0.4966 -0.9624,-0.4966 -0.6973,0 -1.3916,0.3809 -2.083,1.1426 v 4.2451 c 0,0.5449 0.0322,0.8818 0.0967,1.0107 0.082,0.17 0.1948,0.2945 0.3383,0.3736 0.1436,0.0791 0.4351,0.1186 0.8745,0.1186 v 0.3164 h -3.9814 v -0.3164 h 0.1758 c 0.4101,0 0.687,-0.104 0.8305,-0.312 0.1436,-0.208 0.2154,-0.605 0.2154,-1.1909 v -2.9883 c 0,-0.9668 -0.022,-1.5556 -0.0659,-1.7666 -0.044,-0.2109 -0.1114,-0.3545 -0.2022,-0.4306 -0.0908,-0.0762 -0.2124,-0.1143 -0.3647,-0.1143 -0.1641,0 -0.3604,0.0439 -0.5889,0.1318 l -0.1318,-0.3164 2.4257,-0.9843 h 0.378 v 1.705 m 16.3566,-1.705 v 2.7421 h -0.29 c -0.223,-0.8613 -0.509,-1.4472 -0.857,-1.7578 -0.349,-0.3105 -0.793,-0.4658 -1.332,-0.4658 -0.41,0 -0.741,0.1084 -0.993,0.3252 -0.252,0.2168 -0.378,0.457 -0.378,0.7207 0,0.3281 0.094,0.6094 0.281,0.8438 0.182,0.2402 0.551,0.4951 1.108,0.7646 l 1.283,0.624 c 1.19,0.5801 1.784,1.3448 1.784,2.294 0,0.7324 -0.277,1.3227 -0.83,1.771 -0.554,0.4482 -1.174,0.6723 -1.859,0.6723 -0.492,0 -1.055,-0.0879 -1.688,-0.2636 -0.193,-0.0586 -0.351,-0.0879 -0.474,-0.0879 -0.135,0 -0.241,0.0761 -0.317,0.2285 h -0.29 V 55.8 h 0.29 c 0.164,0.8203 0.478,1.4384 0.941,1.8545 0.463,0.416 0.981,0.624 1.555,0.624 0.405,0 0.734,-0.1187 0.989,-0.356 0.255,-0.2373 0.382,-0.5229 0.382,-0.8569 0,-0.4043 -0.142,-0.7442 -0.426,-1.0195 -0.284,-0.2754 -0.851,-0.6241 -1.7,-1.0459 -0.85,-0.4219 -1.407,-0.8028 -1.67,-1.1426 -0.264,-0.334 -0.396,-0.7559 -0.396,-1.2656 0,-0.6622 0.227,-1.2159 0.681,-1.6612 0.454,-0.4453 1.042,-0.6679 1.762,-0.6679 0.317,0 0.701,0.0673 1.152,0.2021 0.299,0.0879 0.498,0.1318 0.597,0.1318 0.094,0 0.167,-0.0205 0.22,-0.0615 0.053,-0.041 0.114,-0.1318 0.185,-0.2724 h 0.29 m 5.734,0 c 1.219,0 2.197,0.4628 2.936,1.3886 0.627,0.791 0.94,1.6992 0.94,2.7246 0,0.7207 -0.173,1.4502 -0.518,2.1885 -0.346,0.7383 -0.822,1.2949 -1.429,1.6699 -0.606,0.375 -1.281,0.5625 -2.025,0.5625 -1.213,0 -2.177,-0.4834 -2.892,-1.4502 -0.604,-0.8144 -0.905,-1.7285 -0.905,-2.7421 0,-0.7383 0.183,-1.4722 0.549,-2.2017 0.366,-0.7295 0.848,-1.2686 1.446,-1.6172 0.597,-0.3486 1.23,-0.5229 1.898,-0.5229 m -0.272,0.5712 c -0.311,0 -0.623,0.0923 -0.936,0.2769 -0.314,0.1846 -0.567,0.5083 -0.761,0.9712 -0.193,0.4629 -0.29,1.0576 -0.29,1.7842 0,1.1718 0.233,2.1826 0.699,3.0322 0.466,0.8496 1.08,1.2744 1.841,1.2744 0.569,0 1.038,-0.2344 1.407,-0.7031 0.369,-0.4688 0.553,-1.2744 0.553,-2.417 0,-1.4297 -0.307,-2.5547 -0.922,-3.375 -0.416,-0.5625 -0.947,-0.8438 -1.591,-0.8438 m 7.725,1.1426 c 0.586,-0.5859 0.932,-0.9228 1.037,-1.0107 0.264,-0.2227 0.548,-0.3955 0.853,-0.5186 0.305,-0.123 0.606,-0.1845 0.905,-0.1845 0.504,0 0.938,0.1464 1.301,0.4394 0.363,0.293 0.606,0.7178 0.73,1.2744 0.603,-0.7031 1.113,-1.1645 1.529,-1.3843 0.416,-0.2197 0.844,-0.3295 1.283,-0.3295 0.428,0 0.807,0.1098 1.138,0.3295 0.331,0.2198 0.593,0.5787 0.787,1.0767 0.129,0.3398 0.193,0.8731 0.193,1.5996 v 3.4629 c 0,0.5039 0.038,0.8496 0.114,1.0371 0.059,0.1289 0.167,0.2388 0.326,0.3296 0.158,0.0908 0.416,0.1362 0.773,0.1362 v 0.3164 h -3.973 v -0.3164 h 0.167 c 0.346,0 0.616,-0.0673 0.809,-0.2021 0.135,-0.0938 0.231,-0.2432 0.29,-0.4483 0.023,-0.0996 0.035,-0.3837 0.035,-0.8525 v -3.4629 c 0,-0.6562 -0.079,-1.1191 -0.237,-1.3887 -0.229,-0.375 -0.595,-0.5625 -1.099,-0.5625 -0.31,0 -0.622,0.0777 -0.936,0.233 -0.313,0.1552 -0.693,0.4438 -1.138,0.8657 l -0.018,0.0967 0.018,0.3779 v 3.8408 c 0,0.5508 0.031,0.8936 0.092,1.0283 0.062,0.1348 0.178,0.2476 0.347,0.3384 0.17,0.0908 0.46,0.1362 0.871,0.1362 v 0.3164 h -4.07 v -0.3164 c 0.446,0 0.752,-0.0527 0.919,-0.1582 0.167,-0.1054 0.282,-0.2636 0.347,-0.4746 0.029,-0.0996 0.044,-0.3896 0.044,-0.8701 v -3.4629 c 0,-0.6562 -0.097,-1.1279 -0.29,-1.415 -0.258,-0.375 -0.618,-0.5625 -1.081,-0.5625 -0.317,0 -0.63,0.0849 -0.941,0.2549 -0.486,0.2578 -0.861,0.5478 -1.125,0.8701 v 4.3154 c 0,0.5273 0.037,0.8701 0.11,1.0283 0.073,0.1582 0.182,0.2769 0.325,0.356 0.144,0.0791 0.435,0.1186 0.875,0.1186 v 0.3164 h -3.982 v -0.3164 c 0.37,0 0.627,-0.0395 0.774,-0.1186 0.146,-0.0791 0.258,-0.2051 0.334,-0.3779 0.076,-0.1729 0.114,-0.5083 0.114,-1.0064 v -3.0762 c 0,-0.8847 -0.026,-1.456 -0.079,-1.7138 -0.041,-0.1934 -0.105,-0.3267 -0.193,-0.3999 -0.088,-0.0733 -0.208,-0.1099 -0.361,-0.1099 -0.164,0 -0.36,0.0439 -0.589,0.1318 l -0.131,-0.3164 2.425,-0.9843 h 0.378 v 1.7138 m 12.963,1.5557 c -0.006,1.1953 0.284,2.1328 0.87,2.8125 0.586,0.6797 1.275,1.0195 2.066,1.0195 0.527,0 0.986,-0.145 1.375,-0.435 0.39,-0.2901 0.717,-0.7867 0.98,-1.4898 l 0.273,0.1758 c -0.123,0.8027 -0.481,1.5337 -1.073,2.1929 -0.591,0.6591 -1.333,0.9887 -2.223,0.9887 -0.967,0 -1.795,-0.3764 -2.483,-1.1294 -0.689,-0.7529 -1.033,-1.7651 -1.033,-3.0366 0,-1.3769 0.353,-2.4507 1.059,-3.2212 0.706,-0.7705 1.593,-1.1557 2.659,-1.1557 0.902,0 1.643,0.2973 2.224,0.8921 0.58,0.5947 0.87,1.3901 0.87,2.3862 h -5.564 m 0,-0.5098 h 3.727 c -0.03,-0.5156 -0.091,-0.8789 -0.185,-1.0898 -0.146,-0.3281 -0.365,-0.586 -0.655,-0.7735 -0.29,-0.1875 -0.593,-0.2812 -0.909,-0.2812 -0.487,0 -0.922,0.189 -1.305,0.5669 -0.384,0.3779 -0.608,0.9038 -0.673,1.5776 m 13.478,-1.0547 c 0.943,-1.1367 1.843,-1.705 2.698,-1.705 0.439,0 0.817,0.1098 1.134,0.3295 0.316,0.2198 0.568,0.5816 0.756,1.0855 0.129,0.3516 0.193,0.8906 0.193,1.6172 v 3.4365 c 0,0.5098 0.041,0.8555 0.123,1.0371 0.064,0.1465 0.169,0.2608 0.312,0.3428 0.144,0.082 0.409,0.123 0.795,0.123 v 0.3164 h -3.981 v -0.3164 h 0.167 c 0.375,0 0.637,-0.0571 0.787,-0.1714 0.149,-0.1142 0.253,-0.2827 0.312,-0.5053 0.023,-0.0879 0.035,-0.3633 0.035,-0.8262 v -3.2959 c 0,-0.7324 -0.095,-1.2642 -0.286,-1.5952 -0.19,-0.3311 -0.511,-0.4966 -0.962,-0.4966 -0.698,0 -1.392,0.3809 -2.083,1.1426 v 4.2451 c 0,0.5449 0.032,0.8818 0.096,1.0107 0.082,0.17 0.195,0.2945 0.339,0.3736 0.143,0.0791 0.435,0.1186 0.874,0.1186 v 0.3164 h -3.981 v -0.3164 h 0.176 c 0.41,0 0.687,-0.104 0.83,-0.312 0.144,-0.208 0.216,-0.605 0.216,-1.1909 v -2.9883 c 0,-0.9668 -0.022,-1.5556 -0.066,-1.7666 -0.044,-0.2109 -0.112,-0.3545 -0.203,-0.4306 -0.09,-0.0762 -0.212,-0.1143 -0.364,-0.1143 -0.164,0 -0.361,0.0439 -0.589,0.1318 l -0.132,-0.3164 2.426,-0.9843 h 0.378 v 1.705 m 8.007,1.5645 c -0.006,1.1953 0.284,2.1328 0.87,2.8125 0.586,0.6797 1.274,1.0195 2.065,1.0195 0.527,0 0.986,-0.145 1.376,-0.435 0.389,-0.2901 0.716,-0.7867 0.98,-1.4898 l 0.272,0.1758 c -0.123,0.8027 -0.48,1.5337 -1.072,2.1929 -0.592,0.6591 -1.333,0.9887 -2.224,0.9887 -0.967,0 -1.794,-0.3764 -2.483,-1.1294 -0.688,-0.7529 -1.032,-1.7651 -1.032,-3.0366 0,-1.3769 0.353,-2.4507 1.059,-3.2212 0.706,-0.7705 1.592,-1.1557 2.658,-1.1557 0.903,0 1.644,0.2973 2.224,0.8921 0.58,0.5947 0.87,1.3901 0.87,2.3862 h -5.563 m 0,-0.5098 h 3.726 c -0.029,-0.5156 -0.091,-0.8789 -0.184,-1.0898 -0.147,-0.3281 -0.365,-0.586 -0.655,-0.7735 -0.29,-0.1875 -0.593,-0.2812 -0.91,-0.2812 -0.486,0 -0.921,0.189 -1.305,0.5669 -0.384,0.3779 -0.608,0.9038 -0.672,1.5776 m 6.182,-2.5224 h 3.375 v 0.3252 c -0.31,0.0234 -0.514,0.0791 -0.611,0.1669 -0.096,0.0879 -0.145,0.2139 -0.145,0.378 0,0.1816 0.05,0.4013 0.15,0.6592 l 1.722,4.6318 1.732,-3.7705 -0.457,-1.1865 c -0.141,-0.3516 -0.325,-0.5948 -0.554,-0.7295 -0.129,-0.0821 -0.369,-0.1319 -0.721,-0.1494 v -0.3252 h 3.832 v 0.3252 c -0.421,0.0175 -0.72,0.0937 -0.896,0.2285 -0.117,0.0937 -0.176,0.2431 -0.176,0.4482 0,0.1172 0.024,0.2373 0.07,0.3604 l 1.829,4.623 1.696,-4.456 c 0.117,-0.3164 0.176,-0.5684 0.176,-0.7559 0,-0.1113 -0.057,-0.2109 -0.172,-0.2988 -0.114,-0.0879 -0.338,-0.1377 -0.672,-0.1494 v -0.3252 h 2.54 v 0.3252 c -0.51,0.0761 -0.885,0.4218 -1.125,1.0371 l -2.689,6.9345 h -0.361 l -2.013,-5.1416 -2.346,5.1416 h -0.325 l -2.584,-6.7675 c -0.17,-0.4278 -0.337,-0.7164 -0.501,-0.8658 -0.164,-0.1494 -0.422,-0.2622 -0.774,-0.3383 v -0.3252"
       class="Text"
       inkscape:connector-curvature="0" />
    <path
       id="path30"
       d="m 45.4728,72.6486 c 0.586,-0.5859 0.9317,-0.9229 1.0371,-1.0107 0.2637,-0.2227 0.5479,-0.3956 0.8526,-0.5186 0.3047,-0.123 0.6064,-0.1846 0.9052,-0.1846 0.5039,0 0.9375,0.1465 1.3008,0.4395 0.3633,0.293 0.6065,0.7178 0.7295,1.2744 0.6035,-0.7031 1.1133,-1.1646 1.5293,-1.3843 0.416,-0.2197 0.8438,-0.3296 1.2832,-0.3296 0.4277,0 0.8071,0.1099 1.1382,0.3296 0.3311,0.2197 0.5933,0.5786 0.7866,1.0767 0.1289,0.3398 0.1934,0.873 0.1934,1.5996 v 3.4629 c 0,0.5039 0.0381,0.8496 0.1142,1.0371 0.0586,0.1289 0.167,0.2388 0.3252,0.3296 0.1582,0.0908 0.416,0.1362 0.7735,0.1362 v 0.3164 h -3.9727 v -0.3164 h 0.167 c 0.3457,0 0.6152,-0.0674 0.8086,-0.2021 0.1348,-0.0938 0.2314,-0.2432 0.29,-0.4483 0.0235,-0.0996 0.0352,-0.3838 0.0352,-0.8525 v -3.4629 c 0,-0.6563 -0.0791,-1.1192 -0.2373,-1.3887 -0.2285,-0.375 -0.5947,-0.5625 -1.0986,-0.5625 -0.3106,0 -0.6226,0.0777 -0.9361,0.2329 -0.3135,0.1553 -0.6929,0.4439 -1.1382,0.8658 l -0.0175,0.0966 0.0175,0.378 v 3.8408 c 0,0.5508 0.0308,0.8935 0.0923,1.0283 0.0615,0.1348 0.1773,0.2476 0.3472,0.3384 0.1699,0.0908 0.4599,0.1362 0.8701,0.1362 v 0.3164 h -4.0693 v -0.3164 c 0.4453,0 0.7514,-0.0527 0.9184,-0.1582 0.167,-0.1055 0.2827,-0.2637 0.3472,-0.4746 0.0293,-0.0996 0.0439,-0.3897 0.0439,-0.8701 v -3.4629 c 0,-0.6563 -0.0966,-1.1279 -0.29,-1.415 -0.2578,-0.375 -0.6182,-0.5625 -1.0811,-0.5625 -0.3164,0 -0.6298,0.0849 -0.9404,0.2548 -0.4863,0.2578 -0.8613,0.5479 -1.125,0.8702 v 4.3154 c 0,0.5273 0.0366,0.8701 0.1099,1.0283 0.0732,0.1582 0.1816,0.2769 0.3252,0.356 0.1435,0.0791 0.435,0.1186 0.8745,0.1186 v 0.3164 h -3.9815 v -0.3164 c 0.3692,0 0.627,-0.0395 0.7735,-0.1186 0.1465,-0.0791 0.2578,-0.2051 0.334,-0.378 0.0761,-0.1728 0.1142,-0.5083 0.1142,-1.0063 v -3.0762 c 0,-0.8848 -0.0263,-1.456 -0.0791,-1.7139 -0.041,-0.1933 -0.1054,-0.3266 -0.1933,-0.3999 -0.0879,-0.0732 -0.208,-0.1098 -0.3604,-0.1098 -0.1641,0 -0.3603,0.0439 -0.5889,0.1318 l -0.1318,-0.3164 2.4258,-0.9844 h 0.3779 v 1.7139 m 18.667,-1.4766 v 4.878 c 0,0.9316 0.022,1.5014 0.0659,1.7094 0.044,0.208 0.1143,0.3531 0.211,0.4351 0.0966,0.082 0.2094,0.123 0.3383,0.123 0.1817,0 0.3868,-0.0498 0.6153,-0.1494 l 0.123,0.3076 -2.4082,0.9932 h -0.3955 v -1.7051 c -0.6914,0.75 -1.2187,1.2217 -1.582,1.4151 -0.3633,0.1933 -0.7471,0.29 -1.1514,0.29 -0.4512,0 -0.8423,-0.1304 -1.1733,-0.3911 -0.3311,-0.2607 -0.5611,-0.5962 -0.69,-1.0064 -0.1289,-0.4101 -0.1933,-0.9902 -0.1933,-1.7402 v -3.5947 c 0,-0.3809 -0.041,-0.6445 -0.1231,-0.791 -0.082,-0.1465 -0.2036,-0.2593 -0.3647,-0.3384 -0.1612,-0.0791 -0.4527,-0.1157 -0.8745,-0.1099 V 71.172 h 2.8213 v 5.3877 c 0,0.75 0.1303,1.2422 0.3911,1.4766 0.2607,0.2344 0.5757,0.3516 0.9448,0.3516 0.2519,0 0.5376,-0.0791 0.8569,-0.2373 0.3194,-0.1583 0.6988,-0.46 1.1382,-0.9053 v -4.5615 c 0,-0.4571 -0.0835,-0.7662 -0.2505,-0.9273 -0.167,-0.1611 -0.5141,-0.2476 -1.0415,-0.2593 V 71.172 h 2.7422 m 7.1455,-0.2373 v 2.7422 h -0.29 c -0.2227,-0.8613 -0.5083,-1.4472 -0.857,-1.7578 -0.3486,-0.3105 -0.7924,-0.4658 -1.3315,-0.4658 -0.4102,0 -0.7412,0.1084 -0.9932,0.3252 -0.2519,0.2168 -0.3779,0.457 -0.3779,0.7207 0,0.3281 0.0938,0.6094 0.2813,0.8437 0.1816,0.2403 0.5507,0.4952 1.1074,0.7647 l 1.2832,0.624 c 1.1894,0.5801 1.7842,1.3447 1.7842,2.294 0,0.7324 -0.2769,1.3227 -0.8306,1.7709 -0.5537,0.4483 -1.1733,0.6724 -1.8589,0.6724 -0.4922,0 -1.0547,-0.0879 -1.6875,-0.2637 -0.1934,-0.0586 -0.3516,-0.0879 -0.4746,-0.0879 -0.1348,0 -0.2402,0.0762 -0.3164,0.2286 h -0.29 v -2.8741 h 0.29 c 0.1641,0.8204 0.4775,1.4385 0.9404,1.8545 0.4629,0.416 0.9815,0.6241 1.5557,0.6241 0.4043,0 0.7339,-0.1187 0.9888,-0.356 0.2548,-0.2373 0.3823,-0.523 0.3823,-0.8569 0,-0.4043 -0.1421,-0.7442 -0.4263,-1.0196 -0.2842,-0.2754 -0.8511,-0.624 -1.7007,-1.0459 -0.8496,-0.4218 -1.4062,-0.8027 -1.6699,-1.1425 -0.2637,-0.334 -0.3955,-0.7559 -0.3955,-1.2657 0,-0.6621 0.227,-1.2158 0.6812,-1.6611 0.4541,-0.4453 1.0415,-0.668 1.7622,-0.668 0.3164,0 0.7002,0.0674 1.1513,0.2022 0.2989,0.0879 0.4981,0.1318 0.5977,0.1318 0.0937,0 0.167,-0.0205 0.2197,-0.0615 0.0527,-0.041 0.1143,-0.1318 0.1846,-0.2725 h 0.29 M 75.13,66.7248 c 0.2461,0 0.4556,0.0864 0.6285,0.2592 0.1728,0.1729 0.2592,0.3824 0.2592,0.6285 0,0.2461 -0.0864,0.457 -0.2592,0.6328 -0.1729,0.1758 -0.3824,0.2636 -0.6285,0.2636 -0.2461,0 -0.457,-0.0878 -0.6328,-0.2636 -0.1758,-0.1758 -0.2636,-0.3867 -0.2636,-0.6328 0,-0.2461 0.0864,-0.4556 0.2592,-0.6285 0.1729,-0.1728 0.3853,-0.2592 0.6372,-0.2592 m 0.7295,4.2099 v 6.4688 c 0,0.5039 0.0367,0.8393 0.1099,1.0063 0.0732,0.167 0.1816,0.2915 0.3252,0.3736 0.1435,0.082 0.4058,0.123 0.7866,0.123 v 0.3164 h -3.9111 v -0.3164 c 0.3926,0 0.6562,-0.0381 0.791,-0.1142 0.1348,-0.0762 0.2417,-0.2022 0.3208,-0.378 0.0791,-0.1758 0.1187,-0.5127 0.1187,-1.0107 v -3.1026 c 0,-0.873 -0.0264,-1.4384 -0.0792,-1.6962 -0.041,-0.1875 -0.1054,-0.3179 -0.1933,-0.3912 -0.0879,-0.0732 -0.208,-0.1098 -0.3604,-0.1098 -0.164,0 -0.3632,0.0439 -0.5976,0.1318 l -0.1231,-0.3164 2.4258,-0.9844 h 0.3867 m 9.0606,5.2295 c -0.2168,1.0606 -0.6416,1.8765 -1.2744,2.4478 -0.6328,0.5713 -1.333,0.8569 -2.1006,0.8569 -0.9141,0 -1.711,-0.3838 -2.3906,-1.1514 -0.6797,-0.7675 -1.0196,-1.8046 -1.0196,-3.1113 0,-1.2656 0.3765,-2.2939 1.1294,-3.0849 0.753,-0.7911 1.6568,-1.1866 2.7114,-1.1866 0.7911,0 1.4415,0.2095 1.9512,0.6284 0.5098,0.419 0.7647,0.8541 0.7647,1.3052 0,0.2227 -0.0718,0.4029 -0.2154,0.5406 -0.1435,0.1376 -0.3442,0.2065 -0.602,0.2065 -0.3457,0 -0.6065,-0.1113 -0.7822,-0.334 -0.0997,-0.123 -0.1656,-0.3574 -0.1978,-0.7031 -0.0322,-0.3457 -0.1509,-0.6094 -0.356,-0.791 -0.205,-0.1758 -0.4892,-0.2637 -0.8525,-0.2637 -0.5859,0 -1.0576,0.2168 -1.415,0.6504 -0.4746,0.5742 -0.7119,1.333 -0.7119,2.2764 0,0.9609 0.2358,1.809 0.7075,2.5444 0.4717,0.7353 1.1089,1.103 1.9116,1.103 0.5742,0 1.0898,-0.1963 1.5469,-0.5889 0.3222,-0.2695 0.6357,-0.7587 0.9404,-1.4677 l 0.2549,0.123 m 5.0664,-4.1924 2.4785,-1.0019 h 0.334 v 1.8808 c 0.416,-0.7089 0.8335,-1.2055 1.2524,-1.4897 0.419,-0.2842 0.8599,-0.4263 1.3228,-0.4263 0.8086,0 1.4824,0.3164 2.0215,0.9492 0.6621,0.7735 0.9931,1.7813 0.9931,3.0235 0,1.3887 -0.3984,2.5371 -1.1953,3.4453 -0.6562,0.7441 -1.4824,1.1162 -2.4785,1.1162 -0.4336,0 -0.8086,-0.0615 -1.125,-0.1846 -0.2344,-0.0879 -0.498,-0.2636 -0.791,-0.5273 v 2.4521 c 0,0.5508 0.0337,0.9009 0.1011,1.0503 0.0673,0.1495 0.1845,0.2681 0.3515,0.356 0.167,0.0879 0.4702,0.1318 0.9097,0.1318 v 0.3252 h -4.2188 v -0.3252 h 0.2198 c 0.3222,0.0059 0.5976,-0.0556 0.8261,-0.1845 0.1114,-0.0645 0.1978,-0.1685 0.2593,-0.3121 0.0615,-0.1435 0.0923,-0.5083 0.0923,-1.0942 v -7.6113 c 0,-0.5215 -0.0234,-0.8526 -0.0703,-0.9932 C 91.2228,72.4113 91.1481,72.3058 91.0456,72.2355 90.943,72.1652 90.8039,72.13 90.6281,72.13 c -0.1406,0 -0.3193,0.0411 -0.5361,0.1231 l -0.1055,-0.2813 m 2.8125,1.3975 v 3.0059 c 0,0.6504 0.0264,1.0781 0.0791,1.2832 0.082,0.3398 0.2827,0.6386 0.602,0.8964 0.3194,0.2579 0.7222,0.3868 1.2085,0.3868 0.586,0 1.0606,-0.2285 1.4239,-0.6856 0.4746,-0.5976 0.7119,-1.4385 0.7119,-2.5224 0,-1.2305 -0.2696,-2.1768 -0.8086,-2.8389 -0.375,-0.457 -0.8203,-0.6856 -1.336,-0.6856 -0.2812,0 -0.5595,0.0704 -0.8349,0.211 -0.211,0.1055 -0.5596,0.4219 -1.0459,0.9492 m 9.536,-6.6445 v 10.6787 c 0,0.5039 0.037,0.8379 0.11,1.0019 0.073,0.1641 0.186,0.2886 0.338,0.3736 0.153,0.0849 0.437,0.1274 0.853,0.1274 v 0.3164 h -3.9464 v -0.3164 c 0.3694,0 0.6214,-0.0381 0.7554,-0.1142 0.135,-0.0762 0.241,-0.2022 0.317,-0.378 0.076,-0.1758 0.114,-0.5127 0.114,-1.0107 V 70.091 c 0,-0.9082 -0.02,-1.4663 -0.061,-1.6743 -0.041,-0.208 -0.107,-0.3501 -0.198,-0.4263 -0.091,-0.0762 -0.207,-0.1143 -0.347,-0.1143 -0.153,0 -0.346,0.0469 -0.5804,0.1407 l -0.1494,-0.3077 2.3998,-0.9843 h 0.395 m 6.793,11.3379 c -0.826,0.6386 -1.345,1.0078 -1.556,1.1074 -0.316,0.1465 -0.653,0.2197 -1.01,0.2197 -0.557,0 -1.015,-0.1904 -1.376,-0.5713 -0.36,-0.3808 -0.54,-0.8818 -0.54,-1.5029 0,-0.3926 0.088,-0.7324 0.263,-1.0195 0.241,-0.3985 0.658,-0.7735 1.253,-1.125 0.595,-0.3516 1.583,-0.7793 2.966,-1.2832 v -0.3165 c 0,-0.8027 -0.127,-1.3535 -0.382,-1.6523 -0.255,-0.2988 -0.626,-0.4482 -1.112,-0.4482 -0.369,0 -0.662,0.0996 -0.879,0.2988 -0.223,0.1992 -0.334,0.4277 -0.334,0.6855 l 0.018,0.5098 c 0,0.2695 -0.069,0.4775 -0.207,0.624 -0.138,0.1465 -0.318,0.2198 -0.54,0.2198 -0.217,0 -0.394,-0.0762 -0.532,-0.2286 -0.138,-0.1523 -0.207,-0.3603 -0.207,-0.624 0,-0.5039 0.258,-0.9668 0.774,-1.3887 0.515,-0.4218 1.239,-0.6328 2.171,-0.6328 0.714,0 1.3,0.1201 1.757,0.3604 0.346,0.1816 0.601,0.4658 0.765,0.8525 0.106,0.252 0.158,0.7676 0.158,1.5469 v 2.7334 c 0,0.7676 0.015,1.2378 0.044,1.4106 0.03,0.1729 0.078,0.2886 0.145,0.3472 0.068,0.0586 0.145,0.0879 0.233,0.0879 0.094,0 0.176,-0.0205 0.246,-0.0615 0.123,-0.0762 0.361,-0.2901 0.712,-0.6416 v 0.4922 c -0.656,0.8789 -1.283,1.3183 -1.881,1.3183 -0.287,0 -0.515,-0.0996 -0.685,-0.2988 -0.17,-0.1992 -0.258,-0.5391 -0.264,-1.0195 m 0,-0.5713 V 74.424 c -0.885,0.3516 -1.456,0.6006 -1.714,0.7471 -0.463,0.2578 -0.794,0.5273 -0.993,0.8086 -0.199,0.2812 -0.299,0.5888 -0.299,0.9228 0,0.4219 0.126,0.772 0.378,1.0503 0.252,0.2783 0.542,0.4175 0.87,0.4175 0.446,0 1.032,-0.293 1.758,-0.8789 m 2.966,-6.3194 h 3.753 v 0.3252 h -0.185 c -0.263,0 -0.461,0.0572 -0.593,0.1714 -0.132,0.1143 -0.198,0.2564 -0.198,0.4263 0,0.2285 0.097,0.5449 0.29,0.9492 l 1.96,4.0606 1.802,-4.4473 c 0.1,-0.2402 0.149,-0.4776 0.149,-0.7119 0,-0.1055 -0.02,-0.1846 -0.061,-0.2373 -0.047,-0.0645 -0.12,-0.1158 -0.22,-0.1538 -0.099,-0.0381 -0.275,-0.0572 -0.527,-0.0572 V 71.172 h 2.619 v 0.3252 c -0.217,0.0235 -0.384,0.0703 -0.501,0.1407 -0.117,0.0703 -0.246,0.2021 -0.387,0.3955 -0.052,0.082 -0.152,0.3076 -0.299,0.6767 l -3.278,8.0332 c -0.316,0.7793 -0.731,1.3682 -1.244,1.7666 -0.512,0.3985 -1.006,0.5977 -1.48,0.5977 -0.346,0 -0.63,-0.0996 -0.853,-0.2988 -0.223,-0.1993 -0.334,-0.4278 -0.334,-0.6856 0,-0.2461 0.081,-0.4438 0.242,-0.5933 0.161,-0.1494 0.382,-0.2241 0.663,-0.2241 0.194,0 0.457,0.0645 0.791,0.1934 0.235,0.0879 0.381,0.1318 0.44,0.1318 0.176,0 0.367,-0.0908 0.575,-0.2724 0.208,-0.1817 0.418,-0.5332 0.629,-1.0547 l 0.571,-1.3975 -2.891,-6.0732 c -0.088,-0.1817 -0.229,-0.4073 -0.422,-0.6768 -0.147,-0.2051 -0.267,-0.3428 -0.361,-0.4131 -0.134,-0.0937 -0.351,-0.1758 -0.65,-0.2461 V 71.172 m 11.434,-0.2461 c 0.27,0 0.5,0.0953 0.69,0.2857 0.191,0.1904 0.286,0.4204 0.286,0.6899 0,0.2696 -0.095,0.4995 -0.286,0.69 -0.19,0.1904 -0.42,0.2856 -0.69,0.2856 -0.269,0 -0.499,-0.0952 -0.689,-0.2856 -0.191,-0.1905 -0.286,-0.4204 -0.286,-0.69 0,-0.2695 0.095,-0.4995 0.286,-0.6899 0.19,-0.1904 0.42,-0.2857 0.689,-0.2857 m -0.017,6.583 c 0.275,0 0.508,0.0967 0.699,0.2901 0.19,0.1933 0.285,0.4248 0.285,0.6943 0,0.2696 -0.096,0.4995 -0.29,0.69 -0.193,0.1904 -0.425,0.2856 -0.694,0.2856 -0.27,0 -0.5,-0.0952 -0.69,-0.2856 -0.19,-0.1905 -0.286,-0.4204 -0.286,-0.69 0,-0.2695 0.096,-0.501 0.286,-0.6943 0.19,-0.1934 0.42,-0.2901 0.69,-0.2901"
       class="Text"
       inkscape:connector-curvature="0" />
    <polyline
       id="polyline32"
       points="42.9165,96.7804 42.9165,181.111"
       class="BarLine"
       style="fill:none;stroke:#000000;stroke-width:0.79000002;stroke-linejoin:bevel" />
    <polyline
       id="polyline34"
       points="217.089,143.906 217.089,181.111"
       class="BarLine"
       style="fill:none;stroke:#000000;stroke-width:0.79000002;stroke-linejoin:bevel" />
    <polyline
       id="polyline36"
       points="220.71,143.906 220.71,181.111"
       class="BarLine"
       style="fill:none;stroke:#000000;stroke-width:2.48000002;stroke-linejoin:bevel" />
    <polyline
       id="polyline38"
       points="217.089,96.7804 217.089,116.623"
       class="BarLine"
       style="fill:none;stroke:#000000;stroke-width:0.79000002;stroke-linejoin:bevel" />
    <polyline
       id="polyline40"
       points="220.71,96.7804 220.71,116.623"
       class="BarLine"
       style="fill:none;stroke:#000000;stroke-width:2.48000002;stroke-linejoin:bevel" />
    <polyline
       id="polyline42"
       points="181.182,121.584 190.689,121.584"
       class="LedgerLine"
       style="fill:none;stroke:#000000;stroke-width:0.79000002;stroke-linecap:square;stroke-linejoin:bevel" />
    <polyline
       id="polyline44"
       points="181.182,126.544 190.689,126.544"
       class="LedgerLine"
       style="fill:none;stroke:#000000;stroke-width:0.79000002;stroke-linecap:square;stroke-linejoin:bevel" />
    <polyline
       id="polyline46"
       points="181.182,131.505 190.689,131.505"
       class="LedgerLine"
       style="fill:none;stroke:#000000;stroke-width:0.79000002;stroke-linecap:square;stroke-linejoin:bevel" />
    <polyline
       id="polyline48"
       points="147.16,121.584 156.668,121.584"
       class="LedgerLine"
       style="fill:none;stroke:#000000;stroke-width:0.79000002;stroke-linecap:square;stroke-linejoin:bevel" />
    <polyline
       id="polyline50"
       points="147.16,126.544 156.668,126.544"
       class="LedgerLine"
       style="fill:none;stroke:#000000;stroke-width:0.79000002;stroke-linecap:square;stroke-linejoin:bevel" />
    <polyline
       id="polyline52"
       points="147.16,131.505 156.668,131.505"
       class="LedgerLine"
       style="fill:none;stroke:#000000;stroke-width:0.79000002;stroke-linecap:square;stroke-linejoin:bevel" />
    <polyline
       id="polyline54"
       points="113.139,121.584 122.646,121.584"
       class="LedgerLine"
       style="fill:none;stroke:#000000;stroke-width:0.79000002;stroke-linecap:square;stroke-linejoin:bevel" />
    <polyline
       id="polyline56"
       points="113.139,126.544 122.646,126.544"
       class="LedgerLine"
       style="fill:none;stroke:#000000;stroke-width:0.79000002;stroke-linecap:square;stroke-linejoin:bevel" />
    <polyline
       id="polyline58"
       points="113.139,131.505 122.646,131.505"
       class="LedgerLine"
       style="fill:none;stroke:#000000;stroke-width:0.79000002;stroke-linecap:square;stroke-linejoin:bevel" />
    <polyline
       id="polyline60"
       points="79.1167,121.584 88.6241,121.584"
       class="LedgerLine"
       style="fill:none;stroke:#000000;stroke-width:0.79000002;stroke-linecap:square;stroke-linejoin:bevel" />
    <polyline
       id="polyline62"
       points="79.1167,126.544 88.6241,126.544"
       class="LedgerLine"
       style="fill:none;stroke:#000000;stroke-width:0.79000002;stroke-linecap:square;stroke-linejoin:bevel" />
    <polyline
       id="polyline64"
       points="79.1167,131.505 88.6241,131.505"
       class="LedgerLine"
       style="fill:none;stroke:#000000;stroke-width:0.79000002;stroke-linecap:square;stroke-linejoin:bevel" />
    <polyline
       id="polyline66"
       points="188.879,133.053 188.879,106.702"
       class="Stem"
       style="fill:none;stroke:#000000;stroke-width:0.63999999;stroke-linecap:round;stroke-linejoin:bevel" />
    <polyline
       id="polyline68"
       points="154.857,130.573 154.857,106.702"
       class="Stem"
       style="fill:none;stroke:#000000;stroke-width:0.63999999;stroke-linecap:round;stroke-linejoin:bevel" />
    <polyline
       id="polyline70"
       points="120.835,133.053 120.835,106.702"
       class="Stem"
       style="fill:none;stroke:#000000;stroke-width:0.63999999;stroke-linecap:round;stroke-linejoin:bevel" />
    <polyline
       id="polyline72"
       points="86.8135,130.573 86.8135,106.702"
       class="Stem"
       style="fill:none;stroke:#000000;stroke-width:0.63999999;stroke-linecap:round;stroke-linejoin:bevel" />
    <path
       id="path74"
       d="m 183.414,177.391 h 5.953 v 7.441 h -5.953 v -7.441"
       class="Note"
       inkscape:connector-curvature="0"
       style="fill:#ffffff;fill-rule:evenodd" />
    <path
       id="path76"
       d="m 0.387,-3.087 c 0,-0.534 0.045,-1.005 0.135,-1.413 0.09,-0.408 0.204,-0.7275 0.342,-0.9585 0.138,-0.231 0.303,-0.4185 0.495,-0.5625 0.192,-0.144 0.3765,-0.24 0.5535,-0.288 0.177,-0.048 0.3645,-0.072 0.5625,-0.072 1.392,0 2.088,1.116 2.088,3.348 0,1.05 -0.1785,1.8525 -0.5355,2.4075 C 3.6705,-0.0705 3.153,0.207 2.475,0.207 1.791,0.207 1.272,-0.0735 0.918,-0.6345 0.564,-1.1955 0.387,-2.013 0.387,-3.087 m 3.366,-0.018 c 0,-1.716 -0.426,-2.574 -1.278,-2.574 -0.852,0 -1.278,0.867 -1.278,2.601 0,1.752 0.42,2.628 1.26,2.628 0.444,0 0.771,-0.216 0.981,-0.648 0.21,-0.432 0.315,-1.101 0.315,-2.007"
       transform="matrix(0.992126,0,0,0.992126,183.91,184.173)"
       class="Note"
       inkscape:connector-curvature="0" />
    <path
       id="path78"
       d="m 4.39453,-2.75391 c 0.625,0 1.15235,0.16276 1.58203,0.48829 0.40365,0.35156 0.60547,0.79427 0.60547,1.32812 0,0.8984375 -0.46224,1.738281 -1.38672,2.51953 C 4.25781,2.36328 3.25521,2.75391 2.1875,2.75391 1.5625,2.75391 1.03516,2.59115 0.605469,2.26562 0.201823,1.91406 0,1.47135 0,0.9375 0,0.0390625 0.46875,-0.800781 1.40625,-1.58203 2.31771,-2.36328 3.3138,-2.75391 4.39453,-2.75391"
       transform="matrix(0.992126,0,0,0.992126,182.67,133.985)"
       class="Note"
       inkscape:connector-curvature="0" />
    <path
       id="path80"
       d="m 149.393,177.391 h 5.952 v 7.441 h -5.952 v -7.441"
       class="Note"
       inkscape:connector-curvature="0"
       style="fill:#ffffff;fill-rule:evenodd" />
    <path
       id="path82"
       d="M 2.331,-4.545 H 0.918 V -5.112 C 1.53,-5.19 1.929,-5.298 2.115,-5.436 2.301,-5.574 2.463,-5.889 2.601,-6.381 H 3.123 V 0 H 2.331 v -4.545"
       transform="matrix(0.992126,0,0,0.992126,149.889,184.173)"
       class="Note"
       inkscape:connector-curvature="0" />
    <path
       id="path84"
       d="m 4.39453,-2.75391 c 0.625,0 1.15235,0.16276 1.58203,0.48829 0.40365,0.35156 0.60547,0.79427 0.60547,1.32812 0,0.8984375 -0.46224,1.738281 -1.38672,2.51953 C 4.25781,2.36328 3.25521,2.75391 2.1875,2.75391 1.5625,2.75391 1.03516,2.59115 0.605469,2.26562 0.201823,1.91406 0,1.47135 0,0.9375 0,0.0390625 0.46875,-0.800781 1.40625,-1.58203 2.31771,-2.36328 3.3138,-2.75391 4.39453,-2.75391"
       transform="matrix(0.992126,0,0,0.992126,148.648,131.505)"
       class="Note"
       inkscape:connector-curvature="0" />
    <path
       id="path86"
       d="m 115.371,177.391 h 5.953 v 7.441 h -5.953 v -7.441"
       class="Note"
       inkscape:connector-curvature="0"
       style="fill:#ffffff;fill-rule:evenodd" />
    <path
       id="path88"
       d="m 0.387,-3.087 c 0,-0.534 0.045,-1.005 0.135,-1.413 0.09,-0.408 0.204,-0.7275 0.342,-0.9585 0.138,-0.231 0.303,-0.4185 0.495,-0.5625 0.192,-0.144 0.3765,-0.24 0.5535,-0.288 0.177,-0.048 0.3645,-0.072 0.5625,-0.072 1.392,0 2.088,1.116 2.088,3.348 0,1.05 -0.1785,1.8525 -0.5355,2.4075 C 3.6705,-0.0705 3.153,0.207 2.475,0.207 1.791,0.207 1.272,-0.0735 0.918,-0.6345 0.564,-1.1955 0.387,-2.013 0.387,-3.087 m 3.366,-0.018 c 0,-1.716 -0.426,-2.574 -1.278,-2.574 -0.852,0 -1.278,0.867 -1.278,2.601 0,1.752 0.42,2.628 1.26,2.628 0.444,0 0.771,-0.216 0.981,-0.648 0.21,-0.432 0.315,-1.101 0.315,-2.007"
       transform="matrix(0.992126,0,0,0.992126,115.867,184.173)"
       class="Note"
       inkscape:connector-curvature="0" />
    <path
       id="path90"
       d="m 4.39453,-2.75391 c 0.625,0 1.15235,0.16276 1.58203,0.48829 0.40365,0.35156 0.60547,0.79427 0.60547,1.32812 0,0.8984375 -0.46224,1.738281 -1.38672,2.51953 C 4.25781,2.36328 3.25521,2.75391 2.1875,2.75391 1.5625,2.75391 1.03516,2.59115 0.605469,2.26562 0.201823,1.91406 0,1.47135 0,0.9375 0,0.0390625 0.46875,-0.800781 1.40625,-1.58203 2.31771,-2.36328 3.3138,-2.75391 4.39453,-2.75391"
       transform="matrix(0.992126,0,0,0.992126,114.627,133.985)"
       class="Note"
       inkscape:connector-curvature="0" />
    <path
       id="path92"
       d="m 81.349,177.391 h 5.9528 v 7.441 H 81.349 v -7.441"
       class="Note"
       inkscape:connector-curvature="0"
       style="fill:#ffffff;fill-rule:evenodd" />
    <path
       id="path94"
       d="M 2.331,-4.545 H 0.918 V -5.112 C 1.53,-5.19 1.929,-5.298 2.115,-5.436 2.301,-5.574 2.463,-5.889 2.601,-6.381 H 3.123 V 0 H 2.331 v -4.545"
       transform="matrix(0.992126,0,0,0.992126,81.8451,184.173)"
       class="Note"
       inkscape:connector-curvature="0" />
    <path
       id="path96"
       d="m 4.39453,-2.75391 c 0.625,0 1.15235,0.16276 1.58203,0.48829 0.40365,0.35156 0.60547,0.79427 0.60547,1.32812 0,0.8984375 -0.46224,1.738281 -1.38672,2.51953 C 4.25781,2.36328 3.25521,2.75391 2.1875,2.75391 1.5625,2.75391 1.03516,2.59115 0.605469,2.26562 0.201823,1.91406 0,1.47135 0,0.9375 0,0.0390625 0.46875,-0.800781 1.40625,-1.58203 2.31771,-2.36328 3.3138,-2.75391 4.39453,-2.75391"
       transform="matrix(0.992126,0,0,0.992126,80.6049,131.505)"
       class="Note"
       inkscape:connector-curvature="0" />
    <path
       id="path98"
       d="m 9.84375,13.125 c 0,2.0052 -1.23047,3.0078 -3.69141,3.0078 H 1.75781 V 6.17188 h 4.39453 c 2.25261,0 3.37891,0.91145 3.37891,2.73437 0,1.04167 -0.47526,1.68615 -1.42578,1.93355 1.15885,0.2214 1.73828,0.9831 1.73828,2.2852 M 3.82812,7.87109 V 10.1367 H 6.15234 C 7.05078,10.1367 7.5,9.72656 7.5,8.90625 7.5,8.21615 7.05078,7.87109 6.15234,7.87109 H 3.82812 m 0,3.96481 v 2.5977 h 2.32422 c 1.08073,0 1.6211,-0.4362 1.6211,-1.3086 0,-0.8594 -0.54037,-1.2891 -1.6211,-1.2891 H 3.82812 M 7.07031,2.8125 H 3.39844 L 2.71484,4.82422 H 0.585938 L 4.02344,-5.13672 h 2.42187 l 3.4375,9.96094 H 7.75391 L 7.07031,2.8125 M 6.5625,1.09375 5.23438,-2.77344 3.90625,1.09375 H 6.5625 M 6.26953,-14.5703 v 8.22264 H 4.19922 V -14.5703 H 1.17188 v -1.7383 h 8.125 v 1.7383 H 6.26953"
       transform="matrix(0.992126,0,0,0.992126,46.4882,162.509)"
       class="Clef"
       inkscape:connector-curvature="0" />
    <path
       id="path100"
       d="m 7.34375,-5.11719 c 0,0 0.03906,0 0.11719,0 0.05208,-0.01302 0.09765,-0.01953 0.13672,-0.01953 1.45833,0 2.65624,0.51432 3.59374,1.54297 0.9375,1.01563 1.4063,2.20052 1.4063,3.5546875 0,1.6796825 -0.6967,3.0468725 -2.0899,4.1015625 -0.3646,0.28646 -0.83983,0.52083 -1.42577,0.70312 0.06511,0.84636 0.09766,1.52995 0.09766,2.05079 0,0.10416 -0.01302,0.48177 -0.03907,1.13281 -0.05208,1.21094 -0.46874,2.25908 -1.25,3.14458 -0.7552,0.8723 -1.6927,1.3085 -2.8125,1.3085 -1.05468,0 -1.95312,-0.3711 -2.69531,-1.1132 C 1.64062,10.5339 1.26953,9.6224 1.26953,8.55469 c 0,-0.5599 0.21485,-1.03516 0.64453,-1.42578 0.44271,-0.39063 0.95703,-0.58594 1.54297,-0.58594 0.52083,0 0.95703,0.20182 1.30859,0.60547 0.36459,0.3776 0.54688,0.84635 0.54688,1.40625 0,0.50781 -0.18229,0.94401 -0.54688,1.30859 -0.36458,0.36462 -0.80078,0.54692 -1.30859,0.54692 -0.20833,0 -0.41015,-0.0391 -0.60547,-0.1172 0.57292,0.8463 1.33464,1.2695 2.28516,1.2695 0.89844,0 1.63411,-0.3646 2.20703,-1.0937 C 7.94271,9.71354 8.26823,8.83464 8.32031,7.83203 8.34635,7.20703 8.35938,6.84896 8.35938,6.75781 8.35938,6.02865 8.33333,5.42969 8.28125,4.96094 7.63021,5.0651 7.05078,5.11719 6.54297,5.11719 4.73307,5.11719 3.1901,4.40104 1.91406,2.96875 0.664062,1.52344 0.0390625,-0.195312 0.0390625,-2.1875 c 0,-0.41667 0.0390625,-0.83984 0.1171875,-1.26953 C 0.234375,-3.80859 0.332031,-4.19271 0.449219,-4.60938 0.514323,-4.84375 0.690104,-5.22135 0.976562,-5.74219 1.08073,-5.89844 1.19792,-6.09375 1.32812,-6.32812 1.45833,-6.5625 1.54948,-6.71875 1.60156,-6.79688 1.73177,-7.05729 1.98568,-7.40885 2.36328,-7.85156 2.46745,-7.96875 2.57487,-8.09896 2.68555,-8.24219 2.79622,-8.38542 2.89062,-8.5026 2.96875,-8.59375 3.04688,-8.6849 3.10547,-8.75651 3.14453,-8.80859 3.18359,-8.86068 3.47656,-9.20573 4.02344,-9.84375 4.15365,-9.97396 4.2806,-10.1139 4.4043,-10.2637 c 0.12369,-0.1497 0.22461,-0.2669 0.30273,-0.3515 0.07813,-0.0847 0.13672,-0.1465 0.17578,-0.1856 -0.46875,-1.5495 -0.76172,-2.7864 -0.8789,-3.7109 -0.09115,-0.7422 -0.13672,-1.7578 -0.13672,-3.0469 0,-1.1328 0.26041,-2.194 0.78125,-3.1836 0.50781,-1.0286 1.21745,-1.8685 2.1289,-2.5195 0.06511,-0.0391 0.13021,-0.0586 0.19532,-0.0586 0.09114,0 0.15625,0.0195 0.19531,0.0586 0.70312,0.8463 1.30859,1.9466 1.81641,3.3008 0.52083,1.3541 0.78124,2.5846 0.78124,3.6914 0,1.25 -0.29947,2.4218 -0.89843,3.5156 -0.67709,1.1588 -1.54948,2.3568 -2.61719,3.59374 0.27344,0.85938 0.63802,2.20704 1.09375,4.04297 M 9.00391,3.96484 C 9.68099,3.71745 10.2083,3.29427 10.5859,2.69531 c 0.4167,-0.57291 0.625,-1.21745 0.625,-1.933591 0,-0.924479 -0.3125,-1.744792 -0.9375,-2.460939 -0.63798,-0.74219 -1.45179,-1.15885 -2.44137,-1.25 0.5599,2.747397 0.95052,5.05208 1.17188,6.91406 m -7.5586,-4.511715 c 0,1.289063 0.52084,2.421875 1.5625,3.398435 1.06771,0.95052 2.26563,1.42578 3.59375,1.42578 0.54688,0 1.08073,-0.03906 1.60156,-0.11718 C 7.99479,2.18099 7.58464,-0.188802 6.97266,-2.94922 6.23047,-2.87109 5.63802,-2.61068 5.19531,-2.16797 4.76562,-1.71224 4.55078,-1.19792 4.55078,-0.625 c 0,0.989583 0.52734,1.79036 1.58203,2.40234 0.09115,0.09115 0.13672,0.18881 0.13672,0.29297 0,0.10417 -0.04557,0.20183 -0.13672,0.29297 C 6.05469,2.45443 5.95703,2.5 5.83984,2.5 5.82682,2.5 5.76823,2.48698 5.66406,2.46094 4.92188,2.05729 4.34896,1.53646 3.94531,0.898438 3.56771,0.221354 3.37891,-0.46224 3.37891,-1.15234 c 0,-0.89844 0.27994,-1.71224 0.83984,-2.44141 C 4.80469,-4.32292 5.56641,-4.79167 6.50391,-5 6.13932,-6.45833 5.83984,-7.59766 5.60547,-8.41797 5.39714,-8.18359 5.14648,-7.90039 4.85352,-7.56836 4.56055,-7.23633 4.38802,-7.03776 4.33594,-6.97266 3.86719,-6.36068 3.50911,-5.88542 3.26172,-5.54688 2.81901,-4.9349 2.49349,-4.40755 2.28516,-3.96484 2.0638,-3.47005 1.86849,-2.92969 1.69922,-2.34375 1.52995,-1.78385 1.44531,-1.1849 1.44531,-0.546875 M 7.96875,-20.4102 c -0.97656,0.4818 -1.74479,1.1719 -2.30469,2.0704 -0.57291,0.9244 -0.85937,1.9205 -0.85937,2.9882 0,0.9375 0.23437,2.2006 0.70312,3.7891 0.9375,-1.1328 1.64063,-2.181 2.10938,-3.1445 0.49479,-1.0157 0.74219,-2.0769 0.74219,-3.1836 0,-0.8334 -0.13021,-1.6732 -0.39063,-2.5196 M 5.82031,15.2344 C 6.15885,14.8958 6.32812,14.5573 6.32812,14.2188 6.30208,13.9453 6.1849,13.737 5.97656,13.5938 5.74219,13.4375 5.46875,13.3594 5.15625,13.3594 c -0.22135,0 -0.40365,0.0716 -0.54687,0.2148 -0.13021,0.1302 -0.19532,0.293 -0.19532,0.4883 0,0.2344 0.09766,0.4102 0.29297,0.5273 l 1.11328,0.6446 m 0.3125,0.1758 c 0.54688,0.2994 0.82031,0.7031 0.82031,1.2109 v 0.0586 c 0,0.4036 -0.16276,0.7422 -0.48828,1.0156 -0.32552,0.2865 -0.78776,0.4297 -1.38672,0.4297 -0.49479,0 -0.92447,-0.1302 -1.28906,-0.3906 -0.36458,-0.2474 -0.54687,-0.586 -0.54687,-1.0156 0,-0.1693 0.04557,-0.3256 0.13672,-0.4688 0.10416,-0.1693 0.1888,-0.2865 0.2539,-0.3516 l 0.3711,-0.3711 C 3.60026,15.2539 3.39844,14.8958 3.39844,14.4531 c 0,-0.3515 0.15625,-0.664 0.46875,-0.9375 0.32552,-0.2604 0.75521,-0.3906 1.28906,-0.3906 0.44271,0 0.82031,0.0977 1.13281,0.293 0.3125,0.1953 0.46875,0.4622 0.46875,0.8008 0,0.3515 -0.20833,0.7486 -0.625,1.1914 m -1.83593,0.2929 c -0.39063,0.3386 -0.59896,0.6771 -0.625,1.0157 0.02604,0.3515 0.16927,0.6315 0.42968,0.8398 0.28646,0.2213 0.61198,0.332 0.97656,0.332 0.26042,0 0.46876,-0.0846 0.625,-0.2539 C 5.85938,17.4805 5.9375,17.2917 5.9375,17.0703 5.92448,16.7839 5.80729,16.5755 5.58594,16.4453 L 4.29688,15.7031"
       transform="matrix(0.992126,0,0,0.992126,46.4882,111.662)"
       class="Clef"
       inkscape:connector-curvature="0" />
    <path
       id="path102"
       d="m 4.49219,-4.74609 c 0.39062,0 0.72265,-0.04558 0.99609,-0.13672 0.27344,-0.09115 0.44922,-0.13672 0.52734,-0.13672 0.09115,0 0.16277,0.02604 0.21485,0.07812 0.03906,0.03907 0.0651,0.08464 0.07812,0.13672 0,0.02604 -0.01302,0.06511 -0.03906,0.11719 L 0.585938,1.91406 H 3.92578 v -2.617185 c 0,-0.169271 0.04557,-0.312495 0.13672,-0.429685 0.15625,-0.13021 0.28646,-0.20834 0.39062,-0.23438 0.16928,-0.07812 0.37761,-0.26041 0.625,-0.54687 0.20834,-0.23438 0.45573,-0.64453 0.74219,-1.23047 0.03907,-0.07813 0.09766,-0.11719 0.17578,-0.11719 0.15625,0 0.2474,0.09115 0.27344,0.27344 v 4.90234 h 1.42578 c 0.18229,0 0.28646,0.09766 0.3125,0.29297 C 8.00781,2.40234 7.90365,2.5 7.69531,2.5 H 6.26953 v 0.15625 c 0,0.52083 0.13021,0.96354 0.39063,1.32813 0.29948,0.36458 0.65104,0.54687 1.05468,0.54687 0.15625,0 0.23438,0.07813 0.23438,0.23437 C 7.94922,4.92188 7.87109,5 7.71484,5 7.44141,5 6.9987,4.96094 6.38672,4.88281 5.82682,4.79167 5.39062,4.74609 5.07812,4.74609 4.7526,4.74609 4.31641,4.79167 3.76953,4.88281 3.18359,4.96094 2.7474,5 2.46094,5 2.30469,5 2.22656,4.92188 2.22656,4.76562 c 0,-0.15624 0.07813,-0.23437 0.23438,-0.23437 0.40364,0 0.75521,-0.18229 1.05468,-0.54687 C 3.78906,3.61979 3.92578,3.17708 3.92578,2.65625 V 2.5 H 0.585938 C 0.364583,2.5 0.208333,2.44792 0.117188,2.34375 0.0130208,2.26562 -0.0390625,2.16146 -0.0390625,2.03125 c 0,-0.03906 0.0976563,-0.17578 0.2929685,-0.41016 C 0.47526,1.36068 0.709635,1.04167 0.957031,0.664062 1.24349,0.221354 1.51693,-0.234375 1.77734,-0.703125 2.0638,-1.23698 2.29167,-1.84896 2.46094,-2.53906 2.65625,-3.24219 2.75391,-3.95833 2.75391,-4.6875 2.75391,-4.89583 2.84505,-5 3.02734,-5 c 0.03907,0 0.1237,0.01953 0.25391,0.05859 0.03906,0.01302 0.12044,0.03256 0.24414,0.0586 0.1237,0.02604 0.22461,0.05208 0.30273,0.07812 0.23438,0.03907 0.45573,0.0586 0.66407,0.0586"
       transform="matrix(0.992126,0,0,0.992126,63.9868,101.741)"
       class="TimeSig"
       inkscape:connector-curvature="0" />
    <path
       id="path104"
       d="m 4.49219,-4.74609 c 0.39062,0 0.72265,-0.04558 0.99609,-0.13672 0.27344,-0.09115 0.44922,-0.13672 0.52734,-0.13672 0.09115,0 0.16277,0.02604 0.21485,0.07812 0.03906,0.03907 0.0651,0.08464 0.07812,0.13672 0,0.02604 -0.01302,0.06511 -0.03906,0.11719 L 0.585938,1.91406 H 3.92578 v -2.617185 c 0,-0.169271 0.04557,-0.312495 0.13672,-0.429685 0.15625,-0.13021 0.28646,-0.20834 0.39062,-0.23438 0.16928,-0.07812 0.37761,-0.26041 0.625,-0.54687 0.20834,-0.23438 0.45573,-0.64453 0.74219,-1.23047 0.03907,-0.07813 0.09766,-0.11719 0.17578,-0.11719 0.15625,0 0.2474,0.09115 0.27344,0.27344 v 4.90234 h 1.42578 c 0.18229,0 0.28646,0.09766 0.3125,0.29297 C 8.00781,2.40234 7.90365,2.5 7.69531,2.5 H 6.26953 v 0.15625 c 0,0.52083 0.13021,0.96354 0.39063,1.32813 0.29948,0.36458 0.65104,0.54687 1.05468,0.54687 0.15625,0 0.23438,0.07813 0.23438,0.23437 C 7.94922,4.92188 7.87109,5 7.71484,5 7.44141,5 6.9987,4.96094 6.38672,4.88281 5.82682,4.79167 5.39062,4.74609 5.07812,4.74609 4.7526,4.74609 4.31641,4.79167 3.76953,4.88281 3.18359,4.96094 2.7474,5 2.46094,5 2.30469,5 2.22656,4.92188 2.22656,4.76562 c 0,-0.15624 0.07813,-0.23437 0.23438,-0.23437 0.40364,0 0.75521,-0.18229 1.05468,-0.54687 C 3.78906,3.61979 3.92578,3.17708 3.92578,2.65625 V 2.5 H 0.585938 C 0.364583,2.5 0.208333,2.44792 0.117188,2.34375 0.0130208,2.26562 -0.0390625,2.16146 -0.0390625,2.03125 c 0,-0.03906 0.0976563,-0.17578 0.2929685,-0.41016 C 0.47526,1.36068 0.709635,1.04167 0.957031,0.664062 1.24349,0.221354 1.51693,-0.234375 1.77734,-0.703125 2.0638,-1.23698 2.29167,-1.84896 2.46094,-2.53906 2.65625,-3.24219 2.75391,-3.95833 2.75391,-4.6875 2.75391,-4.89583 2.84505,-5 3.02734,-5 c 0.03907,0 0.1237,0.01953 0.25391,0.05859 0.03906,0.01302 0.12044,0.03256 0.24414,0.0586 0.1237,0.02604 0.22461,0.05208 0.30273,0.07812 0.23438,0.03907 0.45573,0.0586 0.66407,0.0586"
       transform="matrix(0.992126,0,0,0.992126,63.9868,111.662)"
       class="TimeSig"
       inkscape:connector-curvature="0" />
  </g>
  <path
     class="Page"
     d="m 247.1093,710.6761 0.121,1.801 h -0.121 c -0.162,-0.539 -0.392,-0.927 -0.691,-1.164 -0.3,-0.237 -0.659,-0.355 -1.079,-0.355 -0.351,0 -0.669,0.089 -0.953,0.267 -0.284,0.179 -0.507,0.463 -0.67,0.854 -0.162,0.39 -0.244,0.876 -0.244,1.457 0,0.479 0.077,0.894 0.231,1.246 0.153,0.351 0.384,0.621 0.693,0.808 0.309,0.188 0.661,0.282 1.057,0.282 0.343,0 0.647,-0.074 0.91,-0.221 0.263,-0.147 0.552,-0.439 0.867,-0.877 l 0.121,0.078 c -0.266,0.472 -0.575,0.817 -0.93,1.035 -0.354,0.219 -0.774,0.328 -1.261,0.328 -0.878,0 -1.558,-0.325 -2.039,-0.976 -0.36,-0.484 -0.539,-1.055 -0.539,-1.711 0,-0.529 0.118,-1.014 0.355,-1.457 0.237,-0.443 0.563,-0.786 0.979,-1.029 0.415,-0.244 0.869,-0.366 1.361,-0.366 0.383,0 0.76,0.094 1.133,0.282 0.109,0.057 0.187,0.086 0.234,0.086 0.07,0 0.132,-0.025 0.184,-0.075 0.067,-0.07 0.116,-0.168 0.144,-0.293 h 0.137 m 2.512,1.735 c 0.541,0 0.976,0.206 1.304,0.617 0.279,0.352 0.418,0.755 0.418,1.211 0,0.32 -0.077,0.644 -0.23,0.973 -0.154,0.328 -0.365,0.575 -0.635,0.742 -0.269,0.166 -0.57,0.25 -0.9,0.25 -0.539,0 -0.968,-0.215 -1.286,-0.645 -0.268,-0.362 -0.402,-0.768 -0.402,-1.219 0,-0.328 0.082,-0.654 0.244,-0.978 0.163,-0.324 0.377,-0.564 0.643,-0.719 0.265,-0.155 0.547,-0.232 0.844,-0.232 m -0.121,0.254 c -0.138,0 -0.277,0.041 -0.416,0.123 -0.14,0.082 -0.252,0.226 -0.338,0.431 -0.086,0.206 -0.129,0.47 -0.129,0.793 0,0.521 0.103,0.97 0.31,1.348 0.207,0.378 0.48,0.566 0.819,0.566 0.252,0 0.461,-0.104 0.625,-0.312 0.164,-0.208 0.246,-0.566 0.246,-1.074 0,-0.636 -0.137,-1.136 -0.41,-1.5 -0.185,-0.25 -0.421,-0.375 -0.707,-0.375 m 2.113,0.207 1.101,-0.446 h 0.149 v 0.836 c 0.185,-0.315 0.37,-0.535 0.556,-0.662 0.187,-0.126 0.383,-0.189 0.588,-0.189 0.36,0 0.659,0.14 0.899,0.422 0.294,0.343 0.441,0.791 0.441,1.343 0,0.618 -0.177,1.128 -0.531,1.532 -0.292,0.33 -0.659,0.496 -1.102,0.496 -0.192,0 -0.359,-0.028 -0.5,-0.082 -0.104,-0.039 -0.221,-0.117 -0.351,-0.235 v 1.09 c 0,0.245 0.015,0.401 0.045,0.467 0.03,0.066 0.082,0.119 0.156,0.158 0.074,0.039 0.209,0.059 0.404,0.059 v 0.144 h -1.875 v -0.144 h 0.098 c 0.143,0.002 0.266,-0.025 0.367,-0.082 0.05,-0.029 0.088,-0.075 0.115,-0.139 0.028,-0.064 0.041,-0.226 0.041,-0.486 v -3.383 c 0,-0.232 -0.01,-0.379 -0.031,-0.441 -0.021,-0.063 -0.054,-0.11 -0.099,-0.141 -0.046,-0.031 -0.108,-0.047 -0.186,-0.047 -0.063,0 -0.142,0.018 -0.238,0.055 l -0.047,-0.125 m 1.25,0.621 v 1.336 c 0,0.289 0.012,0.479 0.035,0.57 0.036,0.151 0.126,0.284 0.268,0.399 0.141,0.114 0.321,0.171 0.537,0.171 0.26,0 0.471,-0.101 0.632,-0.304 0.211,-0.266 0.317,-0.64 0.317,-1.121 0,-0.547 -0.12,-0.968 -0.36,-1.262 -0.166,-0.203 -0.364,-0.305 -0.593,-0.305 -0.125,0 -0.249,0.031 -0.371,0.094 -0.094,0.047 -0.249,0.187 -0.465,0.422 m 2.805,-0.977 h 1.667 v 0.145 h -0.082 c -0.117,0 -0.205,0.025 -0.263,0.076 -0.059,0.051 -0.088,0.114 -0.088,0.189 0,0.102 0.043,0.243 0.129,0.422 l 0.871,1.805 0.801,-1.977 c 0.044,-0.106 0.066,-0.212 0.066,-0.316 0,-0.047 -0.009,-0.082 -0.027,-0.105 -0.021,-0.029 -0.054,-0.052 -0.098,-0.069 -0.044,-0.017 -0.122,-0.025 -0.234,-0.025 v -0.145 h 1.164 v 0.145 c -0.097,0.01 -0.171,0.031 -0.223,0.062 -0.052,0.032 -0.109,0.09 -0.172,0.176 -0.023,0.037 -0.067,0.137 -0.133,0.301 l -1.457,3.57 c -0.14,0.347 -0.324,0.608 -0.552,0.785 -0.228,0.177 -0.448,0.266 -0.659,0.266 -0.153,0 -0.28,-0.044 -0.378,-0.133 -0.099,-0.088 -0.149,-0.19 -0.149,-0.305 0,-0.109 0.036,-0.197 0.108,-0.263 0.071,-0.067 0.169,-0.1 0.294,-0.1 0.086,0 0.204,0.029 0.352,0.086 0.104,0.039 0.169,0.059 0.195,0.059 0.078,0 0.164,-0.041 0.256,-0.121 0.093,-0.081 0.186,-0.237 0.279,-0.469 l 0.254,-0.621 -1.285,-2.699 c -0.039,-0.081 -0.101,-0.181 -0.187,-0.301 -0.065,-0.091 -0.119,-0.153 -0.16,-0.184 -0.06,-0.042 -0.157,-0.078 -0.289,-0.109 v -0.145 m 5.25,-0.105 v 0.804 c 0.299,-0.536 0.606,-0.804 0.921,-0.804 0.144,0 0.262,0.043 0.356,0.131 0.094,0.087 0.14,0.188 0.14,0.302 0,0.102 -0.033,0.188 -0.101,0.258 -0.068,0.071 -0.149,0.106 -0.242,0.106 -0.091,0 -0.194,-0.045 -0.307,-0.135 -0.113,-0.09 -0.197,-0.135 -0.252,-0.135 -0.047,0 -0.098,0.026 -0.152,0.078 -0.117,0.107 -0.239,0.283 -0.363,0.528 v 1.714 c 0,0.198 0.024,0.348 0.074,0.45 0.034,0.07 0.093,0.129 0.179,0.175 0.086,0.047 0.21,0.071 0.371,0.071 v 0.14 h -1.832 v -0.14 c 0.183,0 0.318,-0.029 0.407,-0.086 0.065,-0.042 0.11,-0.108 0.136,-0.199 0.013,-0.045 0.02,-0.171 0.02,-0.379 v -1.387 c 0,-0.417 -0.008,-0.665 -0.025,-0.744 -0.017,-0.08 -0.049,-0.138 -0.094,-0.174 -0.046,-0.036 -0.102,-0.055 -0.17,-0.055 -0.081,0 -0.172,0.02 -0.274,0.059 l -0.039,-0.141 1.082,-0.437 h 0.165 m 2.519,-1.871 c 0.109,0 0.203,0.038 0.279,0.115 0.077,0.077 0.116,0.17 0.116,0.279 0,0.11 -0.039,0.203 -0.116,0.281 -0.076,0.079 -0.17,0.118 -0.279,0.118 -0.109,0 -0.203,-0.039 -0.281,-0.118 -0.078,-0.078 -0.117,-0.171 -0.117,-0.281 0,-0.109 0.038,-0.202 0.115,-0.279 0.077,-0.077 0.171,-0.115 0.283,-0.115 m 0.324,1.871 v 2.875 c 0,0.224 0.017,0.373 0.049,0.447 0.033,0.074 0.081,0.13 0.145,0.166 0.063,0.037 0.18,0.055 0.349,0.055 v 0.14 h -1.738 v -0.14 c 0.174,0 0.292,-0.017 0.352,-0.051 0.059,-0.034 0.107,-0.09 0.142,-0.168 0.035,-0.078 0.053,-0.228 0.053,-0.449 v -1.379 c 0,-0.388 -0.012,-0.639 -0.035,-0.754 -0.019,-0.083 -0.047,-0.141 -0.086,-0.174 -0.039,-0.032 -0.093,-0.049 -0.16,-0.049 -0.073,0 -0.162,0.02 -0.266,0.059 l -0.055,-0.141 1.078,-0.437 h 0.172 m 1.942,2.379 c -0.219,-0.107 -0.387,-0.256 -0.504,-0.448 -0.117,-0.191 -0.176,-0.403 -0.176,-0.634 0,-0.355 0.133,-0.659 0.4,-0.914 0.267,-0.256 0.609,-0.383 1.026,-0.383 0.341,0 0.636,0.083 0.886,0.25 h 0.758 c 0.112,0 0.177,0.003 0.196,0.01 0.018,0.006 0.031,0.017 0.039,0.033 0.015,0.023 0.023,0.065 0.023,0.125 0,0.067 -0.006,0.114 -0.019,0.14 -0.008,0.013 -0.022,0.024 -0.041,0.032 -0.02,0.007 -0.086,0.011 -0.198,0.011 h -0.465 c 0.146,0.188 0.219,0.427 0.219,0.719 0,0.333 -0.127,0.619 -0.383,0.856 -0.255,0.237 -0.597,0.355 -1.027,0.355 -0.177,0 -0.358,-0.026 -0.543,-0.078 -0.115,0.099 -0.192,0.185 -0.232,0.26 -0.041,0.074 -0.061,0.137 -0.061,0.189 0,0.044 0.022,0.087 0.065,0.129 0.043,0.042 0.126,0.072 0.252,0.09 0.072,0.01 0.255,0.019 0.546,0.027 0.537,0.013 0.884,0.031 1.043,0.055 0.243,0.034 0.436,0.124 0.58,0.269 0.145,0.146 0.217,0.326 0.217,0.54 0,0.294 -0.138,0.57 -0.414,0.828 -0.406,0.38 -0.936,0.57 -1.59,0.57 -0.502,0 -0.927,-0.113 -1.273,-0.34 -0.195,-0.13 -0.293,-0.266 -0.293,-0.406 0,-0.063 0.014,-0.125 0.043,-0.188 0.044,-0.096 0.135,-0.23 0.273,-0.402 0.019,-0.023 0.151,-0.164 0.399,-0.422 -0.136,-0.081 -0.231,-0.153 -0.287,-0.217 -0.056,-0.063 -0.084,-0.136 -0.084,-0.216 0,-0.092 0.037,-0.198 0.111,-0.321 0.074,-0.122 0.245,-0.295 0.514,-0.519 m 0.679,-2.192 c -0.192,0 -0.354,0.077 -0.484,0.231 -0.13,0.153 -0.195,0.389 -0.195,0.707 0,0.411 0.088,0.73 0.265,0.957 0.136,0.172 0.308,0.258 0.516,0.258 0.198,0 0.361,-0.075 0.488,-0.223 0.128,-0.148 0.192,-0.382 0.192,-0.699 0,-0.414 -0.09,-0.739 -0.27,-0.973 -0.133,-0.172 -0.303,-0.258 -0.512,-0.258 m -0.718,3.496 c -0.123,0.133 -0.215,0.257 -0.278,0.371 -0.062,0.115 -0.094,0.221 -0.094,0.317 0,0.125 0.076,0.234 0.227,0.328 0.26,0.161 0.637,0.242 1.129,0.242 0.469,0 0.814,-0.082 1.037,-0.248 0.223,-0.165 0.334,-0.342 0.334,-0.529 0,-0.136 -0.066,-0.232 -0.199,-0.289 -0.136,-0.058 -0.404,-0.091 -0.805,-0.102 -0.586,-0.015 -1.036,-0.045 -1.351,-0.09 m 4.132,-5.554 v 2.617 c 0.289,-0.318 0.519,-0.522 0.688,-0.611 0.169,-0.09 0.338,-0.135 0.508,-0.135 0.203,0 0.377,0.056 0.523,0.168 0.146,0.112 0.254,0.288 0.324,0.527 0.05,0.167 0.075,0.471 0.075,0.914 v 1.266 c 0,0.226 0.018,0.381 0.054,0.465 0.026,0.062 0.071,0.112 0.133,0.148 0.063,0.037 0.177,0.055 0.344,0.055 v 0.14 h -1.758 v -0.14 h 0.082 c 0.167,0 0.283,-0.026 0.348,-0.076 0.065,-0.051 0.11,-0.126 0.136,-0.225 0.008,-0.042 0.012,-0.164 0.012,-0.367 v -1.266 c 0,-0.39 -0.02,-0.647 -0.06,-0.769 -0.041,-0.123 -0.105,-0.215 -0.194,-0.276 -0.088,-0.061 -0.195,-0.092 -0.32,-0.092 -0.128,0 -0.26,0.034 -0.399,0.102 -0.138,0.068 -0.303,0.204 -0.496,0.41 v 1.891 c 0,0.245 0.014,0.397 0.041,0.457 0.028,0.06 0.079,0.11 0.153,0.15 0.074,0.041 0.202,0.061 0.385,0.061 v 0.14 h -1.774 v -0.14 c 0.159,0 0.284,-0.025 0.375,-0.074 0.052,-0.027 0.094,-0.076 0.125,-0.149 0.031,-0.073 0.047,-0.221 0.047,-0.445 v -3.238 c 0,-0.409 -0.01,-0.661 -0.029,-0.754 -0.02,-0.094 -0.05,-0.158 -0.09,-0.192 -0.041,-0.034 -0.095,-0.051 -0.162,-0.051 -0.055,0 -0.144,0.021 -0.266,0.063 l -0.055,-0.137 1.071,-0.437 h 0.179 m 3.989,0.8 v 1.176 h 0.836 v 0.274 h -0.836 v 2.32 c 0,0.232 0.033,0.388 0.099,0.469 0.067,0.08 0.152,0.121 0.256,0.121 0.086,0 0.169,-0.027 0.25,-0.08 0.081,-0.054 0.143,-0.132 0.188,-0.237 h 0.152 c -0.091,0.256 -0.22,0.448 -0.387,0.577 -0.166,0.129 -0.338,0.193 -0.515,0.193 -0.12,0 -0.237,-0.033 -0.352,-0.1 -0.114,-0.066 -0.199,-0.161 -0.254,-0.285 -0.054,-0.123 -0.082,-0.314 -0.082,-0.572 v -2.406 h -0.566 v -0.129 c 0.143,-0.058 0.289,-0.155 0.439,-0.291 0.15,-0.137 0.283,-0.299 0.401,-0.487 0.059,-0.099 0.143,-0.28 0.25,-0.543 h 0.121 m 5.968,-0.664 c 0.467,0 0.921,0.12 1.364,0.358 0.442,0.238 0.788,0.579 1.037,1.023 0.249,0.444 0.373,0.907 0.373,1.389 0,0.479 -0.123,0.939 -0.367,1.379 -0.245,0.44 -0.588,0.782 -1.028,1.025 -0.44,0.244 -0.899,0.365 -1.379,0.365 -0.479,0 -0.938,-0.121 -1.377,-0.365 -0.438,-0.243 -0.78,-0.585 -1.025,-1.025 -0.245,-0.44 -0.367,-0.9 -0.367,-1.379 0,-0.482 0.124,-0.945 0.373,-1.389 0.249,-0.444 0.594,-0.785 1.037,-1.023 0.443,-0.238 0.896,-0.358 1.359,-0.358 m 0,0.239 c -0.424,0 -0.838,0.109 -1.242,0.328 -0.403,0.219 -0.719,0.53 -0.945,0.935 -0.227,0.405 -0.34,0.828 -0.34,1.268 0,0.437 0.111,0.857 0.334,1.258 0.223,0.401 0.535,0.713 0.936,0.937 0.401,0.224 0.82,0.336 1.257,0.336 0.438,0 0.858,-0.112 1.26,-0.336 0.403,-0.224 0.715,-0.536 0.938,-0.937 0.222,-0.401 0.334,-0.821 0.334,-1.258 0,-0.44 -0.114,-0.863 -0.34,-1.268 -0.227,-0.405 -0.542,-0.716 -0.945,-0.935 -0.404,-0.219 -0.819,-0.328 -1.247,-0.328 m 1.372,0.75 0.078,1.093 h -0.153 c -0.093,-0.309 -0.243,-0.541 -0.447,-0.693 -0.204,-0.152 -0.45,-0.228 -0.736,-0.228 -0.214,0 -0.404,0.044 -0.571,0.132 -0.166,0.089 -0.303,0.207 -0.41,0.356 -0.078,0.112 -0.143,0.26 -0.195,0.445 -0.052,0.185 -0.078,0.38 -0.078,0.586 0,0.552 0.118,0.959 0.355,1.221 0.237,0.262 0.55,0.392 0.938,0.392 0.508,0 0.914,-0.211 1.219,-0.632 l 0.144,0.074 c -0.362,0.528 -0.861,0.793 -1.496,0.793 -0.521,0 -0.953,-0.169 -1.295,-0.506 -0.342,-0.337 -0.514,-0.747 -0.514,-1.229 0,-0.5 0.183,-0.926 0.547,-1.279 0.365,-0.353 0.831,-0.529 1.399,-0.529 0.119,0 0.219,0.008 0.299,0.023 0.079,0.016 0.22,0.058 0.423,0.125 0.065,0.021 0.114,0.031 0.145,0.031 0.042,0 0.077,-0.011 0.105,-0.033 0.029,-0.022 0.058,-0.069 0.086,-0.142 h 0.157"
     id="path106"
     inkscape:connector-curvature="0" />
</svg>
